<svg width="215" height="209" viewBox="0 0 215 209" fill="none" xmlns="http://www.w3.org/2000/svg">
<g filter="url(#filter0_d)">
<path d="M38 50.0415L121.585 1.4537C123.132 0.554393 125.042 0.550434 126.593 1.44332L211 50.0415L124.086 100.083L38 50.0415Z" fill="white"/>
<path d="M211 50.0415L211 148.068C211 149.856 210.045 151.508 208.495 152.401L124.086 201L124.086 100.083L211 50.0415Z" fill="white"/>
<path d="M38 50.0415L124.086 100.083L124.086 201L40.4872 152.404C38.9474 151.509 38 149.863 38 148.082V50.0415Z" fill="white"/>
<path d="M142.075 143.255C138.714 145.213 134.504 142.752 134.559 138.863L134.641 133.101C134.666 131.347 135.608 129.735 137.124 128.852L195.495 94.8585C198.855 92.9013 203.066 95.3617 203.01 99.2505L202.928 105.013C202.903 106.767 201.961 108.379 200.445 109.262L142.075 143.255Z" fill="white"/>
<path d="M138.846 144.262C135.485 146.217 131.276 143.756 131.333 139.868L131.412 134.351C131.438 132.598 132.379 130.986 133.894 130.103L195.078 94.4462C198.439 92.4874 202.651 94.9483 202.595 98.838L202.515 104.427C202.49 106.182 201.546 107.795 200.029 108.678L138.846 144.262Z" fill="white"/>
<path d="M137.992 116.93C136.419 117.848 135.178 119.015 134.184 120.433C133.191 121.851 132.695 123.269 132.695 124.52C132.695 125.687 133.026 126.438 133.853 126.772C134.598 127.105 135.923 127.022 137.578 126.605C138.985 126.271 139.896 126.104 140.393 126.271C140.889 126.438 141.138 126.938 141.138 127.689C141.138 128.523 140.806 129.357 140.227 130.108C139.648 130.942 138.82 131.609 137.744 132.276C136.585 132.943 135.674 133.194 135.012 133.027C134.848 132.986 134.704 132.914 134.581 132.813C133.966 132.314 133.166 131.674 132.476 132.063C132.151 132.246 131.939 132.592 131.983 132.963C132.064 133.641 132.287 134.136 132.612 134.528C133.108 135.029 133.771 135.195 134.681 135.112C135.592 135.029 136.585 134.695 137.661 134.028C139.317 133.11 140.558 131.943 141.551 130.525C142.545 129.107 143.041 127.773 143.041 126.438C143.041 125.604 142.876 124.937 142.545 124.52C142.214 124.103 141.717 123.853 140.972 123.769C140.227 123.686 139.234 123.853 137.992 124.186C136.751 124.52 135.84 124.603 135.343 124.436C134.847 124.27 134.598 123.853 134.598 123.185C134.598 122.351 134.929 121.517 135.509 120.683C136.088 119.849 136.833 119.182 137.827 118.598C138.903 117.931 139.73 117.764 140.31 118.014C140.454 118.076 140.577 118.159 140.681 118.265C141.237 118.828 141.991 119.451 142.681 119.062C143.006 118.878 143.216 118.533 143.179 118.162C143.114 117.517 142.928 116.982 142.545 116.597C142.24 116.228 141.8 115.995 141.258 115.898C140.853 115.825 140.437 115.891 140.046 116.021C139.471 116.213 138.775 116.505 137.992 116.93Z" fill="white"/>
<path d="M151.732 109.007C150.491 109.758 149.415 110.675 148.504 111.843C147.594 113.011 146.849 114.345 146.269 115.846C145.773 117.347 145.442 118.849 145.442 120.433V122.018C145.442 124.437 145.938 126.021 147.014 126.772C148.09 127.523 149.497 127.439 151.319 126.355C152.974 125.354 154.381 124.103 155.375 122.602C156.032 121.553 156.545 120.467 156.864 119.296C157.076 118.52 156.244 117.968 155.544 118.363C155.28 118.512 155.1 118.773 155.041 119.07C154.787 120.347 154.402 121.366 153.885 122.185C153.305 123.102 152.395 123.853 151.319 124.52C150.077 125.271 149.084 125.271 148.421 124.603C147.759 123.936 147.428 122.685 147.428 120.85V119.182C147.428 117.264 147.842 115.513 148.587 114.095C149.332 112.594 150.325 111.509 151.65 110.759C152.726 110.175 153.553 109.925 154.133 110.258C154.4 110.374 154.615 110.596 154.785 110.924C155.147 111.626 155.958 112.088 156.645 111.7C157.03 111.483 157.259 111.057 157.178 110.622C156.949 109.38 156.464 108.597 155.623 108.173C154.63 107.756 153.305 108.006 151.732 109.007Z" fill="white"/>
<path d="M165.474 116.18C164.149 116.93 163.156 117.014 162.411 116.263C161.666 115.596 161.335 114.261 161.335 112.343V111.092C161.418 109.174 161.749 107.506 162.494 106.005C163.239 104.503 164.232 103.419 165.557 102.668C166.881 101.918 167.874 101.834 168.619 102.502C169.364 103.169 169.695 104.42 169.612 106.422V107.673C169.53 109.591 169.199 111.342 168.454 112.76C167.874 114.261 166.798 115.429 165.474 116.18ZM165.722 100.834C164.48 101.501 163.404 102.502 162.494 103.669C161.583 104.837 160.838 106.255 160.259 107.756C159.762 109.257 159.431 110.842 159.431 112.51V113.761C159.431 115.346 159.679 116.597 160.176 117.514C160.673 118.431 161.418 118.932 162.328 119.015C163.239 119.099 164.315 118.849 165.557 118.098C166.798 117.347 167.874 116.43 168.785 115.262C169.695 114.095 170.44 112.76 170.937 111.175C171.434 109.674 171.765 108.09 171.765 106.422V105.337C171.765 103.669 171.516 102.418 171.102 101.501C170.606 100.583 169.944 99.9995 168.95 99.9161C168.04 99.7493 166.964 100.083 165.722 100.834Z" fill="white"/>
<path d="M179.877 100.917C178.522 101.692 176.84 100.701 176.86 99.1408L176.877 97.8625C176.889 96.91 177.394 96.0319 178.211 95.5424L179.959 94.4952C181.035 93.9113 181.863 93.6611 182.36 93.9113C182.939 94.1616 183.188 94.7454 183.188 95.8296C183.188 96.747 182.856 97.7479 182.277 98.6653C181.698 99.5827 180.87 100.333 179.877 100.917ZM180.042 92.7437L177.395 94.3176C175.902 95.2053 174.977 96.8043 174.951 98.5411L174.771 110.724C174.759 111.516 175.611 112.021 176.3 111.633C176.618 111.453 176.817 111.118 176.821 110.752L176.877 106.18C176.889 105.193 177.423 104.286 178.28 103.795C179.552 103.067 181.17 103.448 181.984 104.667L182.91 106.055C183.392 106.777 184.352 106.999 185.102 106.563L185.826 106.142C185.884 106.109 185.919 106.047 185.919 105.98C185.919 105.942 185.907 105.904 185.886 105.873L184.561 103.967C183.334 102.2 183.699 99.8706 184.595 97.9147C185.091 96.8304 185.422 95.7462 185.422 94.7454C185.422 93.0773 185.009 92.1599 184.098 91.8263C183.022 91.3259 181.698 91.7429 180.042 92.7437Z" fill="white"/>
<path d="M203.431 81.5066C203.447 80.4346 202.285 79.7569 201.36 80.2983C201.065 80.471 200.845 80.7474 200.742 81.0736L198.174 89.2485C197.301 92.0261 193.461 92.26 192.257 89.6088L191.618 88.1995C191.182 87.2397 190.011 86.8678 189.102 87.4001C188.565 87.7141 188.231 88.286 188.222 88.9079L188.015 102.941C188.004 103.721 188.862 104.203 189.523 103.787C189.805 103.61 189.978 103.301 189.982 102.968L190.058 96.9969C190.039 95.4138 192.196 94.9302 192.855 96.3699L194.31 99.5509C194.602 100.188 195.385 100.426 195.982 100.059C196.219 99.9128 196.396 99.687 196.48 99.4221L199.453 90.156C199.794 89.0946 201.367 89.3781 201.315 90.4915L201.255 95.2474C201.245 96.0157 202.078 96.4997 202.741 96.1104C203.038 95.9358 203.222 95.619 203.227 95.2746L203.431 81.5066Z" fill="white"/>
<path d="M175.241 151.709C174.745 151.959 174.331 151.793 174.331 151.209L174.579 132.443C174.579 132.193 174.662 131.859 174.827 131.609L178.138 126.188C178.304 125.938 178.552 125.688 178.801 125.521L191.134 118.348C191.631 118.098 192.044 118.265 192.044 118.849L191.713 141.117C191.713 141.701 191.3 142.368 190.803 142.618L175.241 151.709ZM193.038 115.012L177.807 123.936C177.642 124.02 177.393 124.27 177.311 124.437L173.255 131.109C173.089 131.359 173.006 131.609 173.006 131.776L172.675 154.628C172.675 155.045 173.006 155.212 173.42 154.962L192.707 143.703C193.121 143.452 193.452 142.952 193.452 142.451L193.856 115.912C193.862 115.481 193.829 114.876 193.398 114.892C193.29 114.896 193.168 114.934 193.038 115.012Z" fill="white"/>
<path d="M191.134 119.015L179.105 126.011C178.903 126.129 178.717 126.272 178.552 126.438V126.522C178.516 127.757 179.852 128.55 180.919 127.927L184.231 125.992C186.719 124.538 189.84 126.359 189.8 129.24L189.644 140.367L184.709 143.245C181.348 145.206 177.134 142.744 177.19 138.853L177.31 130.608L175.324 131.776C175.324 131.829 175.299 131.879 175.274 131.926C175.241 131.987 175.241 132.048 175.241 132.11L174.992 150.875C174.992 151.042 175.158 151.125 175.324 151.042L190.885 141.951C191.051 141.868 191.216 141.618 191.216 141.451L191.539 119.754C191.545 119.375 191.4 118.747 191.134 119.015Z" fill="white"/>
<path d="M174.91 132.026L178.552 126.021L178.552 126.522V126.438C178.717 126.272 178.903 126.129 179.105 126.011L191.134 119.015C191.299 118.932 191.465 119.015 191.465 119.182L191.134 141.451C191.134 141.618 190.969 141.868 190.803 141.951L175.241 151.042C175.076 151.125 174.91 151.042 174.91 150.875L175.159 132.11C175.159 132.03 175.159 131.95 175.232 131.87C175.238 131.863 175.241 131.854 175.241 131.845C175.241 131.817 175.209 131.801 175.186 131.818L174.91 132.026ZM191.134 118.348L178.801 125.521C178.552 125.688 178.304 125.854 178.138 126.188L174.827 131.609C174.662 131.859 174.579 132.193 174.579 132.443L174.331 151.209C174.331 151.793 174.745 151.959 175.241 151.709L190.803 142.618C191.3 142.368 191.713 141.617 191.713 141.117L192.044 118.849C192.044 118.265 191.631 118.015 191.134 118.348Z" fill="white"/>
<path d="M178.303 145.621C178.303 143.968 179.182 142.441 180.61 141.609L185.599 138.706C186.622 138.111 187.905 138.849 187.905 140.033L178.303 145.621ZM178.386 140.45C178.386 138.849 179.237 137.369 180.621 136.564L186.309 133.254C187.054 132.82 187.988 133.358 187.988 134.219C187.988 134.617 187.777 134.985 187.433 135.185L178.386 140.45ZM178.469 135.195C178.469 133.595 179.32 132.115 180.704 131.31L186.392 127.999C187.136 127.566 188.071 128.103 188.071 128.965C188.071 129.363 187.859 129.731 187.516 129.931L178.469 135.195ZM189.768 131.455C189.823 127.564 185.607 125.105 182.247 127.067L178.469 129.274C178.469 129.608 178.221 130.108 177.89 130.275L177.31 130.608L177.19 138.853C177.134 142.744 181.348 145.206 184.709 143.245L189.644 140.367L189.768 131.455Z" fill="white"/>
<path d="M188.008 128.981C188.036 128.092 187.074 127.519 186.305 127.966L180.777 131.183C179.348 132.015 178.469 133.543 178.469 135.195L187.449 129.924C187.785 129.727 187.996 129.371 188.008 128.981Z" fill="white"/>
<path d="M187.925 134.236C187.953 133.347 186.991 132.774 186.222 133.221L180.693 136.439C179.265 137.27 178.386 138.798 178.386 140.45L187.366 135.179C187.702 134.982 187.913 134.626 187.925 134.236Z" fill="white"/>
<path d="M187.905 140.033C187.906 138.886 186.662 138.171 185.671 138.748L180.538 141.735C179.155 142.54 178.304 144.02 178.303 145.621L187.905 140.033Z" fill="white"/>
<path d="M178.552 126.021L174.91 132.026L175.324 131.776L177.31 130.608L177.89 130.275C178.221 130.108 178.469 129.608 178.469 129.274L178.552 126.438L178.552 126.021Z" fill="white"/>
<path d="M147.222 154.868C147.393 154.825 147.513 154.672 147.515 154.496L147.594 147.873C147.594 147.622 147.677 147.289 147.842 147.039L151.153 141.617C151.319 141.367 151.567 141.117 151.816 140.95L164.149 133.778C164.646 133.527 165.06 133.694 165.06 134.195L164.729 156.463C164.729 157.047 164.315 157.714 163.818 157.964L148.256 167.055C147.76 167.305 147.346 167.139 147.346 166.555L147.429 162.635L147.098 162.802C146.766 162.968 146.518 162.885 146.518 162.468L146.601 155.879C146.601 155.558 146.831 155.083 147.143 154.899C147.167 154.884 147.194 154.875 147.222 154.868ZM166.053 130.358L150.822 139.282C150.657 139.366 150.409 139.616 150.326 139.783L146.27 146.455C146.104 146.705 146.021 146.955 146.021 147.122L145.69 169.974C145.69 170.391 146.021 170.558 146.435 170.308L165.722 159.048C166.136 158.798 166.467 158.298 166.467 157.797L166.871 131.258C166.877 130.827 166.844 130.222 166.413 130.238C166.305 130.242 166.183 130.279 166.053 130.358Z" fill="white"/>
<path d="M150.326 145.954L148.339 147.122C148.339 147.175 148.315 147.225 148.289 147.272C148.257 147.333 148.257 147.394 148.257 147.456L148.174 154.378C149.46 153.6 150.254 152.212 150.271 150.709L150.326 145.954ZM164.149 134.361L152.121 141.357C151.918 141.474 151.732 141.618 151.568 141.784V141.868L151.485 144.703L162.908 138.031L162.699 152.887C162.674 154.64 161.733 156.253 160.219 157.136L150.934 162.552C150.554 162.774 150.078 162.5 150.078 162.06C150.078 161.617 149.593 161.343 149.213 161.573L148.008 162.301L147.925 166.221C147.925 166.388 148.091 166.471 148.257 166.388L163.818 157.297C163.984 157.214 164.149 156.963 164.149 156.797L164.48 134.528C164.48 134.278 164.315 134.278 164.149 134.361Z" fill="white"/>
<path d="M164.575 133.546C164.323 133.56 164.122 133.758 163.904 133.885L151.899 140.867C151.65 141.034 151.402 141.2 151.236 141.534L147.925 146.955C147.76 147.205 147.677 147.539 147.677 147.789L147.602 154.043C147.599 154.338 147.918 154.525 148.174 154.378L148.257 147.456C148.257 147.394 148.257 147.333 148.289 147.272C148.315 147.225 148.339 147.175 148.339 147.122C148.233 147.186 148.112 147.065 148.176 146.959L151.568 141.367L151.568 141.868V141.784C151.732 141.618 151.918 141.474 152.121 141.357L164.149 134.361C164.315 134.278 164.48 134.361 164.48 134.528L164.149 156.797C164.149 156.963 163.984 157.214 163.818 157.297L148.257 166.388C148.091 166.471 147.925 166.388 147.925 166.221L148.008 162.301L147.429 162.635L147.346 166.555C147.346 167.139 147.76 167.305 148.256 167.055L163.818 157.964C164.315 157.714 164.729 156.963 164.729 156.463L165.06 134.195C165.06 133.777 164.848 133.53 164.575 133.546Z" fill="white"/>
<path d="M153.218 149.533C152.449 149.98 151.485 149.426 151.485 148.536C151.485 148.125 151.703 147.746 152.058 147.539L159.353 143.294C160.122 142.846 161.086 143.401 161.086 144.29C161.086 144.701 160.868 145.081 160.513 145.287L153.218 149.533ZM162.908 138.031L151.485 144.703C151.485 145.037 151.236 145.538 150.905 145.704C150.546 145.911 150.323 146.292 150.318 146.706L150.305 147.813C150.278 150.228 152.893 151.753 154.981 150.538L160.424 147.372C160.755 147.206 161.004 147.289 161.004 147.706L160.921 154.295C160.921 154.628 160.673 155.129 160.341 155.296L150.59 160.967C150.324 161.122 150.16 161.407 150.16 161.714C150.16 162.381 150.884 162.797 151.46 162.461L160.288 157.311C161.81 156.423 162.752 154.8 162.768 153.039L162.908 138.031Z" fill="white"/>
<path d="M161.086 144.29C161.086 143.401 160.122 142.846 159.353 143.294L152.058 147.539C151.703 147.746 151.485 148.125 151.485 148.536C151.485 149.426 152.449 149.98 153.218 149.533L160.513 145.287C160.868 145.081 161.086 144.701 161.086 144.29Z" fill="white"/>
<path d="M151.568 141.367L148.176 146.959C148.112 147.065 148.233 147.186 148.339 147.122L150.326 145.954L150.905 145.621C151.236 145.454 151.485 144.954 151.485 144.62L151.568 141.784L151.568 141.367Z" fill="white"/>
<path d="M153.648 153.592C153.586 153.618 153.525 153.644 153.467 153.678C153.161 153.854 152.969 154.176 152.959 154.529L152.912 156.306C152.903 156.641 153.255 156.864 153.554 156.714C153.72 156.63 153.802 156.547 153.885 156.463C153.968 156.38 154.051 156.38 154.133 156.296C154.216 156.213 154.299 156.13 154.382 156.046C154.713 155.629 154.796 155.045 154.796 154.462C154.796 154.045 154.713 153.711 154.63 153.544C154.547 153.377 154.382 153.377 154.216 153.377C154.072 153.377 153.864 153.505 153.648 153.592ZM149.664 155.879L149.392 156.036C149.201 156.146 149.084 156.349 149.084 156.568V156.962C149.084 157.26 149.406 157.446 149.664 157.297C149.829 157.214 149.995 157.047 150.16 156.964C150.326 156.88 150.409 156.714 150.491 156.547C150.574 156.38 150.574 156.213 150.574 156.046C150.574 155.879 150.491 155.713 150.409 155.629C150.326 155.629 150.077 155.713 149.664 155.879ZM148.861 160.235C148.729 160.436 148.426 160.637 148.256 160.467C148.174 160.383 148.174 160.3 148.174 160.133L148.256 156.63C148.256 156.275 148.514 155.958 148.83 155.799C148.832 155.798 148.834 155.797 148.836 155.796L149.912 155.129C150.036 155.066 150.148 155.004 150.249 154.95C150.504 154.814 150.867 154.59 151.071 154.795C151.238 154.963 151.389 155.157 151.399 155.394C151.402 155.444 151.402 155.495 151.402 155.546C151.402 156.046 151.236 156.463 150.988 156.797C150.74 157.214 150.326 157.548 149.829 157.881C149.369 158.139 149.084 158.625 149.084 159.152V159.633C149.084 159.799 149.001 159.966 148.919 160.133C148.9 160.171 148.881 160.205 148.861 160.235ZM152.643 158.048C152.478 158.131 152.395 158.215 152.312 158.215C152.23 158.215 152.147 158.131 152.147 158.048C152.147 157.965 152.147 157.881 152.147 157.714L152.23 154.378C152.23 154.211 152.312 154.045 152.395 153.878C152.478 153.711 152.643 153.628 152.809 153.544L153.885 152.877C154.133 152.71 154.382 152.627 154.63 152.543C154.878 152.46 155.044 152.46 155.209 152.543C155.623 152.71 155.872 153.211 155.872 154.045C155.872 154.295 155.872 154.545 155.789 154.879C155.775 154.92 155.764 154.961 155.754 155.002C155.647 155.432 155.457 155.837 155.246 156.226C155.233 156.251 155.22 156.274 155.209 156.296C155.127 156.463 154.961 156.63 154.796 156.797C154.521 157.073 154.24 157.362 153.895 157.542C153.892 157.544 153.888 157.546 153.885 157.548L152.643 158.048ZM156.865 155.629C156.782 155.713 156.617 155.713 156.534 155.629C156.451 155.546 156.451 155.462 156.451 155.296L156.534 151.793C156.534 151.776 156.534 151.76 156.534 151.745C156.535 151.548 156.644 151.348 156.782 151.209C156.865 151.126 156.948 151.042 157.113 150.959L159.1 149.791C159.265 149.708 159.348 149.708 159.431 149.708C159.514 149.708 159.514 149.791 159.514 149.874C159.514 149.958 159.514 150.125 159.431 150.208C159.348 150.292 159.265 150.375 159.1 150.458L157.687 151.312C157.537 151.403 157.444 151.567 157.444 151.743C157.444 152.133 157.869 152.375 158.205 152.176L158.852 151.793C159.017 151.709 159.1 151.709 159.183 151.709C159.265 151.709 159.265 151.793 159.265 151.876C159.265 152.106 159.113 152.312 158.913 152.427C158.894 152.438 158.873 152.449 158.852 152.46L158.736 152.529C157.935 153.003 157.444 153.865 157.444 154.795C157.444 155.148 157.113 155.379 156.865 155.629ZM160.424 147.289L150.243 153.211L148.174 154.462L147.594 154.795L147.263 154.962C146.932 155.129 146.684 155.629 146.684 155.963L146.601 162.552C146.601 162.885 146.849 163.052 147.18 162.885L147.511 162.718L148.091 162.385L150.16 161.134L160.342 155.212C160.673 155.045 160.921 154.545 160.921 154.211L161.004 147.623C161.004 147.206 160.755 147.039 160.424 147.289Z" fill="white"/>
<path d="M149.664 157.297C149.406 157.446 149.084 157.26 149.084 156.962V156.568C149.084 156.349 149.201 156.146 149.392 156.036L149.664 155.879C150.077 155.629 150.326 155.546 150.409 155.629C150.491 155.713 150.574 155.796 150.574 156.046C150.574 156.213 150.491 156.38 150.491 156.547C150.409 156.714 150.326 156.797 150.16 156.964C149.995 157.13 149.829 157.214 149.664 157.297ZM149.912 155.045L148.836 155.713C148.521 155.871 148.256 156.194 148.256 156.547L148.173 160.049C148.173 160.119 148.173 160.188 148.179 160.245C148.191 160.355 148.283 160.436 148.391 160.414C148.499 160.393 148.634 160.343 148.721 160.274C148.793 160.217 148.87 160.147 148.918 160.049C148.941 160.004 148.958 159.958 148.971 159.912C149.043 159.672 149.084 159.419 149.084 159.168V159.068C149.084 158.541 149.369 158.055 149.829 157.798C150.326 157.464 150.739 157.13 150.988 156.713C151.236 156.296 151.402 155.879 151.402 155.462C151.402 155.308 151.402 155.186 151.382 155.095C151.362 154.998 151.282 154.876 151.218 154.8C151.126 154.69 151.007 154.649 150.863 154.649C150.801 154.649 150.739 154.67 150.657 154.712C150.491 154.795 150.243 154.879 149.912 155.045ZM153.637 156.713C153.354 156.892 152.986 156.682 152.995 156.348L153.039 154.713C153.05 154.298 153.277 153.918 153.637 153.711C153.885 153.544 154.133 153.461 154.299 153.377C154.595 153.228 154.849 153.676 154.87 154.008C154.878 154.131 154.878 154.28 154.878 154.462C154.878 154.97 154.782 155.382 154.626 155.733C154.532 155.947 154.381 156.13 154.216 156.296C154.078 156.435 153.9 156.555 153.733 156.659C153.705 156.677 153.672 156.695 153.637 156.713ZM153.802 152.793L152.726 153.461C152.411 153.619 152.147 153.942 152.147 154.295L152.064 157.631C152.064 157.798 152.064 157.881 152.064 157.964C152.064 158.121 152.331 158.15 152.457 158.056C152.47 158.046 152.484 158.035 152.499 158.022C152.541 157.986 152.585 157.949 152.632 157.92L153.637 157.297C153.802 157.214 153.968 157.047 154.133 156.964C154.188 156.936 154.242 156.9 154.294 156.857C154.5 156.687 154.638 156.449 154.799 156.236C154.898 156.105 155.01 155.979 155.091 155.837C155.177 155.687 155.234 155.553 155.292 155.379C155.375 155.129 155.458 154.879 155.54 154.628C155.623 154.378 155.623 154.128 155.623 153.794C155.623 153.001 155.473 152.509 155.031 152.32C154.985 152.3 154.945 152.283 154.899 152.266C154.591 152.15 154.307 152.488 154.025 152.657C153.954 152.7 153.878 152.743 153.802 152.793ZM159.017 149.791L157.389 150.748C157.151 150.888 156.894 151.013 156.699 151.209C156.616 151.292 156.534 151.376 156.534 151.459C156.534 151.542 156.451 151.709 156.451 151.793L156.368 155.296C156.368 155.462 156.368 155.629 156.451 155.629C156.663 155.629 156.891 155.571 157.032 155.413C157.063 155.379 157.091 155.34 157.113 155.296C157.127 155.268 157.138 155.24 157.148 155.212C157.246 154.941 157.279 154.645 157.279 154.357C157.279 153.698 157.626 153.088 158.194 152.752L158.686 152.46C158.851 152.376 158.934 152.293 159.017 152.21C159.1 152.126 159.1 152.043 159.1 151.876C159.1 151.709 159.1 151.709 159.017 151.709C158.934 151.709 158.851 151.709 158.686 151.793L158.039 152.176C157.703 152.375 157.279 152.133 157.279 151.743C157.279 151.567 157.371 151.403 157.522 151.312L158.934 150.458C159.1 150.375 159.183 150.291 159.265 150.208C159.348 150.125 159.348 149.958 159.348 149.874C159.348 149.757 159.198 149.69 159.097 149.748C159.073 149.762 159.046 149.776 159.017 149.791Z" fill="white"/>
<path d="M78.0077 73.3048C74.704 71.3699 74.7118 66.5917 78.0218 64.6676L154.237 20.3641C155.763 19.4767 157.645 19.4603 159.187 20.3209L166.63 24.4756C170.021 26.3686 170.053 31.2366 166.688 33.1746L89.933 77.3668C88.3772 78.2626 86.4604 78.2555 84.9113 77.3481L78.0077 73.3048Z" fill="white"/>
<path d="M70.5303 77.9818C70.5303 74.1113 74.7389 71.7085 78.072 73.676L84.4615 77.4477C85.985 78.347 86.9198 79.9844 86.9198 81.7535V171.058C86.9198 174.929 82.7112 177.332 79.3781 175.364L72.9886 171.592C71.4652 170.693 70.5303 169.056 70.5303 167.286V77.9818Z" fill="white"/>
<path d="M48 56.0664L124.134 12L201 56.0664L124.134 100.133L48 56.0664Z" fill="#EDEFF5"/>
<path d="M201.001 56.0664V144.934L124.135 189V100.133L201.001 56.0664Z" fill="#BDC7E2"/>
<path d="M48 56.0664L124.134 100.133V189L48 144.934V56.0664Z" fill="#E4E8F3"/>
<path d="M136.432 114.968C135.041 115.776 133.943 116.805 133.064 118.053C132.186 119.302 131.747 120.55 131.747 121.652C131.747 122.68 132.04 123.341 132.772 123.635C133.43 123.929 134.602 123.855 136.066 123.488C137.31 123.194 138.116 123.047 138.555 123.194C138.994 123.341 139.214 123.782 139.214 124.443C139.214 125.177 138.921 125.912 138.408 126.573C137.896 127.307 137.164 127.895 136.212 128.482C135.187 129.07 134.382 129.29 133.797 129.143C133.211 128.996 132.918 128.409 132.918 127.527L131.088 128.556C131.088 129.437 131.308 130.024 131.674 130.465C132.113 130.906 132.698 131.053 133.504 130.979C134.309 130.906 135.187 130.612 136.139 130.024C137.603 129.217 138.701 128.188 139.58 126.94C140.458 125.691 140.897 124.516 140.897 123.341C140.897 122.607 140.751 122.019 140.458 121.652C140.165 121.285 139.726 121.064 139.067 120.991C138.408 120.917 137.53 121.064 136.432 121.358C135.334 121.652 134.529 121.725 134.089 121.578C133.65 121.432 133.43 121.064 133.43 120.477C133.43 119.742 133.723 119.008 134.236 118.273C134.748 117.539 135.407 116.951 136.285 116.437C137.237 115.85 137.969 115.703 138.482 115.923C138.994 116.144 139.214 116.658 139.214 117.612L141.044 116.584C141.044 115.776 140.897 115.115 140.458 114.675C140.092 114.234 139.507 114.014 138.774 114.014C138.189 114.161 137.384 114.454 136.432 114.968Z" fill="white"/>
<path d="M148.583 107.992C147.485 108.653 146.533 109.461 145.728 110.489C144.923 111.518 144.264 112.693 143.752 114.015C143.312 115.337 143.02 116.659 143.02 118.054V119.45C143.02 121.579 143.459 122.975 144.41 123.636C145.362 124.297 146.607 124.223 148.217 123.269C149.681 122.387 150.926 121.286 151.804 119.964C152.683 118.568 153.268 117.099 153.415 115.41L151.585 116.438C151.365 117.76 150.999 118.789 150.487 119.596C149.974 120.404 149.169 121.065 148.217 121.653C147.119 122.314 146.241 122.314 145.655 121.726C145.069 121.139 144.776 120.037 144.776 118.421V116.952C144.776 115.263 145.142 113.721 145.801 112.472C146.46 111.15 147.339 110.196 148.51 109.535C149.462 109.021 150.194 108.8 150.706 109.094C151.219 109.314 151.511 109.975 151.658 111.077L153.488 110.049C153.342 108.58 152.902 107.699 152.024 107.258C151.145 106.891 149.974 107.111 148.583 107.992Z" fill="white"/>
<path d="M160.737 114.308C159.565 114.969 158.687 115.042 158.028 114.381C157.369 113.794 157.076 112.619 157.076 110.929V109.828C157.15 108.139 157.442 106.67 158.101 105.348C158.76 104.026 159.639 103.071 160.81 102.41C161.981 101.749 162.86 101.675 163.518 102.263C164.177 102.851 164.47 103.952 164.397 105.715V106.817C164.324 108.506 164.031 110.048 163.372 111.297C162.86 112.619 161.908 113.647 160.737 114.308ZM160.956 100.794C159.858 101.382 158.906 102.263 158.101 103.291C157.296 104.319 156.637 105.568 156.125 106.89C155.685 108.212 155.393 109.607 155.393 111.076V112.178C155.393 113.573 155.612 114.675 156.051 115.483C156.491 116.291 157.15 116.732 157.955 116.805C158.76 116.878 159.712 116.658 160.81 115.997C161.908 115.336 162.86 114.528 163.665 113.5C164.47 112.472 165.129 111.297 165.568 109.901C166.007 108.579 166.3 107.184 166.3 105.715V104.76C166.3 103.291 166.081 102.19 165.715 101.382C165.275 100.574 164.69 100.06 163.811 99.9863C163.006 99.8394 162.054 100.133 160.956 100.794Z" fill="white"/>
<path d="M170.766 102.41L170.839 96.8285L173.548 95.2127C174.499 94.6986 175.231 94.4783 175.67 94.6986C176.183 94.9189 176.403 95.433 176.403 96.3878C176.403 97.1957 176.11 98.077 175.597 98.8849C175.085 99.6928 174.353 100.354 173.474 100.868L170.766 102.41ZM173.621 93.6704L169.155 96.3144L168.936 111.077L170.766 110.048L170.839 104.099L174.06 102.263L176.915 106.523L178.818 105.421V105.275L175.744 100.868C176.549 100.06 177.208 99.1787 177.647 98.2239C178.086 97.2691 178.379 96.3144 178.379 95.433C178.379 93.9642 178.013 93.1563 177.208 92.8625C176.256 92.4218 175.085 92.7891 173.621 93.6704Z" fill="white"/>
<path d="M194.338 81.625L192.069 82.947L187.457 97.5623L183.137 88.0881L180.868 89.4101L180.648 104.246L182.405 103.144L182.479 97.4155L182.405 91.3196L186.725 100.72L188.042 99.9125L192.727 85.3706L192.435 91.6868L192.361 97.4155L194.118 96.3872L194.338 81.625Z" fill="white"/>
<path d="M169.375 145.595C168.936 145.816 168.57 145.669 168.57 145.155L168.789 128.63C168.789 128.409 168.862 128.116 169.009 127.895L171.937 123.121C172.083 122.901 172.303 122.681 172.523 122.534L183.43 116.218C183.87 115.997 184.236 116.144 184.236 116.658L183.943 136.268C183.943 136.782 183.577 137.37 183.138 137.59L169.375 145.595ZM185.114 113.28L171.644 121.138C171.498 121.212 171.278 121.432 171.205 121.579L167.618 127.455C167.471 127.675 167.398 127.895 167.398 128.042L167.105 148.166C167.105 148.533 167.398 148.68 167.764 148.46L184.821 138.545C185.187 138.324 185.48 137.884 185.48 137.443L185.846 113.5C185.773 113.206 185.48 113.06 185.114 113.28Z" fill="white"/>
<path d="M183.429 116.805L172.522 123.121C172.449 123.195 172.375 123.268 172.302 123.341V123.415L172.229 125.912L182.331 120.036L182.112 135.607L170.984 142.07L171.204 127.014L169.447 128.042V128.115C169.374 128.189 169.374 128.262 169.374 128.336L169.154 144.861C169.154 145.007 169.301 145.081 169.447 145.007L183.21 137.002C183.356 136.929 183.503 136.708 183.503 136.561L183.795 116.952C183.722 116.731 183.576 116.658 183.429 116.805Z" fill="#E4E8F3"/>
<path d="M169.083 128.262L172.304 122.974V123.415V123.342C172.377 123.268 172.45 123.195 172.523 123.121L183.431 116.805C183.577 116.732 183.724 116.805 183.724 116.952L183.431 136.562C183.431 136.708 183.285 136.929 183.138 137.002L169.376 145.008C169.229 145.081 169.083 145.008 169.083 144.861L169.302 128.336C169.302 128.262 169.302 128.189 169.376 128.115V128.042L169.083 128.262ZM183.431 116.218L172.523 122.534C172.304 122.681 172.084 122.827 171.938 123.121L169.01 127.895C168.863 128.115 168.79 128.409 168.79 128.63L168.57 145.154C168.57 145.669 168.936 145.815 169.376 145.595L183.138 137.59C183.577 137.369 183.944 136.708 183.944 136.268L184.236 116.658C184.236 116.144 183.87 115.924 183.431 116.218Z" fill="#BDC7E2"/>
<path d="M172.082 140.233V137.883L180.574 132.962V135.313L172.082 140.233ZM172.156 135.68V133.403L180.648 128.482V130.759L172.156 135.68ZM172.229 131.053V128.776L180.721 123.855V126.132L172.229 131.053ZM182.331 119.963L172.229 125.838C172.229 126.132 172.009 126.573 171.716 126.72L171.204 127.014L170.984 142.07L182.112 135.606L182.331 119.963Z" fill="#EDEFF5"/>
<path d="M180.722 123.781L172.23 128.702V131.052L180.649 126.131L180.722 123.781Z" fill="#BDC7E2"/>
<path d="M180.648 128.41L172.156 133.331V135.681L180.575 130.76L180.648 128.41Z" fill="#BDC7E2"/>
<path d="M180.576 133.037L172.084 137.958V140.235L180.576 135.314V133.037Z" fill="#BDC7E2"/>
<path d="M172.303 122.975L169.082 128.263L169.448 128.042L171.205 127.014L171.717 126.72C172.01 126.573 172.23 126.133 172.23 125.839L172.303 123.342V122.975Z" fill="#BDC7E2"/>
<path d="M144.851 148.313L144.924 142.217C144.924 141.996 144.997 141.703 145.144 141.482L148.072 136.709C148.218 136.488 148.438 136.268 148.657 136.121L159.565 129.805C160.004 129.584 160.37 129.731 160.37 130.172L160.078 149.782C160.078 150.296 159.712 150.883 159.272 151.104L145.51 159.109C145.07 159.329 144.704 159.182 144.704 158.668L144.778 155.216L144.485 155.363C144.192 155.51 143.972 155.437 143.972 155.07L144.045 149.267C144.045 148.974 144.265 148.533 144.558 148.386L144.851 148.313ZM161.249 126.794L147.779 134.652C147.633 134.726 147.413 134.946 147.34 135.093L143.753 140.968C143.606 141.189 143.533 141.409 143.533 141.556L143.24 161.679C143.24 162.047 143.533 162.194 143.899 161.973L160.956 152.058C161.322 151.838 161.615 151.397 161.615 150.957L161.981 127.014C161.908 126.72 161.615 126.573 161.249 126.794Z" fill="white"/>
<path d="M147.34 140.528L145.583 141.556V141.63C145.51 141.703 145.51 141.777 145.51 141.85L145.436 147.946L147.267 146.844L147.34 140.528ZM159.565 130.319L148.657 136.635C148.584 136.709 148.511 136.782 148.438 136.856V136.929L148.365 139.426L158.467 133.551L158.247 149.121L147.12 155.584V153.821L145.29 154.923L145.217 158.375C145.217 158.522 145.363 158.595 145.51 158.522L159.272 150.516C159.419 150.443 159.565 150.223 159.565 150.076L159.858 130.466C159.858 130.246 159.712 130.246 159.565 130.319Z" fill="#E4E8F3"/>
<path d="M159.639 129.731L148.731 136.047C148.512 136.194 148.292 136.341 148.146 136.635L145.218 141.409C145.071 141.629 144.998 141.923 144.998 142.143L144.925 148.239L145.437 147.945L145.51 141.849C145.51 141.776 145.51 141.703 145.584 141.629V141.556L145.218 141.776L148.439 136.488V136.929V136.855C148.512 136.782 148.585 136.708 148.658 136.635L159.566 130.319C159.712 130.245 159.859 130.319 159.859 130.466L159.566 150.075C159.566 150.222 159.419 150.442 159.273 150.516L145.51 158.521C145.364 158.595 145.218 158.521 145.218 158.374L145.291 154.922L144.778 155.216L144.705 158.668C144.705 159.182 145.071 159.329 145.51 159.109L159.273 151.103C159.712 150.883 160.078 150.222 160.078 149.781L160.371 130.172C160.371 129.658 160.005 129.437 159.639 129.731Z" fill="#BDC7E2"/>
<path d="M148.365 144.567V142.217L156.857 137.296V139.647L148.365 144.567ZM158.467 133.551L148.365 139.426C148.365 139.72 148.145 140.161 147.852 140.308L147.34 140.601L147.267 146.991L156.271 141.777C156.564 141.63 156.783 141.703 156.783 142.07L156.71 147.872C156.71 148.166 156.49 148.607 156.198 148.754L147.193 153.968V155.731L158.321 149.268L158.467 133.551Z" fill="#EDEFF5"/>
<path d="M156.857 137.295L148.365 142.216V144.566L156.857 139.645V137.295Z" fill="#BDC7E2"/>
<path d="M148.438 136.488L145.217 141.776L145.583 141.556L147.34 140.528L147.852 140.234C148.145 140.087 148.365 139.646 148.365 139.353L148.438 136.856V136.488Z" fill="#BDC7E2"/>
<path d="M150.194 147.285L149.682 147.579L149.609 150.296L150.194 150.002C150.341 149.929 150.414 149.855 150.487 149.782C150.56 149.709 150.633 149.709 150.707 149.635C150.78 149.562 150.853 149.488 150.926 149.415C151.219 149.048 151.292 148.533 151.292 148.019C151.292 147.652 151.219 147.358 151.146 147.211C151.073 147.065 150.926 147.065 150.78 147.065C150.633 147.065 150.414 147.211 150.194 147.285ZM146.754 149.268L146.241 149.562V150.81L146.754 150.516C146.9 150.443 147.046 150.296 147.193 150.223C147.339 150.149 147.412 150.002 147.486 149.855C147.559 149.709 147.559 149.562 147.559 149.415C147.559 149.268 147.486 149.121 147.412 149.048C147.339 149.048 147.12 149.121 146.754 149.268ZM145.802 153.307C145.729 153.381 145.582 153.381 145.509 153.307C145.436 153.234 145.436 153.16 145.436 153.014L145.509 149.929C145.509 149.782 145.582 149.562 145.655 149.488C145.729 149.341 145.875 149.268 146.021 149.194L146.973 148.607C147.266 148.46 147.486 148.313 147.632 148.313C147.778 148.24 147.925 148.24 147.998 148.313C148.071 148.387 148.218 148.46 148.218 148.533C148.291 148.68 148.291 148.827 148.291 148.974C148.291 149.415 148.144 149.782 147.925 150.076C147.705 150.443 147.339 150.737 146.9 151.031L146.241 151.398V152.573C146.241 152.72 146.168 152.867 146.095 153.014C146.021 153.16 145.948 153.234 145.802 153.307ZM149.389 151.177C149.243 151.251 149.169 151.324 149.096 151.324C149.023 151.324 148.95 151.251 148.95 151.177C148.95 151.104 148.95 151.031 148.95 150.884L149.023 147.946C149.023 147.799 149.096 147.652 149.169 147.505C149.243 147.358 149.389 147.285 149.535 147.211L150.487 146.624C150.707 146.477 150.926 146.404 151.146 146.33C151.365 146.257 151.512 146.257 151.658 146.33C152.024 146.477 152.244 146.918 152.244 147.652C152.244 147.872 152.244 148.093 152.171 148.387C152.098 148.607 152.098 148.827 151.951 149.048C151.878 149.268 151.732 149.488 151.658 149.635C151.585 149.782 151.439 149.929 151.292 150.076C151.146 150.223 151.073 150.296 150.926 150.443C150.78 150.516 150.633 150.663 150.487 150.737L149.389 151.177ZM153.122 149.048C153.049 149.121 152.903 149.121 152.83 149.048C152.756 148.974 152.756 148.901 152.756 148.754L152.83 145.669C152.83 145.522 152.83 145.449 152.903 145.375C152.903 145.302 152.976 145.228 153.049 145.155C153.122 145.082 153.196 145.008 153.342 144.935L155.099 143.906C155.245 143.833 155.319 143.833 155.392 143.833C155.465 143.833 155.465 143.906 155.465 143.98C155.465 144.053 155.465 144.2 155.392 144.274C155.319 144.347 155.245 144.421 155.099 144.494L153.635 145.375V146.404L154.879 145.669C155.026 145.596 155.099 145.596 155.172 145.596C155.245 145.596 155.245 145.669 155.245 145.743C155.245 145.816 155.245 145.889 155.172 146.036C155.099 146.11 155.026 146.183 154.879 146.257L153.635 146.991V148.313C153.635 148.46 153.562 148.607 153.488 148.754C153.342 148.901 153.196 148.974 153.122 149.048ZM156.27 141.703L147.266 146.918L145.436 148.019L144.923 148.313L144.631 148.46C144.338 148.607 144.118 149.048 144.118 149.341L144.045 155.143C144.045 155.437 144.265 155.584 144.557 155.437L144.85 155.29L145.363 154.996L147.193 153.895L156.197 148.68C156.49 148.533 156.71 148.093 156.71 147.799L156.783 141.997C156.783 141.63 156.563 141.483 156.27 141.703Z" fill="#EF4141"/>
<path d="M146.241 150.81V149.562L146.753 149.268C147.119 149.048 147.339 148.974 147.412 149.048C147.485 149.121 147.559 149.195 147.559 149.415C147.559 149.562 147.485 149.709 147.485 149.856C147.412 150.002 147.339 150.076 147.192 150.223C147.046 150.37 146.9 150.443 146.753 150.517L146.241 150.81ZM146.973 148.534L146.021 149.121C145.875 149.195 145.728 149.341 145.655 149.415C145.582 149.562 145.509 149.709 145.509 149.856L145.436 152.94C145.436 153.087 145.436 153.234 145.509 153.234C145.582 153.307 145.655 153.234 145.802 153.234C145.875 153.161 146.021 153.087 146.094 152.94C146.168 152.793 146.168 152.646 146.241 152.5V151.324L146.9 150.957C147.339 150.663 147.705 150.37 147.925 150.002C148.144 149.635 148.291 149.268 148.291 148.901C148.291 148.68 148.291 148.534 148.217 148.46C148.144 148.313 148.071 148.24 147.998 148.24C147.851 148.166 147.778 148.166 147.632 148.24C147.485 148.313 147.266 148.387 146.973 148.534ZM149.681 150.37L149.755 147.652L150.267 147.358C150.487 147.212 150.706 147.138 150.853 147.065C150.999 146.991 151.146 147.065 151.219 147.212C151.365 147.358 151.365 147.579 151.365 148.019C151.365 148.607 151.219 149.048 150.999 149.415C150.926 149.488 150.853 149.562 150.78 149.635C150.706 149.709 150.633 149.782 150.56 149.782C150.487 149.856 150.414 149.929 150.267 150.002L149.681 150.37ZM150.414 146.551L149.462 147.138C149.315 147.212 149.169 147.358 149.096 147.432C149.023 147.579 148.949 147.726 148.949 147.873L148.876 150.81C148.876 150.957 148.876 151.031 148.876 151.104C148.876 151.178 148.949 151.178 149.023 151.251C149.096 151.251 149.169 151.251 149.315 151.104L150.267 150.517C150.414 150.443 150.56 150.296 150.706 150.223C150.853 150.149 150.999 150.002 151.072 149.856C151.219 149.709 151.292 149.562 151.438 149.415C151.585 149.195 151.658 149.048 151.731 148.827C151.804 148.607 151.878 148.387 151.951 148.166C152.024 147.946 152.024 147.726 152.024 147.432C152.024 146.697 151.878 146.257 151.438 146.11C151.292 146.036 151.146 146.036 150.926 146.11C150.853 146.33 150.633 146.404 150.414 146.551ZM155.025 143.907L153.269 144.935C153.195 145.008 153.049 145.082 152.976 145.155C152.903 145.229 152.829 145.302 152.829 145.375C152.829 145.449 152.756 145.596 152.756 145.669L152.683 148.754C152.683 148.901 152.683 149.048 152.756 149.048C152.829 149.048 152.903 149.048 153.049 149.048C153.122 148.974 153.269 148.901 153.342 148.754C153.415 148.607 153.415 148.46 153.488 148.313V146.991L154.733 146.257C154.879 146.183 154.952 146.11 155.025 146.036C155.099 145.963 155.099 145.89 155.099 145.743C155.099 145.596 155.099 145.596 155.025 145.596C154.952 145.596 154.879 145.596 154.733 145.669L153.488 146.404V145.375L154.952 144.494C155.099 144.421 155.172 144.347 155.245 144.274C155.318 144.2 155.318 144.053 155.318 143.98C155.318 143.907 155.318 143.833 155.245 143.833C155.245 143.76 155.172 143.833 155.025 143.907Z" fill="white"/>
<path d="M76.8438 72.7383L152.978 28.6719L168.571 37.3383L91.7045 81.4047L76.8438 72.7383Z" fill="#DDE2ED"/>
<path d="M76.7695 72.959L91.2643 81.4785V170.346L76.7695 161.826V72.959Z" fill="#EFF1F8"/>
</g>
<g filter="url(#filter1_d)">
<circle cx="48" cy="59" r="44" fill="white"/>
</g>
<circle cx="48" cy="59" r="36" fill="#57D596"/>
<path fill-rule="evenodd" clip-rule="evenodd" d="M68.0014 49.292C69.4449 50.888 69.3072 53.3393 67.6939 54.7672L44.8206 75.0122C43.2703 76.3844 40.9063 76.3195 39.4353 74.8643L30.1481 65.6772C28.6173 64.1629 28.6173 61.7078 30.1481 60.1935C31.6788 58.6793 34.1607 58.6793 35.6915 60.1936L42.3567 66.7869L62.4665 48.9879C64.0798 47.5599 66.5579 47.6961 68.0014 49.292Z" fill="white"/>
<defs>
<filter id="filter0_d" x="34" y="0.777344" width="181" height="208.224" filterUnits="userSpaceOnUse" color-interpolation-filters="sRGB">
<feFlood flood-opacity="0" result="BackgroundImageFix"/>
<feColorMatrix in="SourceAlpha" type="matrix" values="0 0 0 0 0 0 0 0 0 0 0 0 0 0 0 0 0 0 127 0"/>
<feOffset dy="4"/>
<feGaussianBlur stdDeviation="2"/>
<feColorMatrix type="matrix" values="0 0 0 0 0 0 0 0 0 0 0 0 0 0 0 0 0 0 0.03 0"/>
<feBlend mode="normal" in2="BackgroundImageFix" result="effect1_dropShadow"/>
<feBlend mode="normal" in="SourceGraphic" in2="effect1_dropShadow" result="shape"/>
</filter>
<filter id="filter1_d" x="0" y="15" width="96" height="96" filterUnits="userSpaceOnUse" color-interpolation-filters="sRGB">
<feFlood flood-opacity="0" result="BackgroundImageFix"/>
<feColorMatrix in="SourceAlpha" type="matrix" values="0 0 0 0 0 0 0 0 0 0 0 0 0 0 0 0 0 0 127 0"/>
<feOffset dy="4"/>
<feGaussianBlur stdDeviation="2"/>
<feColorMatrix type="matrix" values="0 0 0 0 0 0 0 0 0 0 0 0 0 0 0 0 0 0 0.03 0"/>
<feBlend mode="normal" in2="BackgroundImageFix" result="effect1_dropShadow"/>
<feBlend mode="normal" in="SourceGraphic" in2="effect1_dropShadow" result="shape"/>
</filter>
</defs>
</svg>
