<?xml version="1.0" encoding="UTF-8"?>
<svg width="15px" height="18px" viewBox="0 0 15 18" version="1.1" xmlns="http://www.w3.org/2000/svg" xmlns:xlink="http://www.w3.org/1999/xlink">
    <!-- Generator: Sketch 60 (88103) - https://sketch.com -->
    <title>logos/goverment</title>
    <desc>Created with Sketch.</desc>
    <g id="Symbols" stroke="none" stroke-width="1" fill="none" fill-rule="evenodd">
        <g id="component/goverment-banner" transform="translate(-50.000000, -6.000000)" fill="#ED232A" fill-rule="nonzero">
            <g id="Group">
                <g id="logos/goverment" transform="translate(49.999955, 6.000005)">
                    <path d="M8.0471449,2.62371547 L4.2341449,2.62371547 C4.1983449,2.73411547 4.1309449,2.83158547 4.0403449,2.90409547 C3.9496449,2.97660547 3.8397449,3.02097547 3.7241449,3.03171547 C3.3471449,3.03171547 3.3161449,2.62371547 3.3161449,2.62371547 L0.832144902,2.62371547 C0.832144902,2.62371547 0.322144902,2.82371547 0.390144902,3.06571547 C0.450144902,3.22868547 0.556544902,3.37051547 0.696144902,3.47371547 C0.696144902,3.47371547 0.118144902,3.67371547 0.0161449019,3.98371547 C-0.0858550981,4.29369547 0.322144902,4.83369547 0.492144902,4.97069547 C0.662144902,5.10769547 0.730144902,5.14069547 0.968144902,4.97069547 C1.2061449,4.77069547 1.4101449,4.77069547 2.1591449,4.80069547 C2.9081449,4.83069547 2.9071449,5.65069547 2.9071449,5.65069547 C2.9071449,5.65069547 2.8071449,6.26269547 2.3291449,6.26269547 C1.8511449,6.26269547 1.4781449,6.39869547 1.2061449,6.09269547 C0.934144902,5.78669547 0.832144902,5.68469547 0.628144902,5.68469547 C0.424144902,5.68469547 0.186144902,5.99069547 0.186144902,6.46669547 C0.172044902,6.61939547 0.188944902,6.77339547 0.235644902,6.91939547 C0.282344902,7.06549547 0.358044902,7.20059547 0.458144902,7.31669547 C0.558144902,7.38469547 0.764144902,7.38469547 1.0021449,7.11669547 C1.2741449,6.81069547 1.3421449,6.98069547 1.6481449,6.98069547 C1.9541449,6.98069547 2.8731449,7.08069547 3.5871449,7.04869547 C3.9358449,7.10699547 4.2929449,7.08849547 4.6337449,6.99459547 C4.9745449,6.90059547 5.2906449,6.73339547 5.5601449,6.50469547 C5.8144449,6.26529547 6.0016449,5.96349547 6.1030449,5.62919547 C6.2044449,5.29499547 6.2165449,4.94009547 6.1381449,4.59969547 C6.0021449,3.74971547 6.0701449,3.78371547 6.4101449,3.81771547 C6.7348449,3.90819547 7.0795449,3.89631547 7.3971449,3.78371547 C7.5310449,3.72252547 7.6497449,3.63253547 7.7448449,3.52017547 C7.8399449,3.40781547 7.9090449,3.27585547 7.9471449,3.13371547 C7.9631449,2.96075547 7.9966449,2.78987547 8.0471449,2.62371547 Z" id="Path"></path>
                    <path d="M6.9561449,2.18174547 C6.9561449,2.18174547 6.8891449,1.26274547 8.2561449,1.12674547 C9.1314449,0.943495468 10.0382449,0.977835468 10.8971449,1.22674547 C11.3651449,1.42674547 11.6661449,1.60074547 11.6661449,1.60074547 C11.6661449,1.60074547 12.0661449,1.60074547 11.4991449,1.12474547 C10.9301449,0.613745468 10.3961449,-0.0632545319 7.7211449,0.00474546808 C5.0461449,0.0727454681 4.8791449,1.09374547 4.8791449,1.09374547 C4.7408449,1.14789547 4.5924449,1.17110547 4.4441449,1.16174547 C4.2648449,1.11916547 4.0780449,1.11849547 3.8984449,1.15977547 C3.7187449,1.20104547 3.5509449,1.28315547 3.4081449,1.39974547 C3.0741449,1.67174547 2.3721449,2.11374547 3.2741449,2.11374547 C4.1761449,2.11374547 6.9521449,2.18174547 6.9521449,2.18174547" id="Path"></path>
                    <path d="M7.2082449,2.18271547 C8.1165449,2.07074547 9.0375449,2.11675547 9.9302449,2.31871547 C10.9512449,2.65871547 12.8902449,3.37371547 13.5702449,5.24469547 C14.0256449,6.64419547 14.0604449,8.14659547 13.6702449,9.56569547 C13.3642449,10.7226955 13.1262449,10.9266955 13.1262449,10.9266955 C13.7799449,10.4097955 14.2937449,9.73719547 14.6206449,8.97049547 C14.9474449,8.20379547 15.0769449,7.36739547 14.9972449,6.53769547 C14.9632449,5.00669547 13.6022449,2.55771547 12.1052449,1.97871547 C10.6052449,1.36671547 8.8052449,1.12871547 7.9202449,1.57071547 C7.0012449,1.97871547 7.2062449,2.18271547 7.2062449,2.18271547" id="Path"></path>
                    <path d="M8.2942449,2.62371547 C8.2967449,2.86537547 8.2630449,3.10604547 8.1942449,3.33771547 C9.2445449,3.59052547 10.1793449,4.18929547 10.8482449,5.03769547 C11.0716449,5.45079547 11.2108449,5.90409547 11.2575449,6.37139547 C11.3041449,6.83869547 11.2575449,7.31059547 11.1202449,7.75969547 C10.8898449,8.52449547 10.4817449,9.22389547 9.9292449,9.80069547 C9.4148449,10.2914955 8.9582449,10.8393955 8.5682449,11.4336955 C8.4027449,11.6994955 8.2958449,11.9975955 8.2548449,12.3079955 C8.2138449,12.6183955 8.2394449,12.9339955 8.3302449,13.2336955 C8.3302449,13.2336955 9.8302449,12.4516955 10.7802449,12.0766955 C11.7672449,11.7026955 13.5022449,11.2606955 13.5022449,7.27669547 C13.4991449,6.23609547 13.1654449,5.22329547 12.5492449,4.38469547 C11.8010449,3.60295547 10.8452449,3.05099547 9.7942449,2.79371547 C9.3000449,2.69405547 8.7981449,2.63718547 8.2942449,2.62371547 Z" id="Path"></path>
                    <path d="M8.1671449,3.64373547 C8.0441449,3.82528547 7.8813449,3.97643547 7.6911449,4.08569547 C8.0012449,4.61809547 8.1980449,5.20879547 8.2691449,5.82069547 C8.3506449,6.28309547 8.3289449,6.75769547 8.2055449,7.21069547 C8.0820449,7.66359547 7.8599449,8.08369547 7.5551449,8.44069547 C6.7232449,9.29709547 5.9611449,10.2186955 5.2761449,11.1966955 C4.8681449,12.0126955 4.2551449,13.2376955 4.5621449,14.2246955 C4.6996449,14.7325955 4.9177449,15.2149955 5.2081449,15.6536955 C5.8106449,14.6547955 6.7522449,13.9058955 7.8611449,13.5436955 C7.7484449,12.9753955 7.7955449,12.3868955 7.9971449,11.8436955 C8.4367449,11.0055955 8.9985449,10.2375955 9.6641449,9.56469547 C10.3145449,8.84859547 10.7501449,7.96389547 10.9211449,7.01169547 C10.9967449,6.22969547 10.7650449,5.44899547 10.2751449,4.83469547 C9.7050449,4.35119547 9.0621449,3.96070547 8.3701449,3.67773547 L8.1701449,3.64373547" id="Path"></path>
                    <path d="M6.5141449,4.18769547 C6.6468449,4.93679547 6.5115449,5.70859547 6.1321449,6.36789547 C5.7527449,7.02729547 5.1534449,7.53199547 4.4391449,7.79369547 C4.0311449,7.96369547 3.6571449,8.13369547 3.1801449,8.33769547 C3.1801449,8.33769547 -3.4198551,11.3656955 4.5411449,17.9996955 L5.0851449,15.9876955 C4.5583449,15.2179955 4.2308449,14.3293955 4.1321449,13.4016955 C4.1321449,13.4016955 3.8611449,11.3316955 6.4801449,9.15469547 C6.4801449,9.15469547 9.0661449,6.97769547 7.3311449,4.18769547 L6.5141449,4.18769547 Z" id="Path"></path>
                </g>
            </g>
        </g>
    </g>
</svg>