<svg width="13" height="13" viewBox="0 0 13 13" fill="none" xmlns="http://www.w3.org/2000/svg">
<path d="M12.3245 4.45406L8.72718 3.90658L7.11907 0.492617C7.07514 0.399145 7.00288 0.323477 6.91362 0.277483C6.68976 0.161755 6.41773 0.258195 6.3058 0.492617L4.69768 3.90658L1.10031 4.45406C1.00113 4.46889 0.910455 4.51786 0.84103 4.59204C0.757098 4.68238 0.710848 4.80391 0.712442 4.92994C0.714036 5.05596 0.763344 5.17617 0.849531 5.26415L3.45227 7.92143L2.83736 11.6737C2.82294 11.761 2.83217 11.8507 2.86399 11.9328C2.89581 12.0149 2.94896 12.086 3.0174 12.138C3.08584 12.1901 3.16685 12.221 3.25122 12.2273C3.3356 12.2336 3.41997 12.215 3.49478 12.1737L6.71243 10.4022L9.93008 12.1737C10.0179 12.2226 10.1199 12.239 10.2177 12.2211C10.4642 12.1766 10.63 11.9318 10.5875 11.6737L9.97259 7.92143L12.5753 5.26415C12.6462 5.19145 12.6929 5.09649 12.7071 4.99263C12.7454 4.73299 12.5725 4.49263 12.3245 4.45406Z" fill="#303450"/>
</svg>
