<?xml version="1.0" encoding="UTF-8"?>
<svg width="448px" height="512px" viewBox="0 0 448 512" version="1.1" xmlns="http://www.w3.org/2000/svg" xmlns:xlink="http://www.w3.org/1999/xlink">
    <title>book-alt</title>
    <defs>
        <filter id="filter-1">
            <feColorMatrix in="SourceGraphic" type="matrix" values="0 0 0 0 0.188235 0 0 0 0 0.203922 0 0 0 0 0.313725 0 0 0 1.000000 0"></feColorMatrix>
        </filter>
    </defs>
    <g id="Page-1" stroke="none" stroke-width="1" fill="none" fill-rule="evenodd">
        <g filter="url(#filter-1)" id="book-alt">
            <g>
                <path d="M448,392 L448,24 C448,10.7 437.3,0 424,0 L80,0 C35.8,0 0,35.8 0,80 L0,448 C0,483.35 28.65,512 64,512 L436,512 C442.6,512 448,506.6 448,500 L448,492 C448,485.4 442.6,480 436,480 L432.7,480 C428.7,459.8 429.5,430.3 433.1,414.2 C441.8,410.6 448,402 448,392 Z M404.3,480 L64,480 C46.33,480 32,465.67 32,448 C32,430.33 46.33,416 64,416 L404.3,416 C401.4,434.8 401.2,459.6 404.3,480 Z M416,384 L64,384 C52.28,384 41.45,387.38 32,392.88 L32,80 C32,53.5 53.5,32 80,32 L416,32 L416,384 Z" id="Shape" fill="#000000" fill-rule="nonzero"></path>
            </g>
        </g>
    </g>
</svg>