<svg width="16" height="16" viewBox="0 0 16 16" fill="none" xmlns="http://www.w3.org/2000/svg">
<path d="M7.5024 10.1018H13.6C13.8122 10.1018 14.0157 10.0131 14.1657 9.85524C14.3157 9.69737 14.4 9.48325 14.4 9.25999V2.52545C14.4 2.30219 14.3157 2.08807 14.1657 1.9302C14.0157 1.77233 13.8122 1.68363 13.6 1.68363H2.4C2.18783 1.68363 1.98434 1.77233 1.83431 1.9302C1.68429 2.08807 1.6 2.30219 1.6 2.52545V9.25999C1.6 9.48325 1.68429 9.69737 1.83431 9.85524C1.98434 10.0131 2.18783 10.1018 2.4 10.1018C2.61217 10.1018 2.81566 10.1905 2.96569 10.3484C3.11571 10.5062 3.2 10.7204 3.2 10.9436V13.48L7.5024 10.1018ZM2.4 0H13.6C14.2365 0 14.847 0.266074 15.2971 0.739688C15.7471 1.2133 16 1.85566 16 2.52545V9.25999C16 9.92978 15.7471 10.5721 15.2971 11.0458C14.847 11.5194 14.2365 11.7854 13.6 11.7854H8.0336L2.8784 15.8329C2.75943 15.9263 2.61811 15.983 2.47025 15.9967C2.32239 16.0105 2.17382 15.9806 2.04116 15.9106C1.90849 15.8405 1.79697 15.733 1.71906 15.6C1.64115 15.4671 1.59993 15.314 1.6 15.1578V11.7854C1.17565 11.7854 0.768687 11.6081 0.468629 11.2923C0.168571 10.9766 0 10.5483 0 10.1018V2.52545C0 1.85566 0.252856 1.2133 0.702944 0.739688C1.15303 0.266074 1.76348 0 2.4 0Z" fill="#303450"/>
</svg>
