<svg width="79" height="101" viewBox="0 0 79 101" fill="none" xmlns="http://www.w3.org/2000/svg">
<path fill-rule="evenodd" clip-rule="evenodd" d="M16.6942 1.80343C17.2099 1.289 17.9094 1 18.6389 1H75.25C76.7688 1 78 2.22797 78 3.74272V96.9954C78 98.5102 76.7688 99.7381 75.25 99.7381H3.75C2.2312 99.7381 1 98.5102 1 96.9954V18.5939C1 17.8666 1.28968 17.169 1.80534 16.6546L16.6942 1.80343Z" fill="#E4E8F3" stroke="#BDC7E2"/>
<rect x="9.24976" y="14.7136" width="60.5" height="74.0536" fill="#EDEFF5"/>
<rect x="14.7554" y="36.6553" width="15.7098" height="15.679" rx="1.40176" fill="#BDC7E2"/>
<path fill-rule="evenodd" clip-rule="evenodd" d="M31.7254 64.4909C32.1047 64.0894 32.1047 63.4385 31.7254 63.0371L29.5078 60.6897C29.1285 60.2882 28.5136 60.2882 28.1343 60.6897L22.3216 66.8425C21.9423 67.244 21.3274 67.244 20.9481 66.8425L18.7305 64.4952C18.3513 64.0937 17.7363 64.0937 17.3571 64.4952L15.137 66.8451C14.7577 67.2466 14.7577 67.8975 15.137 68.299L18.0408 71.3727C18.0411 71.373 18.0411 71.3734 18.0408 71.3737C18.0406 71.374 18.0406 71.3745 18.0408 71.3748L20.9447 74.4486C20.9572 74.4618 20.97 74.4746 20.983 74.487C21.3417 74.8667 21.9232 74.8667 22.2819 74.487L25.226 71.3707C25.226 71.3707 25.226 71.3706 25.226 71.3706C25.226 71.3706 25.226 71.3706 25.226 71.3706L31.7254 64.4909Z" fill="#BDC7E2"/>
<rect x="39.5011" y="40.4534" width="22.8506" height="7.59674" rx="1" fill="#BDC7E2"/>
<rect x="39.5048" y="63.2442" width="22.8507" height="7.59674" rx="1" fill="#BDC7E2"/>
<path fill-rule="evenodd" clip-rule="evenodd" d="M17.5044 1V14.7152C17.5044 16.2299 16.2731 17.4579 14.7544 17.4579H1L17.5044 1Z" fill="#BDC7E2"/>
</svg>
