<svg width="28" height="24" viewBox="0 0 28 24" fill="none" xmlns="http://www.w3.org/2000/svg">
<path d="M26.0716 13.0708V23.2851H1.92871V13.0708H26.0716Z" fill="white"/>
<path d="M14.0001 17.7137V13.9994M26.0716 13.0708V23.2851H1.92871V13.0708H26.0716Z" stroke="#303450" stroke-linecap="round" stroke-linejoin="round"/>
<path d="M27 4.71429V12.1429C27 12.1429 21.4286 15.8571 14 15.8571C6.57143 15.8571 1 12.1429 1 12.1429V4.71429H10.2857C10.2857 4.71429 10.2857 1 14 1C17.7143 1 17.7143 4.71429 17.7143 4.71429H27Z" fill="white"/>
<path d="M17.7143 4.71429C17.7143 4.71429 17.7143 1 14 1C10.2857 1 10.2857 4.71429 10.2857 4.71429M1 4.71429V12.1429C1 12.1429 6.57143 15.8571 14 15.8571C21.4286 15.8571 27 12.1429 27 12.1429V4.71429H14H1Z" stroke="#303450" stroke-linecap="round" stroke-linejoin="round"/>
</svg>
