<svg width="31" height="38" viewBox="0 0 31 38" fill="none" xmlns="http://www.w3.org/2000/svg">
<path fill-rule="evenodd" clip-rule="evenodd" d="M7.70698 1.29293C7.89452 1.10537 8.14889 1 8.41413 1H29C29.5523 1 30 1.44772 30 2V36C30 36.5523 29.5523 37 29 37H3C2.44771 37 2 36.5523 2 36V7.41476C2 7.14956 2.10534 6.89523 2.29285 6.70769L7.70698 1.29293Z" fill="#E4E8F3" stroke="#BDC7E2"/>
<rect x="6" y="5" width="21" height="27" fill="#EDEFF5"/>
<path fill-rule="evenodd" clip-rule="evenodd" d="M8.00159 1V6.00058C8.00159 6.55286 7.55387 7.00058 7.00159 7.00058H2L8.00159 1Z" fill="#BDC7E2"/>
<path d="M10.0938 10.75C10.0938 10.1977 10.5415 9.75 11.0938 9.75H13.8438V14.25H11.0937C10.5415 14.25 10.0938 13.8023 10.0938 13.25V10.75Z" fill="#BDC7E2"/>
<path d="M13.0938 9.69231L16.7685 7.10788C17.4311 6.6419 18.3438 7.11581 18.3438 7.92585V16.0742C18.3438 16.8842 17.4311 17.3581 16.7685 16.8921L13.0938 14.3077V9.69231Z" fill="#BDC7E2"/>
<path fill-rule="evenodd" clip-rule="evenodd" d="M19.0938 12C19.0938 11.5858 19.4295 11.25 19.8438 11.25H22.4688C22.883 11.25 23.2188 11.5858 23.2188 12C23.2188 12.4142 22.883 12.75 22.4688 12.75H19.8438C19.4295 12.75 19.0938 12.4142 19.0938 12Z" fill="#CED6EC"/>
<path fill-rule="evenodd" clip-rule="evenodd" d="M19.1953 13.8751C19.4024 13.5164 19.8611 13.3935 20.2198 13.6006L22.4931 14.9131C22.8519 15.1202 22.9748 15.5789 22.7677 15.9376C22.5606 16.2963 22.1019 16.4192 21.7431 16.2121L19.4698 14.8996C19.1111 14.6925 18.9882 14.2338 19.1953 13.8751Z" fill="#CED6EC"/>
<path fill-rule="evenodd" clip-rule="evenodd" d="M22.7676 7.8751C22.5605 7.51639 22.1018 7.39348 21.7431 7.60059L19.4697 8.91309C19.111 9.12019 18.9881 9.57889 19.1952 9.9376C19.4023 10.2963 19.861 10.4192 20.2197 10.2121L22.4931 8.89962C22.8518 8.69252 22.9747 8.23382 22.7676 7.8751Z" fill="#CED6EC"/>
<rect y="21" width="30" height="12" rx="1" fill="#4DBEEF"/>
<path d="M6.01104 28.5602H3.61715L3.1163 29.9198H2L4.33447 24.0802H5.29796L7.63667 29.9198H6.51613L6.01104 28.5602ZM3.91851 27.742H5.70968L4.81409 25.3195L3.91851 27.742Z" fill="white"/>
<path d="M12.7852 24.0802V27.9826C12.7852 28.6029 12.5744 29.0949 12.1528 29.4586C11.734 29.8195 11.1752 30 10.4762 30C9.76882 30 9.20713 29.8222 8.79117 29.4666C8.37521 29.1083 8.16723 28.6123 8.16723 27.9786V24.0802H9.23684V27.9866C9.23684 28.377 9.34154 28.6751 9.55093 28.881C9.76033 29.0869 10.0688 29.1898 10.4762 29.1898C11.3025 29.1898 11.7156 28.7781 11.7156 27.9545V24.0802H12.7852Z" fill="white"/>
<path d="M13.9355 29.9198V24.0802H15.7606C16.3067 24.0802 16.7906 24.1952 17.2122 24.4251C17.6367 24.6551 17.9649 24.9813 18.1969 25.4037C18.429 25.8262 18.545 26.3102 18.545 26.8556V27.1484C18.545 27.7019 18.4276 28.1885 18.1927 28.6083C17.9607 29.0281 17.6282 29.3516 17.1952 29.5789C16.7651 29.8061 16.2714 29.9198 15.7139 29.9198H13.9355ZM15.0093 24.8984V29.1096H15.7097C16.2728 29.1096 16.7043 28.9439 17.0042 28.6123C17.307 28.2781 17.4612 27.7995 17.4669 27.1765V26.8516C17.4669 26.2179 17.3212 25.734 17.0297 25.3997C16.7383 25.0655 16.3152 24.8984 15.7606 24.8984H15.0093Z" fill="white"/>
<path d="M20.7479 29.9198H19.6783V24.0802H20.7479V29.9198Z" fill="white"/>
<path d="M27 27.1524C27 27.7246 26.8953 28.2273 26.6859 28.6604C26.4765 29.0909 26.1766 29.4225 25.7861 29.6551C25.3984 29.885 24.9513 30 24.4448 30C23.944 30 23.4969 29.885 23.1036 29.6551C22.7131 29.4225 22.4103 29.0922 22.1952 28.6644C21.983 28.2366 21.8755 27.7433 21.8727 27.1845V26.8556C21.8727 26.2861 21.9788 25.7834 22.191 25.3476C22.4061 24.9118 22.7074 24.5789 23.0951 24.3489C23.4856 24.1163 23.9327 24 24.4363 24C24.94 24 25.3857 24.115 25.7733 24.3449C26.1638 24.5722 26.4652 24.9011 26.6774 25.3316C26.8896 25.7594 26.9972 26.258 27 26.8275V27.1524ZM25.9261 26.8476C25.9261 26.2005 25.796 25.7045 25.5357 25.3596C25.2782 25.0147 24.9117 24.8422 24.4363 24.8422C23.9723 24.8422 23.6087 25.0147 23.3455 25.3596C23.0852 25.7019 22.9522 26.1872 22.9465 26.8155V27.1524C22.9465 27.7941 23.0781 28.2901 23.3413 28.6404C23.6072 28.9906 23.9751 29.1658 24.4448 29.1658C24.9202 29.1658 25.2852 28.9947 25.5399 28.6524C25.7974 28.3102 25.9261 27.8102 25.9261 27.1524V26.8476Z" fill="white"/>
</svg>
