<?xml version="1.0" encoding="UTF-8"?>
<svg width="18px" height="18px" viewBox="0 0 18 18" version="1.1" xmlns="http://www.w3.org/2000/svg" xmlns:xlink="http://www.w3.org/1999/xlink">
    <!-- Generator: Sketch 60 (88103) - https://sketch.com -->
    <title>icons/sm/pdf</title>
    <desc>Created with Sketch.</desc>
    <g id="icons/sm/pdf" stroke="none" stroke-width="1" fill="none" fill-rule="evenodd">
        <path d="M4.99993896,0 L14,0 C15.1045695,-2.02906125e-16 16,0.8954305 16,2 L16,16 C16,17.1045695 15.1045695,18 14,18 L4,18 C2.8954305,18 2,17.1045695 2,16 L2,3.00028992 L2,3.00028992 L4.99993896,0 Z" id="Rectangle" fill="#E4E4E4"></path>
        <rect id="Rectangle" fill="#C8C8C8" x="6" y="4" width="6" height="2"></rect>
        <path d="M5.00079346,-8.8817842e-16 L5.00079346,1.00028992 C5.00079346,2.10485942 4.10536296,3.00028992 3.00079346,3.00028992 L2,3.00028992 L2,3.00028992 L5.00079346,-8.8817842e-16 Z" id="Rectangle-Copy" fill="#C8C8C8"></path>
        <rect id="Rectangle" fill="#EF4141" x="1" y="8.5" width="12" height="6" rx="1"></rect>
        <path d="M3.74023438,11.9369358 L3.09092882,11.9369358 L3.09092882,12.9276042 C3.09092882,13.0692426 3.05750901,13.1766634 2.9906684,13.2498698 C2.92382779,13.3230762 2.83948257,13.3596788 2.73763021,13.3596788 C2.63100352,13.3596788 2.54506688,13.323474 2.47981771,13.2510634 C2.41456854,13.1786527 2.38194444,13.0724255 2.38194444,12.9323785 L2.38194444,10.2348958 C2.38194444,10.0789344 2.41775138,9.96753506 2.48936632,9.90069444 C2.56098126,9.83385383 2.67476774,9.80043403 2.83072917,9.80043403 L3.74023438,9.80043403 C4.00918827,9.80043403 4.21607277,9.82112248 4.3608941,9.8625 C4.50412398,9.90228608 4.62785683,9.96832998 4.73209635,10.0606337 C4.83633588,10.1529374 4.91550899,10.2659282 4.96961806,10.3996094 C5.02372712,10.5332906 5.05078125,10.6836797 5.05078125,10.8507813 C5.05078125,11.2072645 4.94097332,11.4774079 4.72135417,11.6612196 C4.50173501,11.8450313 4.17469835,11.9369358 3.74023438,11.9369358 Z M3.56835938,10.3327691 L3.09092882,10.3327691 L3.09092882,11.4022135 L3.56835938,11.4022135 C3.7354609,11.4022135 3.87510795,11.3847079 3.98730469,11.3496962 C4.09950143,11.3146844 4.18504021,11.2573933 4.24392361,11.1778212 C4.30280701,11.098249 4.33224826,10.9940111 4.33224826,10.8651042 C4.33224826,10.7107342 4.28689281,10.5850121 4.19618056,10.487934 C4.09432819,10.3844902 3.88505656,10.3327691 3.56835938,10.3327691 Z M6.08203125,9.80043403 L7.00585938,9.80043403 C7.24616729,9.80043403 7.45225609,9.8227139 7.62413194,9.86727431 C7.7960078,9.91183471 7.95196689,9.99538423 8.09201389,10.1179253 C8.45645437,10.4298482 8.63867188,10.9040911 8.63867188,11.5406684 C8.63867188,11.7507389 8.62037055,11.9425049 8.58376736,12.1159722 C8.54716417,12.2894395 8.49066878,12.4457965 8.41427951,12.5850477 C8.33789024,12.724299 8.24001796,12.8488276 8.12065972,12.9586372 C8.02676458,13.0429836 7.92411803,13.110619 7.81271701,13.1615451 C7.70131599,13.2124713 7.58156169,13.2482783 7.45345052,13.268967 C7.32533935,13.2896558 7.18091805,13.3 7.02018229,13.3 L6.09635417,13.3 C5.96744727,13.3 5.8703707,13.2805051 5.80512153,13.2415148 C5.73987236,13.2025244 5.69730189,13.1476204 5.67740885,13.0768012 C5.65751581,13.005982 5.64756944,12.9140775 5.64756944,12.8010851 L5.64756944,10.2348958 C5.64756944,10.0821173 5.68178496,9.97151365 5.75021701,9.9030816 C5.81864907,9.83464954 5.92925271,9.80043403 6.08203125,9.80043403 Z M6.35655382,10.3614149 L6.35655382,12.7366319 L6.89366319,12.7366319 C7.01142999,12.7366319 7.1037323,12.7334491 7.17057292,12.7270833 C7.23741353,12.7207176 7.30664027,12.7048034 7.37825521,12.6793403 C7.44987015,12.6538772 7.5119355,12.6180703 7.56445312,12.5719184 C7.80157815,12.3713966 7.92013889,12.0260586 7.92013889,11.5358941 C7.92013889,11.1905509 7.86801991,10.9319453 7.76378038,10.7600694 C7.65954086,10.5881936 7.53103375,10.4787835 7.37825521,10.4318359 C7.22547667,10.3848884 7.04087203,10.3614149 6.82443576,10.3614149 L6.35655382,10.3614149 Z M11.3528646,10.347092 L9.95638021,10.347092 L9.95638021,11.2422743 L11.1236979,11.2422743 C11.2319161,11.2422743 11.3126806,11.2665434 11.3659939,11.3150825 C11.4193073,11.3636215 11.4459635,11.4284718 11.4459635,11.5096354 C11.4459635,11.590799 11.4189094,11.6552515 11.3648003,11.7029948 C11.3106913,11.7507381 11.2303246,11.7746094 11.1236979,11.7746094 L9.95638021,11.7746094 L9.95638021,12.9276042 C9.95638021,13.0740169 9.92335826,13.1826313 9.85731337,13.2534505 C9.79126848,13.3242697 9.7065254,13.3596788 9.6030816,13.3596788 C9.49804635,13.3596788 9.41250756,13.3238719 9.34646267,13.2522569 C9.28041778,13.180642 9.24739583,13.0724255 9.24739583,12.9276042 L9.24739583,10.2348958 C9.24739583,10.1330435 9.26251432,10.0498918 9.29275174,9.98543837 C9.32298916,9.92098492 9.37033388,9.87403805 9.43478733,9.84459635 C9.49924077,9.81515466 9.58159672,9.80043403 9.68185764,9.80043403 L11.3528646,9.80043403 C11.465857,9.80043403 11.5498044,9.82549888 11.6047092,9.87562934 C11.659614,9.9257598 11.687066,9.99140584 11.687066,10.0725694 C11.687066,10.1553245 11.659614,10.2217662 11.6047092,10.2718967 C11.5498044,10.3220272 11.465857,10.347092 11.3528646,10.347092 Z" id="PDF" fill="#FFFFFF" fill-rule="nonzero"></path>
    </g>
</svg>