<svg width="18" height="17" viewBox="0 0 18 17" fill="none" xmlns="http://www.w3.org/2000/svg">
<path d="M1 1H5.8C6.64869 1 7.46263 1.35119 8.06274 1.97631C8.66286 2.60143 9 3.44928 9 4.33333V16C9 15.337 8.74714 14.7011 8.29706 14.2322C7.84697 13.7634 7.23652 13.5 6.6 13.5H1V1Z" stroke="#8799BA" stroke-width="1.5" stroke-linecap="round" stroke-linejoin="round"/>
<path d="M17 1H12.2C11.3513 1 10.5374 1.35119 9.93726 1.97631C9.33714 2.60143 9 3.44928 9 4.33333V16C9 15.337 9.25286 14.7011 9.70294 14.2322C10.153 13.7634 10.7635 13.5 11.4 13.5H17V1Z" stroke="#8799BA" stroke-width="1.5" stroke-linecap="round" stroke-linejoin="round"/>
</svg>
