<svg width="20" height="20" viewBox="0 0 24 24" fill="none" xmlns="http://www.w3.org/2000/svg">
<path d="M20.4524 10H16.0841C15.5518 10 15.0797 10.3298 14.9165 10.8175C14.4838 12.1075 13.2468 12.9734 11.84 12.9734C10.4326 12.9734 9.19616 12.1075 8.76368 10.8175C8.6 10.3298 8.1284 10 7.5956 10H3.2276C2.5496 10 2 10.528 2 11.1806V17.9135C2 18.5649 2.5496 19.0936 3.2276 19.0936H20.4526C21.1311 19.0936 21.68 18.5649 21.68 17.9135V11.1806C21.6797 10.528 21.1306 10 20.4524 10Z" fill="#303450"/>
<path d="M8.33037 6.22744H9.92713V10.3526C9.92713 10.529 10.0751 10.6708 10.2573 10.6708H13.2134C13.3963 10.6708 13.5436 10.529 13.5436 10.3526V6.22744H15.1415C15.2649 6.22744 15.3782 6.16048 15.4346 6.0556C15.4625 6.00405 15.475 5.94558 15.4707 5.88713C15.4663 5.82868 15.4453 5.7727 15.4101 5.72584L11.9932 1.13272C11.9618 1.0913 11.9212 1.05775 11.8746 1.03472C11.828 1.01169 11.7766 0.999802 11.7247 1H11.7239C11.6171 1 11.5178 1.04968 11.4554 1.13392L8.06061 5.72608C8.0258 5.77313 8.00507 5.8291 8.00082 5.88748C7.99657 5.94585 8.00898 6.00424 8.03661 6.05584C8.09301 6.16168 8.20701 6.22744 8.33037 6.22744Z" fill="#303450"/>
</svg>
