<svg width="30" height="38" viewBox="0 0 30 38" fill="none" xmlns="http://www.w3.org/2000/svg">
<path fill-rule="evenodd" clip-rule="evenodd" d="M6.70698 1.29293C6.89452 1.10537 7.14889 1 7.41413 1H28C28.5523 1 29 1.44772 29 2V36C29 36.5523 28.5523 37 28 37H2C1.44771 37 1 36.5523 1 36V7.41476C1 7.14956 1.10534 6.89523 1.29285 6.70769L6.70698 1.29293Z" fill="#F3E4E5" stroke="#E2BDC1"/>
<rect x="5" y="6" width="21" height="27" fill="#F5EDF0"/>
<path fill-rule="evenodd" clip-rule="evenodd" d="M7.00159 1V6.00058C7.00159 6.55286 6.55387 7.00058 6.00159 7.00058H1L7.00159 1Z" fill="#E2BDC1"/>
<path d="M19.5 13V24.5C19.5 26.71 17.71 28.5 15.5 28.5C13.29 28.5 11.5 26.71 11.5 24.5V12C11.5 11.337 11.7634 10.7011 12.2322 10.2322C12.7011 9.76339 13.337 9.5 14 9.5C14.663 9.5 15.2989 9.76339 15.7678 10.2322C16.2366 10.7011 16.5 11.337 16.5 12V22.5C16.5 23.05 16.05 23.5 15.5 23.5C14.95 23.5 14.5 23.05 14.5 22.5V13H13V22.5C13 23.163 13.2634 23.7989 13.7322 24.2678C14.2011 24.7366 14.837 25 15.5 25C16.163 25 16.7989 24.7366 17.2678 24.2678C17.7366 23.7989 18 23.163 18 22.5V12C18 9.79 16.21 8 14 8C11.79 8 10 9.79 10 12V24.5C10 27.54 12.46 30 15.5 30C18.54 30 21 27.54 21 24.5V13H19.5Z" fill="#E2BDC1"/>
</svg>
