<svg width="100" height="100" viewBox="0 0 100 100" fill="none" xmlns="http://www.w3.org/2000/svg">
<path d="M84.2593 48H67.3899C65.3342 48 63.5111 49.1606 62.8808 50.8767C61.2099 55.4162 56.4328 58.4633 51.0001 58.4633C45.565 58.4633 40.79 55.4162 39.1198 50.8767C38.4878 49.1606 36.6665 48 34.609 48H17.7407C15.1224 48 13 49.858 13 52.1545V75.8473C13 78.1395 15.1224 80 17.7407 80H84.2601C86.8803 80 89 78.1395 89 75.8473V52.1545C88.9988 49.858 86.8783 48 84.2593 48Z" fill="#9698A3"/>
<path d="M41.8843 38.6757H46.1586V51.0458C46.1586 51.5748 46.5547 52 47.0425 52H54.9554C55.445 52 55.8393 51.5748 55.8393 51.0458V38.6757H60.1166C60.4469 38.6757 60.7502 38.4749 60.9012 38.1604C60.9758 38.0058 61.0093 37.8304 60.9978 37.6552C60.986 37.4799 60.9298 37.312 60.8356 37.1715L51.6891 23.398C51.6051 23.2738 51.4964 23.1732 51.3717 23.1041C51.2469 23.0351 51.1093 22.9994 50.9704 23H50.9683C50.6824 23 50.4166 23.149 50.2496 23.4016L41.1622 37.1722C41.0691 37.3133 41.0136 37.4812 41.0022 37.6562C40.9908 37.8313 41.024 38.0064 41.098 38.1611C41.249 38.4785 41.5541 38.6757 41.8843 38.6757Z" fill="#9698A3"/>
<path d="M2 97V3C2 2.44772 2.44772 2 3 2H97C97.5523 2 98 2.44772 98 3V97C98 97.5523 97.5523 98 97 98H3C2.44772 98 2 97.5523 2 97Z" stroke="#9698A3"/>
</svg>
