<svg width="31" height="38" viewBox="0 0 31 38" fill="none" xmlns="http://www.w3.org/2000/svg">
<path fill-rule="evenodd" clip-rule="evenodd" d="M7.70698 1.29293C7.89452 1.10537 8.14889 1 8.41413 1H29C29.5523 1 30 1.44772 30 2V36C30 36.5523 29.5523 37 29 37H3C2.44771 37 2 36.5523 2 36V7.41476C2 7.14956 2.10534 6.89523 2.29285 6.70769L7.70698 1.29293Z" fill="#E4E8F3" stroke="#BDC7E2"/>
<rect x="6" y="6" width="21" height="27" fill="#EDEFF5"/>
<rect x="8" y="11" width="16" height="4" fill="#BDC7E2"/>
<path fill-rule="evenodd" clip-rule="evenodd" d="M8.00159 1V6.00058C8.00159 6.55286 7.55387 7.00058 7.00159 7.00058H2L8.00159 1Z" fill="#BDC7E2"/>
<rect y="18" width="24" height="12" rx="1" fill="#EF4141"/>
<path fill-rule="evenodd" clip-rule="evenodd" d="M5.48025 24.8741H4.18164V26.8554C4.18164 27.1387 4.1148 27.3535 3.98112 27.4999C3.84744 27.6464 3.67875 27.7196 3.47504 27.7196C3.26179 27.7196 3.08992 27.6472 2.95942 27.5023C2.82892 27.3575 2.76367 27.1451 2.76367 26.865V21.47C2.76367 21.1581 2.83529 20.9353 2.97852 20.8016C3.12175 20.6679 3.34932 20.6011 3.66124 20.6011H5.48025C6.01816 20.6011 6.43193 20.6425 6.72157 20.7252C7.00803 20.8048 7.2555 20.9369 7.46398 21.1215C7.67245 21.3061 7.8308 21.5321 7.93902 21.7994C8.04724 22.0668 8.10135 22.3676 8.10135 22.7018C8.10135 23.4147 7.88173 23.955 7.44249 24.3226C7.00325 24.6903 6.34918 24.8741 5.48025 24.8741ZM5.1365 21.6658H4.18164V23.8046H5.1365C5.47071 23.8046 5.75 23.7696 5.97439 23.6996C6.19879 23.6296 6.36986 23.515 6.48763 23.3559C6.6054 23.1967 6.66428 22.9882 6.66428 22.7304C6.66428 22.4217 6.57357 22.1702 6.39214 21.9761C6.18844 21.7692 5.7699 21.6658 5.1365 21.6658ZM12.0115 20.6011H10.1638C9.85829 20.6011 9.63708 20.6695 9.50022 20.8064C9.36335 20.9432 9.29492 21.1644 9.29492 21.47V26.6024C9.29492 26.8284 9.31481 27.0122 9.3546 27.1538C9.39439 27.2954 9.47953 27.4053 9.61003 27.4832C9.74052 27.5612 9.93468 27.6002 10.1925 27.6002H12.0401C12.3616 27.6002 12.6505 27.5795 12.9067 27.5381C13.1629 27.4968 13.4024 27.4251 13.6252 27.3233C13.848 27.2214 14.0533 27.0862 14.2411 26.9175C14.4798 26.6979 14.6756 26.4488 14.8283 26.1703C14.9811 25.8918 15.0941 25.5791 15.1673 25.2322C15.2405 24.8852 15.2771 24.5017 15.2771 24.0815C15.2771 22.8084 14.9127 21.8599 14.1838 21.2361C13.9037 20.991 13.5918 20.8239 13.248 20.7348C12.9043 20.6456 12.4921 20.6011 12.0115 20.6011ZM10.7129 21.723V26.4735H11.7871C12.0226 26.4735 12.2072 26.4671 12.3409 26.4544C12.4746 26.4416 12.6131 26.4098 12.7563 26.3589C12.8995 26.308 13.0237 26.2363 13.1287 26.144C13.6029 25.743 13.8401 25.0523 13.8401 24.072C13.8401 23.3813 13.7358 22.8641 13.5273 22.5203C13.3189 22.1766 13.0619 21.9578 12.7563 21.8639C12.4507 21.77 12.0815 21.723 11.6487 21.723H10.7129ZM17.9123 21.6944H20.7053C20.9313 21.6944 21.0992 21.6443 21.209 21.544C21.3188 21.4437 21.3737 21.3109 21.3737 21.1453C21.3737 20.983 21.3188 20.8517 21.209 20.7515C21.0992 20.6512 20.9313 20.6011 20.7053 20.6011H17.3633C17.1628 20.6011 16.998 20.6305 16.8691 20.6894C16.7402 20.7483 16.6455 20.8422 16.5851 20.9711C16.5246 21.1 16.4944 21.2663 16.4944 21.47V26.8554C16.4944 27.1451 16.5604 27.3615 16.6925 27.5047C16.8246 27.648 16.9957 27.7196 17.2057 27.7196C17.4126 27.7196 17.5821 27.6487 17.7142 27.5071C17.8463 27.3655 17.9123 27.1482 17.9123 26.8554V24.5494H20.247C20.4602 24.5494 20.6209 24.5017 20.7292 24.4062C20.8374 24.3107 20.8915 24.1818 20.8915 24.0195C20.8915 23.8572 20.8382 23.7274 20.7316 23.6304C20.6249 23.5333 20.4634 23.4848 20.247 23.4848H17.9123V21.6944Z" fill="white"/>
</svg>
