<svg width="30" height="38" viewBox="0 0 30 38" fill="none" xmlns="http://www.w3.org/2000/svg">
<path fill-rule="evenodd" clip-rule="evenodd" d="M6.70698 1.29293C6.89452 1.10537 7.14889 1 7.41413 1H28C28.5523 1 29 1.44772 29 2V36C29 36.5523 28.5523 37 28 37H2C1.44771 37 1 36.5523 1 36V7.41476C1 7.14956 1.10534 6.89523 1.29285 6.70769L6.70698 1.29293Z" fill="#E9E4F3" stroke="#C7BDE2"/>
<rect x="4" y="6" width="22" height="27" fill="#F0EDF5"/>
<path fill-rule="evenodd" clip-rule="evenodd" d="M15 27C18.866 27 22 23.866 22 20C22 16.134 18.866 13 15 13C11.134 13 8 16.134 8 20C8 23.866 11.134 27 15 27Z" fill="#C7BDE2"/>
<path fill-rule="evenodd" clip-rule="evenodd" d="M14.2789 20.5578C14.1586 20.8659 14.0984 21.2861 14.0984 21.8184H15.6625C15.6698 21.5413 15.7081 21.3125 15.7773 21.132C15.8466 20.9516 15.9706 20.7757 16.1492 20.6043L16.7781 20.0191C17.0443 19.7603 17.2375 19.5069 17.3578 19.259C17.4781 19.0111 17.5383 18.7358 17.5383 18.4332C17.5383 17.7405 17.315 17.2064 16.8684 16.8309C16.4217 16.4553 15.7919 16.2676 14.9789 16.2676C14.1622 16.2676 13.5279 16.4708 13.0758 16.8773C12.6237 17.2839 12.394 17.8517 12.3867 18.5809H14.2352C14.2424 18.3074 14.3135 18.0905 14.4484 17.9301C14.5833 17.7697 14.7602 17.6895 14.9789 17.6895C15.4529 17.6895 15.6898 17.9647 15.6898 18.5152C15.6898 18.7413 15.6197 18.9482 15.4793 19.1359C15.3389 19.3237 15.1339 19.5306 14.8641 19.7566C14.5943 19.9827 14.3992 20.2497 14.2789 20.5578ZM14.1668 22.816C13.9717 22.9891 13.8742 23.2106 13.8742 23.4804C13.8742 23.7502 13.9717 23.9717 14.1668 24.1449C14.3618 24.318 14.6052 24.4046 14.8969 24.4046C15.1885 24.4046 15.4319 24.318 15.627 24.1449C15.822 23.9717 15.9195 23.7502 15.9195 23.4804C15.9195 23.2106 15.822 22.9891 15.627 22.816C15.4319 22.6428 15.1885 22.5562 14.8969 22.5562C14.6052 22.5562 14.3618 22.6428 14.1668 22.816Z" fill="#F0EDF5"/>
<path fill-rule="evenodd" clip-rule="evenodd" d="M7.00159 1V6.00058C7.00159 6.55286 6.55387 7.00058 6.00159 7.00058H1L7.00159 1Z" fill="#C7BDE2"/>
</svg>
