<svg width="30" height="38" viewBox="0 0 30 38" fill="none" xmlns="http://www.w3.org/2000/svg">
<path fill-rule="evenodd" clip-rule="evenodd" d="M6.70698 1.29293C6.89452 1.10537 7.14889 1 7.41413 1H28C28.5523 1 29 1.44772 29 2V36C29 36.5523 28.5523 37 28 37H2C1.44771 37 1 36.5523 1 36V7.41476C1 7.14956 1.10534 6.89523 1.29285 6.70769L6.70698 1.29293Z" fill="#E4E8F3" stroke="#BDC7E2"/>
<rect x="4" y="6" width="22" height="27" fill="#EDEFF5"/>
<rect x="6.00195" y="14" width="5.71267" height="5.71657" rx="1.40176" fill="#BDC7E2"/>
<path fill-rule="evenodd" clip-rule="evenodd" d="M11.7692 24.577C12.1298 24.1943 12.1298 23.5738 11.7692 23.191C11.4086 22.8083 10.8239 22.8083 10.4633 23.191L9.15607 24.5785C8.79551 24.9611 8.21092 24.9611 7.85036 24.5785C7.4898 24.1958 6.90469 24.1963 6.54413 24.579C6.18357 24.9617 6.18305 25.5827 6.54361 25.9653L7.19623 26.658C7.19636 26.6581 7.19636 26.6583 7.19623 26.6585C7.19611 26.6586 7.19611 26.6588 7.19623 26.6589L7.8161 27.3168C7.82455 27.3258 7.83312 27.3345 7.84181 27.3431L7.8491 27.3509C8.20994 27.7338 8.795 27.7338 9.15585 27.3509L9.80915 26.6575C9.80919 26.6575 9.80919 26.6574 9.80915 26.6573C9.80911 26.6573 9.80911 26.6572 9.80915 26.6572L11.7692 24.577Z" fill="#BDC7E2"/>
<rect x="15" y="15.3848" width="8.30933" height="2.76978" rx="1" fill="#BDC7E2"/>
<rect x="15.002" y="23.6943" width="8.30933" height="2.76978" rx="1" fill="#BDC7E2"/>
<path fill-rule="evenodd" clip-rule="evenodd" d="M7.00159 1V6.00058C7.00159 6.55286 6.55387 7.00058 6.00159 7.00058H1L7.00159 1Z" fill="#BDC7E2"/>
</svg>
