<svg width="375" height="65" viewBox="0 0 375 65" fill="none" xmlns="http://www.w3.org/2000/svg">
<g clip-path="url(#clip0)">
<rect width="375" height="65" fill="white"/>
<path d="M166.154 49.0942V52H164.795V44.1797H167.787C168.66 44.1797 169.353 44.4071 169.865 44.8618C170.381 45.3166 170.639 45.9181 170.639 46.6665C170.639 47.4328 170.386 48.029 169.881 48.4551C169.38 48.8812 168.676 49.0942 167.771 49.0942H166.154ZM166.154 48.0039H167.787C168.27 48.0039 168.639 47.8911 168.893 47.6655C169.147 47.4364 169.274 47.1069 169.274 46.6772C169.274 46.2547 169.146 45.9181 168.888 45.6675C168.63 45.4132 168.275 45.2826 167.824 45.2754H166.154V48.0039ZM171.831 52V44.1797H174.141C174.832 44.1797 175.444 44.3337 175.978 44.6416C176.515 44.9495 176.93 45.3864 177.224 45.9521C177.517 46.5179 177.664 47.166 177.664 47.8965V48.2886C177.664 49.0298 177.515 49.6815 177.218 50.2437C176.925 50.8058 176.504 51.2391 175.956 51.5435C175.412 51.8478 174.787 52 174.082 52H171.831ZM173.19 45.2754V50.915H174.076C174.789 50.915 175.335 50.693 175.714 50.249C176.097 49.8014 176.293 49.1605 176.3 48.3262V47.8911C176.3 47.0425 176.115 46.3944 175.747 45.9468C175.378 45.4992 174.842 45.2754 174.141 45.2754H173.19ZM183.116 49.0942V52H181.757V44.1797H184.749C185.622 44.1797 186.315 44.4071 186.827 44.8618C187.343 45.3166 187.601 45.9181 187.601 46.6665C187.601 47.4328 187.348 48.029 186.843 48.4551C186.342 48.8812 185.638 49.0942 184.732 49.0942H183.116ZM183.116 48.0039H184.749C185.232 48.0039 185.601 47.8911 185.855 47.6655C186.109 47.4364 186.236 47.1069 186.236 46.6772C186.236 46.2547 186.107 45.9181 185.85 45.6675C185.592 45.4132 185.237 45.2826 184.786 45.2754H183.116V48.0039ZM190.055 52H188.75V43.75H190.055V52ZM194.954 52C194.896 51.889 194.846 51.7082 194.803 51.4575C194.388 51.8908 193.879 52.1074 193.278 52.1074C192.694 52.1074 192.218 51.9409 191.849 51.6079C191.48 51.2749 191.296 50.8631 191.296 50.3726C191.296 49.7531 191.525 49.2786 191.983 48.9492C192.445 48.6162 193.104 48.4497 193.96 48.4497H194.76V48.0684C194.76 47.7676 194.676 47.5277 194.508 47.3486C194.34 47.166 194.083 47.0747 193.74 47.0747C193.443 47.0747 193.199 47.1499 193.009 47.3003C192.819 47.4471 192.725 47.6351 192.725 47.8643H191.419C191.419 47.5456 191.525 47.2484 191.736 46.9727C191.948 46.6934 192.234 46.4749 192.596 46.3174C192.961 46.1598 193.367 46.0811 193.815 46.0811C194.495 46.0811 195.038 46.2529 195.442 46.5967C195.847 46.9368 196.055 47.4167 196.065 48.0361V50.6572C196.065 51.18 196.139 51.5972 196.286 51.9087V52H194.954ZM193.52 51.0601C193.777 51.0601 194.019 50.9974 194.245 50.8721C194.474 50.7467 194.646 50.5785 194.76 50.3672V49.2715H194.057C193.573 49.2715 193.21 49.3556 192.966 49.5239C192.723 49.6922 192.601 49.9303 192.601 50.2383C192.601 50.4889 192.683 50.6895 192.848 50.8398C193.016 50.9867 193.24 51.0601 193.52 51.0601ZM198.644 46.1885L198.681 46.8599C199.111 46.3407 199.675 46.0811 200.373 46.0811C201.583 46.0811 202.199 46.7739 202.221 48.1597V52H200.916V48.2349C200.916 47.866 200.835 47.5939 200.674 47.4185C200.516 47.2394 200.257 47.1499 199.895 47.1499C199.369 47.1499 198.977 47.388 198.719 47.8643V52H197.414V46.1885H198.644ZM204.767 46.1885L204.804 46.8599C205.234 46.3407 205.798 46.0811 206.496 46.0811C207.706 46.0811 208.322 46.7739 208.344 48.1597V52H207.039V48.2349C207.039 47.866 206.958 47.5939 206.797 47.4185C206.639 47.2394 206.38 47.1499 206.018 47.1499C205.492 47.1499 205.1 47.388 204.842 47.8643V52H203.537V46.1885H204.767ZM212.238 52.1074C211.411 52.1074 210.739 51.8478 210.224 51.3286C209.712 50.8058 209.456 50.1112 209.456 49.2446V49.0835C209.456 48.5034 209.567 47.986 209.789 47.5312C210.014 47.0729 210.329 46.7166 210.734 46.4624C211.139 46.2082 211.59 46.0811 212.087 46.0811C212.879 46.0811 213.489 46.3335 213.919 46.8384C214.352 47.3433 214.569 48.0576 214.569 48.9814V49.5078H210.771C210.811 49.9876 210.97 50.3672 211.25 50.6465C211.532 50.9258 211.887 51.0654 212.313 51.0654C212.911 51.0654 213.398 50.8237 213.774 50.3403L214.478 51.0117C214.245 51.359 213.933 51.6294 213.543 51.8228C213.156 52.0125 212.721 52.1074 212.238 52.1074ZM212.082 47.1284C211.724 47.1284 211.434 47.2537 211.212 47.5044C210.993 47.755 210.854 48.1042 210.793 48.5518H213.28V48.4551C213.251 48.0182 213.135 47.6888 212.931 47.4668C212.727 47.2412 212.444 47.1284 212.082 47.1284ZM218.629 47.3809C218.458 47.3522 218.28 47.3379 218.098 47.3379C217.5 47.3379 217.097 47.5671 216.889 48.0254V52H215.584V46.1885H216.83L216.862 46.8384C217.177 46.3335 217.614 46.0811 218.173 46.0811C218.359 46.0811 218.513 46.1061 218.635 46.1562L218.629 47.3809Z" fill="#313552"/>
<path d="M81.5566 44.1797L83.8125 50.1738L86.063 44.1797H87.8193V52H86.4658V49.4219L86.6001 45.9736L84.2905 52H83.3184L81.0142 45.979L81.1484 49.4219V52H79.7949V44.1797H81.5566ZM91.3374 50.1309L92.519 46.1885H93.9102L91.6006 52.8809C91.2461 53.8584 90.6445 54.3472 89.7959 54.3472C89.6061 54.3472 89.3966 54.3149 89.1675 54.2505V53.2407L89.4146 53.2568C89.744 53.2568 89.991 53.196 90.1558 53.0742C90.3241 52.9561 90.4565 52.7555 90.5532 52.4727L90.7412 51.9731L88.7002 46.1885H90.1074L91.3374 50.1309ZM98.8892 50.915H102.439V52H97.5303V44.1797H98.8892V50.915ZM105.915 52.1074C105.087 52.1074 104.416 51.8478 103.9 51.3286C103.388 50.8058 103.132 50.1112 103.132 49.2446V49.0835C103.132 48.5034 103.243 47.986 103.465 47.5312C103.691 47.0729 104.006 46.7166 104.411 46.4624C104.815 46.2082 105.266 46.0811 105.764 46.0811C106.556 46.0811 107.166 46.3335 107.596 46.8384C108.029 47.3433 108.246 48.0576 108.246 48.9814V49.5078H104.448C104.488 49.9876 104.647 50.3672 104.926 50.6465C105.209 50.9258 105.564 51.0654 105.99 51.0654C106.588 51.0654 107.075 50.8237 107.451 50.3403L108.154 51.0117C107.922 51.359 107.61 51.6294 107.22 51.8228C106.833 52.0125 106.398 52.1074 105.915 52.1074ZM105.759 47.1284C105.401 47.1284 105.111 47.2537 104.889 47.5044C104.67 47.755 104.531 48.1042 104.47 48.5518H106.957V48.4551C106.928 48.0182 106.812 47.6888 106.607 47.4668C106.403 47.2412 106.12 47.1284 105.759 47.1284ZM112.736 52C112.679 51.889 112.628 51.7082 112.585 51.4575C112.17 51.8908 111.662 52.1074 111.06 52.1074C110.476 52.1074 110 51.9409 109.631 51.6079C109.263 51.2749 109.078 50.8631 109.078 50.3726C109.078 49.7531 109.307 49.2786 109.766 48.9492C110.228 48.6162 110.886 48.4497 111.742 48.4497H112.542V48.0684C112.542 47.7676 112.458 47.5277 112.29 47.3486C112.122 47.166 111.866 47.0747 111.522 47.0747C111.225 47.0747 110.981 47.1499 110.792 47.3003C110.602 47.4471 110.507 47.6351 110.507 47.8643H109.202C109.202 47.5456 109.307 47.2484 109.519 46.9727C109.73 46.6934 110.016 46.4749 110.378 46.3174C110.743 46.1598 111.15 46.0811 111.597 46.0811C112.278 46.0811 112.82 46.2529 113.225 46.5967C113.629 46.9368 113.837 47.4167 113.848 48.0361V50.6572C113.848 51.18 113.921 51.5972 114.068 51.9087V52H112.736ZM111.302 51.0601C111.56 51.0601 111.801 50.9974 112.027 50.8721C112.256 50.7467 112.428 50.5785 112.542 50.3672V49.2715H111.839C111.355 49.2715 110.992 49.3556 110.749 49.5239C110.505 49.6922 110.383 49.9303 110.383 50.2383C110.383 50.4889 110.466 50.6895 110.63 50.8398C110.799 50.9867 111.022 51.0601 111.302 51.0601ZM118.257 47.3809C118.085 47.3522 117.908 47.3379 117.726 47.3379C117.128 47.3379 116.725 47.5671 116.517 48.0254V52H115.212V46.1885H116.458L116.49 46.8384C116.805 46.3335 117.242 46.0811 117.801 46.0811C117.987 46.0811 118.141 46.1061 118.263 46.1562L118.257 47.3809ZM120.293 46.1885L120.331 46.8599C120.76 46.3407 121.324 46.0811 122.022 46.0811C123.233 46.0811 123.849 46.7739 123.87 48.1597V52H122.565V48.2349C122.565 47.866 122.484 47.5939 122.323 47.4185C122.166 47.2394 121.906 47.1499 121.544 47.1499C121.018 47.1499 120.626 47.388 120.368 47.8643V52H119.063V46.1885H120.293ZM126.593 52H125.288V46.1885H126.593V52ZM125.208 44.6792C125.208 44.4787 125.27 44.3122 125.396 44.1797C125.524 44.0472 125.707 43.981 125.943 43.981C126.18 43.981 126.362 44.0472 126.491 44.1797C126.62 44.3122 126.685 44.4787 126.685 44.6792C126.685 44.8761 126.62 45.0409 126.491 45.1733C126.362 45.3022 126.18 45.3667 125.943 45.3667C125.707 45.3667 125.524 45.3022 125.396 45.1733C125.27 45.0409 125.208 44.8761 125.208 44.6792ZM129.23 46.1885L129.268 46.8599C129.698 46.3407 130.262 46.0811 130.96 46.0811C132.17 46.0811 132.786 46.7739 132.808 48.1597V52H131.502V48.2349C131.502 47.866 131.422 47.5939 131.261 47.4185C131.103 47.2394 130.844 47.1499 130.482 47.1499C129.956 47.1499 129.563 47.388 129.306 47.8643V52H128V46.1885H129.23ZM133.914 49.0513C133.914 48.1489 134.125 47.4292 134.548 46.8921C134.974 46.3514 135.538 46.0811 136.24 46.0811C136.902 46.0811 137.423 46.312 137.803 46.7739L137.862 46.1885H139.038V51.8228C139.038 52.5854 138.8 53.187 138.324 53.6274C137.851 54.0679 137.212 54.2881 136.406 54.2881C135.98 54.2881 135.563 54.1986 135.155 54.0195C134.75 53.8441 134.442 53.6131 134.231 53.3267L134.849 52.5425C135.25 53.0187 135.744 53.2568 136.331 53.2568C136.764 53.2568 137.106 53.1387 137.357 52.9023C137.608 52.6696 137.733 52.3258 137.733 51.8711V51.479C137.357 51.8979 136.856 52.1074 136.229 52.1074C135.549 52.1074 134.992 51.8371 134.559 51.2964C134.129 50.7557 133.914 50.0073 133.914 49.0513ZM135.214 49.1641C135.214 49.7477 135.332 50.2078 135.568 50.5444C135.808 50.8774 136.139 51.0439 136.562 51.0439C137.088 51.0439 137.479 50.8184 137.733 50.3672V47.8105C137.486 47.3701 137.099 47.1499 136.573 47.1499C136.143 47.1499 135.808 47.32 135.568 47.6602C135.332 48.0003 135.214 48.5016 135.214 49.1641Z" fill="#1D91CF"/>
<path d="M249.762 49.4541C249.683 50.2884 249.375 50.9401 248.838 51.4092C248.301 51.8747 247.587 52.1074 246.695 52.1074C246.072 52.1074 245.523 51.9606 245.046 51.667C244.574 51.3698 244.208 50.9491 243.951 50.4048C243.693 49.8605 243.559 49.2285 243.548 48.5088V47.7783C243.548 47.0407 243.679 46.3908 243.94 45.8286C244.201 45.2664 244.576 44.8332 245.062 44.5288C245.553 44.2244 246.119 44.0723 246.76 44.0723C247.623 44.0723 248.317 44.3068 248.844 44.7759C249.37 45.245 249.676 45.9074 249.762 46.7632H248.409C248.344 46.201 248.18 45.7964 247.915 45.5493C247.653 45.2987 247.268 45.1733 246.76 45.1733C246.169 45.1733 245.714 45.39 245.396 45.8232C245.08 46.2529 244.919 46.8849 244.912 47.7192V48.4121C244.912 49.2572 245.062 49.9017 245.363 50.3457C245.668 50.7897 246.112 51.0117 246.695 51.0117C247.229 51.0117 247.63 50.8918 247.898 50.6519C248.167 50.4119 248.337 50.0127 248.409 49.4541H249.762ZM254.328 52C254.27 51.889 254.22 51.7082 254.177 51.4575C253.762 51.8908 253.253 52.1074 252.652 52.1074C252.068 52.1074 251.592 51.9409 251.223 51.6079C250.854 51.2749 250.67 50.8631 250.67 50.3726C250.67 49.7531 250.899 49.2786 251.357 48.9492C251.819 48.6162 252.478 48.4497 253.334 48.4497H254.134V48.0684C254.134 47.7676 254.05 47.5277 253.882 47.3486C253.714 47.166 253.458 47.0747 253.114 47.0747C252.817 47.0747 252.573 47.1499 252.383 47.3003C252.194 47.4471 252.099 47.6351 252.099 47.8643H250.793C250.793 47.5456 250.899 47.2484 251.11 46.9727C251.322 46.6934 251.608 46.4749 251.97 46.3174C252.335 46.1598 252.741 46.0811 253.189 46.0811C253.869 46.0811 254.412 46.2529 254.816 46.5967C255.221 46.9368 255.429 47.4167 255.439 48.0361V50.6572C255.439 51.18 255.513 51.5972 255.66 51.9087V52H254.328ZM252.894 51.0601C253.151 51.0601 253.393 50.9974 253.619 50.8721C253.848 50.7467 254.02 50.5785 254.134 50.3672V49.2715H253.431C252.947 49.2715 252.584 49.3556 252.34 49.5239C252.097 49.6922 251.975 49.9303 251.975 50.2383C251.975 50.4889 252.057 50.6895 252.222 50.8398C252.39 50.9867 252.614 51.0601 252.894 51.0601ZM258.442 44.7759V46.1885H259.468V47.1553H258.442V50.3994C258.442 50.6214 258.485 50.7826 258.571 50.8828C258.66 50.9795 258.818 51.0278 259.043 51.0278C259.194 51.0278 259.346 51.0099 259.5 50.9741V51.9839C259.203 52.0662 258.916 52.1074 258.641 52.1074C257.638 52.1074 257.137 51.5542 257.137 50.4478V47.1553H256.181V46.1885H257.137V44.7759H258.442ZM263.942 52C263.885 51.889 263.834 51.7082 263.792 51.4575C263.376 51.8908 262.868 52.1074 262.266 52.1074C261.682 52.1074 261.206 51.9409 260.837 51.6079C260.469 51.2749 260.284 50.8631 260.284 50.3726C260.284 49.7531 260.513 49.2786 260.972 48.9492C261.434 48.6162 262.092 48.4497 262.948 48.4497H263.749V48.0684C263.749 47.7676 263.664 47.5277 263.496 47.3486C263.328 47.166 263.072 47.0747 262.728 47.0747C262.431 47.0747 262.187 47.1499 261.998 47.3003C261.808 47.4471 261.713 47.6351 261.713 47.8643H260.408C260.408 47.5456 260.513 47.2484 260.725 46.9727C260.936 46.6934 261.222 46.4749 261.584 46.3174C261.949 46.1598 262.356 46.0811 262.803 46.0811C263.484 46.0811 264.026 46.2529 264.431 46.5967C264.835 46.9368 265.043 47.4167 265.054 48.0361V50.6572C265.054 51.18 265.127 51.5972 265.274 51.9087V52H263.942ZM262.508 51.0601C262.766 51.0601 263.007 50.9974 263.233 50.8721C263.462 50.7467 263.634 50.5785 263.749 50.3672V49.2715H263.045C262.562 49.2715 262.198 49.3556 261.955 49.5239C261.711 49.6922 261.589 49.9303 261.589 50.2383C261.589 50.4889 261.672 50.6895 261.836 50.8398C262.005 50.9867 262.229 51.0601 262.508 51.0601ZM267.809 52H266.504V43.75H267.809V52ZM268.991 49.0405C268.991 48.4712 269.104 47.9591 269.329 47.5044C269.555 47.0461 269.872 46.6951 270.28 46.4517C270.688 46.2046 271.157 46.0811 271.687 46.0811C272.471 46.0811 273.107 46.3335 273.594 46.8384C274.084 47.3433 274.349 48.0129 274.389 48.8472L274.394 49.1533C274.394 49.7262 274.283 50.2383 274.061 50.6895C273.843 51.1406 273.528 51.4897 273.116 51.7368C272.708 51.9839 272.235 52.1074 271.698 52.1074C270.878 52.1074 270.221 51.8353 269.727 51.291C269.236 50.7432 268.991 50.0145 268.991 49.105V49.0405ZM270.296 49.1533C270.296 49.7513 270.419 50.2204 270.667 50.5605C270.914 50.8971 271.257 51.0654 271.698 51.0654C272.138 51.0654 272.48 50.8936 272.724 50.5498C272.971 50.2061 273.094 49.703 273.094 49.0405C273.094 48.4533 272.967 47.9878 272.713 47.644C272.462 47.3003 272.12 47.1284 271.687 47.1284C271.261 47.1284 270.923 47.2985 270.672 47.6387C270.421 47.9753 270.296 48.4801 270.296 49.1533ZM275.27 49.0513C275.27 48.1489 275.481 47.4292 275.903 46.8921C276.329 46.3514 276.893 46.0811 277.595 46.0811C278.258 46.0811 278.779 46.312 279.158 46.7739L279.217 46.1885H280.394V51.8228C280.394 52.5854 280.155 53.187 279.679 53.6274C279.207 54.0679 278.567 54.2881 277.762 54.2881C277.336 54.2881 276.918 54.1986 276.51 54.0195C276.106 53.8441 275.798 53.6131 275.586 53.3267L276.204 52.5425C276.605 53.0187 277.099 53.2568 277.687 53.2568C278.12 53.2568 278.462 53.1387 278.712 52.9023C278.963 52.6696 279.088 52.3258 279.088 51.8711V51.479C278.712 51.8979 278.211 52.1074 277.584 52.1074C276.904 52.1074 276.347 51.8371 275.914 51.2964C275.484 50.7557 275.27 50.0073 275.27 49.0513ZM276.569 49.1641C276.569 49.7477 276.688 50.2078 276.924 50.5444C277.164 50.8774 277.495 51.0439 277.917 51.0439C278.444 51.0439 278.834 50.8184 279.088 50.3672V47.8105C278.841 47.3701 278.455 47.1499 277.928 47.1499C277.499 47.1499 277.164 47.32 276.924 47.6602C276.688 48.0003 276.569 48.5016 276.569 49.1641ZM285.26 51.4307C284.877 51.8818 284.332 52.1074 283.627 52.1074C282.997 52.1074 282.519 51.923 282.193 51.5542C281.871 51.1854 281.709 50.6519 281.709 49.9536V46.1885H283.015V49.9375C283.015 50.6751 283.321 51.0439 283.933 51.0439C284.567 51.0439 284.995 50.8166 285.217 50.3618V46.1885H286.522V52H285.292L285.26 51.4307ZM290.411 52.1074C289.583 52.1074 288.912 51.8478 288.396 51.3286C287.884 50.8058 287.628 50.1112 287.628 49.2446V49.0835C287.628 48.5034 287.739 47.986 287.961 47.5312C288.187 47.0729 288.502 46.7166 288.907 46.4624C289.311 46.2082 289.763 46.0811 290.26 46.0811C291.052 46.0811 291.662 46.3335 292.092 46.8384C292.525 47.3433 292.742 48.0576 292.742 48.9814V49.5078H288.944C288.984 49.9876 289.143 50.3672 289.422 50.6465C289.705 50.9258 290.06 51.0654 290.486 51.0654C291.084 51.0654 291.571 50.8237 291.947 50.3403L292.65 51.0117C292.418 51.359 292.106 51.6294 291.716 51.8228C291.329 52.0125 290.894 52.1074 290.411 52.1074ZM290.255 47.1284C289.897 47.1284 289.607 47.2537 289.385 47.5044C289.166 47.755 289.027 48.1042 288.966 48.5518H291.453V48.4551C291.424 48.0182 291.308 47.6888 291.104 47.4668C290.899 47.2412 290.617 47.1284 290.255 47.1284Z" fill="#313552"/>
<path d="M322.882 49.9858C322.882 49.6421 322.761 49.3771 322.517 49.1909C322.277 49.0047 321.842 48.8167 321.212 48.627C320.582 48.4372 320.08 48.2259 319.708 47.9932C318.995 47.5456 318.639 46.9619 318.639 46.2422C318.639 45.612 318.895 45.0928 319.407 44.6846C319.923 44.2764 320.591 44.0723 321.411 44.0723C321.955 44.0723 322.44 44.1725 322.866 44.373C323.292 44.5736 323.627 44.86 323.871 45.2324C324.114 45.6012 324.236 46.0112 324.236 46.4624H322.882C322.882 46.0542 322.753 45.7355 322.496 45.5063C322.241 45.2736 321.876 45.1572 321.4 45.1572C320.956 45.1572 320.61 45.2521 320.363 45.4419C320.12 45.6317 319.998 45.8966 319.998 46.2368C319.998 46.5233 320.131 46.7632 320.396 46.9565C320.66 47.1463 321.097 47.3325 321.706 47.5151C322.315 47.6942 322.804 47.9001 323.172 48.1328C323.541 48.362 323.812 48.627 323.983 48.9277C324.155 49.2249 324.241 49.5741 324.241 49.9751C324.241 50.6268 323.991 51.146 323.489 51.5327C322.992 51.9159 322.315 52.1074 321.459 52.1074C320.893 52.1074 320.372 52.0036 319.896 51.7959C319.423 51.5846 319.055 51.2946 318.79 50.9258C318.528 50.557 318.397 50.1273 318.397 49.6367H319.756C319.756 50.0807 319.903 50.4245 320.197 50.668C320.49 50.9115 320.911 51.0332 321.459 51.0332C321.932 51.0332 322.286 50.9383 322.522 50.7485C322.762 50.5552 322.882 50.3009 322.882 49.9858ZM325.063 49.0405C325.063 48.4712 325.176 47.9591 325.401 47.5044C325.627 47.0461 325.944 46.6951 326.352 46.4517C326.76 46.2046 327.229 46.0811 327.759 46.0811C328.543 46.0811 329.179 46.3335 329.666 46.8384C330.157 47.3433 330.422 48.0129 330.461 48.8472L330.466 49.1533C330.466 49.7262 330.355 50.2383 330.133 50.6895C329.915 51.1406 329.6 51.4897 329.188 51.7368C328.78 51.9839 328.307 52.1074 327.77 52.1074C326.95 52.1074 326.293 51.8353 325.799 51.291C325.308 50.7432 325.063 50.0145 325.063 49.105V49.0405ZM326.368 49.1533C326.368 49.7513 326.492 50.2204 326.739 50.5605C326.986 50.8971 327.33 51.0654 327.77 51.0654C328.21 51.0654 328.552 50.8936 328.796 50.5498C329.043 50.2061 329.167 49.703 329.167 49.0405C329.167 48.4533 329.039 47.9878 328.785 47.644C328.535 47.3003 328.193 47.1284 327.759 47.1284C327.333 47.1284 326.995 47.2985 326.744 47.6387C326.493 47.9753 326.368 48.4801 326.368 49.1533ZM333.958 51.0654C334.283 51.0654 334.554 50.9705 334.769 50.7808C334.983 50.591 335.098 50.3564 335.112 50.0771H336.342C336.328 50.4388 336.215 50.7772 336.004 51.0923C335.793 51.4038 335.506 51.6509 335.145 51.8335C334.783 52.0161 334.393 52.1074 333.974 52.1074C333.161 52.1074 332.516 51.8442 332.04 51.3179C331.564 50.7915 331.326 50.0646 331.326 49.1372V49.0029C331.326 48.1185 331.562 47.4113 332.035 46.8813C332.507 46.3478 333.152 46.0811 333.968 46.0811C334.659 46.0811 335.222 46.2834 335.655 46.688C336.092 47.089 336.321 47.6172 336.342 48.2725H335.112C335.098 47.9395 334.983 47.6655 334.769 47.4507C334.557 47.2358 334.287 47.1284 333.958 47.1284C333.535 47.1284 333.209 47.2824 332.98 47.5903C332.751 47.8947 332.634 48.3584 332.631 48.9814V49.1909C332.631 49.8211 332.744 50.292 332.969 50.6035C333.198 50.9115 333.528 51.0654 333.958 51.0654ZM338.716 52H337.411V46.1885H338.716V52ZM337.331 44.6792C337.331 44.4787 337.393 44.3122 337.519 44.1797C337.647 44.0472 337.83 43.981 338.066 43.981C338.303 43.981 338.485 44.0472 338.614 44.1797C338.743 44.3122 338.808 44.4787 338.808 44.6792C338.808 44.8761 338.743 45.0409 338.614 45.1733C338.485 45.3022 338.303 45.3667 338.066 45.3667C337.83 45.3667 337.647 45.3022 337.519 45.1733C337.393 45.0409 337.331 44.8761 337.331 44.6792ZM343.615 52C343.557 51.889 343.507 51.7082 343.464 51.4575C343.049 51.8908 342.541 52.1074 341.939 52.1074C341.355 52.1074 340.879 51.9409 340.51 51.6079C340.141 51.2749 339.957 50.8631 339.957 50.3726C339.957 49.7531 340.186 49.2786 340.645 48.9492C341.106 48.6162 341.765 48.4497 342.621 48.4497H343.421V48.0684C343.421 47.7676 343.337 47.5277 343.169 47.3486C343.001 47.166 342.745 47.0747 342.401 47.0747C342.104 47.0747 341.86 47.1499 341.67 47.3003C341.481 47.4471 341.386 47.6351 341.386 47.8643H340.081C340.081 47.5456 340.186 47.2484 340.397 46.9727C340.609 46.6934 340.895 46.4749 341.257 46.3174C341.622 46.1598 342.028 46.0811 342.476 46.0811C343.156 46.0811 343.699 46.2529 344.104 46.5967C344.508 46.9368 344.716 47.4167 344.727 48.0361V50.6572C344.727 51.18 344.8 51.5972 344.947 51.9087V52H343.615ZM342.181 51.0601C342.438 51.0601 342.68 50.9974 342.906 50.8721C343.135 50.7467 343.307 50.5785 343.421 50.3672V49.2715H342.718C342.234 49.2715 341.871 49.3556 341.627 49.5239C341.384 49.6922 341.262 49.9303 341.262 50.2383C341.262 50.4889 341.345 50.6895 341.509 50.8398C341.678 50.9867 341.901 51.0601 342.181 51.0601ZM347.482 52H346.177V43.75H347.482V52Z" fill="#313552"/>
<path d="M32.0039 52H30.6504V48.5249H27.1538V52H25.7949V44.1797H27.1538V47.4346H30.6504V44.1797H32.0039V52ZM33.2446 49.0405C33.2446 48.4712 33.3574 47.9591 33.583 47.5044C33.8086 47.0461 34.1255 46.6951 34.5337 46.4517C34.9419 46.2046 35.411 46.0811 35.9409 46.0811C36.7251 46.0811 37.3607 46.3335 37.8477 46.8384C38.3382 47.3433 38.6032 48.0129 38.6426 48.8472L38.6479 49.1533C38.6479 49.7262 38.5369 50.2383 38.3149 50.6895C38.0965 51.1406 37.7814 51.4897 37.3696 51.7368C36.9614 51.9839 36.4888 52.1074 35.9517 52.1074C35.1317 52.1074 34.4746 51.8353 33.9805 51.291C33.4899 50.7432 33.2446 50.0145 33.2446 49.105V49.0405ZM34.5498 49.1533C34.5498 49.7513 34.6733 50.2204 34.9204 50.5605C35.1675 50.8971 35.5112 51.0654 35.9517 51.0654C36.3921 51.0654 36.734 50.8936 36.9775 50.5498C37.2246 50.2061 37.3481 49.703 37.3481 49.0405C37.3481 48.4533 37.221 47.9878 36.9668 47.644C36.7161 47.3003 36.3742 47.1284 35.9409 47.1284C35.5148 47.1284 35.1764 47.2985 34.9258 47.6387C34.6751 47.9753 34.5498 48.4801 34.5498 49.1533ZM40.979 46.1885L41.0166 46.7954C41.4248 46.3192 41.9834 46.0811 42.6924 46.0811C43.4694 46.0811 44.0011 46.3783 44.2876 46.9727C44.7101 46.3783 45.3045 46.0811 46.0708 46.0811C46.7118 46.0811 47.188 46.2583 47.4995 46.6128C47.8146 46.9673 47.9757 47.4901 47.9829 48.1812V52H46.6777V48.2188C46.6777 47.8499 46.5972 47.5796 46.436 47.4077C46.2749 47.2358 46.0081 47.1499 45.6357 47.1499C45.3385 47.1499 45.0951 47.2305 44.9053 47.3916C44.7191 47.5492 44.5884 47.7568 44.5132 48.0146L44.5186 52H43.2134V48.1758C43.1955 47.4919 42.8464 47.1499 42.166 47.1499C41.6432 47.1499 41.2726 47.363 41.0542 47.7891V52H39.749V46.1885H40.979ZM51.8823 52.1074C51.0552 52.1074 50.3838 51.8478 49.8682 51.3286C49.3561 50.8058 49.1001 50.1112 49.1001 49.2446V49.0835C49.1001 48.5034 49.2111 47.986 49.4331 47.5312C49.6587 47.0729 49.9738 46.7166 50.3784 46.4624C50.783 46.2082 51.2342 46.0811 51.7319 46.0811C52.5233 46.0811 53.1338 46.3335 53.5635 46.8384C53.9967 47.3433 54.2134 48.0576 54.2134 48.9814V49.5078H50.416C50.4554 49.9876 50.6147 50.3672 50.894 50.6465C51.1769 50.9258 51.5314 51.0654 51.9575 51.0654C52.5555 51.0654 53.0425 50.8237 53.4185 50.3403L54.1221 51.0117C53.8893 51.359 53.5778 51.6294 53.1875 51.8228C52.8008 52.0125 52.3657 52.1074 51.8823 52.1074ZM51.7266 47.1284C51.3685 47.1284 51.0785 47.2537 50.8564 47.5044C50.638 47.755 50.4984 48.1042 50.4375 48.5518H52.9243V48.4551C52.8957 48.0182 52.7793 47.6888 52.5752 47.4668C52.3711 47.2412 52.0882 47.1284 51.7266 47.1284Z" fill="#313552"/>
<path d="M323.5 33.5L324.75 36L326 33.5" stroke="#303450" stroke-linejoin="round"/>
<rect x="321.5" y="21.5" width="16.5" height="12.75" rx="1.5" fill="white" stroke="#303450"/>
<path d="M324.75 26H334.75" stroke="#303450"/>
<path d="M324.75 29.75H334.75" stroke="#303450"/>
<path d="M341 26L342.25 28.5L343.5 26" stroke="#303450" stroke-linejoin="round"/>
<rect x="329" y="14" width="16.5" height="12.75" rx="1.5" fill="white" stroke="#303450"/>
<path d="M332.25 18.5H342.25" stroke="#303450"/>
<path d="M332.25 22.25H342.25" stroke="#303450"/>
<path d="M255.79 35.1531V31.8673H277.089V35.1531H255.79Z" fill="white" stroke="#313552"/>
<path d="M266.5 16.6735C263.125 12.6326 259.629 13.7347 253.603 13.7347V33.5714C259.629 33.5714 263.245 32.5918 266.5 36.3877" fill="white"/>
<path d="M266.5 16.6735C263.125 12.6326 259.629 13.7347 253.603 13.7347V33.5714C259.629 33.5714 263.245 32.5918 266.5 36.3877" stroke="#313552" stroke-miterlimit="10" stroke-linecap="round"/>
<path d="M266.5 36.3877C269.995 32.8367 273.37 33.5714 279.397 33.5714V13.7347C273.37 13.7347 269.875 12.6326 266.5 16.551C266.5 16.6735 266.259 36.5102 266.5 36.3877Z" fill="white" stroke="#313552" stroke-miterlimit="10" stroke-linecap="round"/>
<path d="M26.6641 21.5977L41.0003 13.6322" stroke="#313552" stroke-miterlimit="10" stroke-linecap="round"/>
<path d="M31.8408 18.8161V34.3678H37.0178V28.5517C37.0178 27.7931 37.5488 27.2873 38.3452 27.2873H43.655C44.4514 27.2873 44.9824 27.7931 44.9824 28.5517V34.3678H50.1594V18.8161" stroke="#313552" stroke-miterlimit="10" stroke-linecap="round"/>
<path d="M55.3363 21.5977L41 13.6322" stroke="#313552" stroke-miterlimit="10" stroke-linecap="round"/>
<path d="M106.283 16.5798L106.291 16.576L106.299 16.5719C106.767 16.3379 107.113 16.2216 107.59 16.1019C108.217 15.9768 108.94 15.8586 109.651 15.8586C113.976 15.8586 117.45 19.3424 117.45 23.53C117.45 25.8113 116.49 27.8502 114.929 29.2911L114.769 29.4396V29.6585V30.5523V34.7657C114.769 34.8594 114.724 34.9256 114.662 34.9568L114.4 35.0877L107.52 36.3163L107.518 36.3166L106.158 36.5639H106.158H106.158H106.157H106.157H106.156H106.156H106.155H106.155H106.154H106.154H106.153H106.152H106.152H106.151H106.151H106.15H106.15H106.149H106.149H106.148H106.148H106.147H106.147H106.146H106.146H106.145H106.145H106.144H106.144H106.143H106.143H106.142H106.142H106.141H106.141H106.14H106.14H106.139H106.139H106.138H106.138H106.138H106.137H106.137H106.136H106.136H106.135H106.135H106.134H106.134H106.133H106.133H106.133H106.132H106.132H106.131H106.131H106.13H106.13H106.13H106.129H106.129H106.128H106.128H106.128H106.127H106.127H106.126H106.126H106.126H106.125H106.125H106.124H106.124H106.124H106.123H106.123H106.122H106.122H106.122H106.121H106.121H106.121H106.12H106.12H106.119H106.119H106.119H106.118H106.118H106.118H106.117H106.117H106.117H106.116H106.116H106.116H106.115H106.115H106.114H106.114H106.114H106.113H106.113H106.113H106.112H106.112H106.112H106.112H106.111H106.111H106.111H106.11H106.11H106.11H106.109H106.109H106.109H106.108H106.108H106.108H106.108H106.107H106.107H106.107H106.106H106.106H106.106H106.105H106.105H106.105H106.105H106.104H106.104H106.104H106.104H106.103H106.103H106.103H106.102H106.102H106.102H106.102H106.101H106.101H106.101H106.101H106.1H106.1H106.1H106.1H106.099H106.099H106.099H106.099H106.098H106.098H106.098H106.098H106.098H106.097H106.097H106.097H106.097H106.096H106.096H106.096H106.096H106.096H106.095H106.095H106.095H106.095H106.094H106.094C106.093 36.5633 106.092 36.5626 106.091 36.5618C106.087 36.5588 106.083 36.5551 106.078 36.5507C106.074 36.5463 106.07 36.5419 106.067 36.5378C106.066 36.5366 106.066 36.5356 106.065 36.5346V34.1273V33.5111L105.462 33.638L103.091 34.1372C102.371 34.1143 101.852 33.5795 101.852 32.8505V29.7862V29.2862H101.352H100.586C100.29 29.2862 100.155 29.1683 100.097 29.0646C100.033 28.9498 100.006 28.7456 100.137 28.4809L101.795 25.2928L101.852 25.1844V25.0621V23.6577C101.852 20.5286 103.657 17.7732 106.283 16.5798Z" fill="white" stroke="#1D91CF"/>
<mask id="path-26-inside-1" fill="white">
<path fill-rule="evenodd" clip-rule="evenodd" d="M110.5 22.2312C115.194 22.2312 119 20.3886 119 18.1156V14H110.5H102V18.1156C102 20.3886 105.806 22.2312 110.5 22.2312Z"/>
</mask>
<path fill-rule="evenodd" clip-rule="evenodd" d="M110.5 22.2312C115.194 22.2312 119 20.3886 119 18.1156V14H110.5H102V18.1156C102 20.3886 105.806 22.2312 110.5 22.2312Z" fill="white"/>
<path d="M119 14H120V13H119V14ZM102 14V13H101V14H102ZM118 18.1156C118 18.6523 117.519 19.4264 116.075 20.1257C114.7 20.7915 112.73 21.2312 110.5 21.2312V23.2312C112.964 23.2312 115.245 22.7497 116.946 21.9258C118.578 21.1356 120 19.8519 120 18.1156H118ZM118 14V18.1156H120V14H118ZM110.5 15H119V13H110.5V15ZM102 15H110.5V13H102V15ZM103 18.1156V14H101V18.1156H103ZM110.5 21.2312C108.27 21.2312 106.3 20.7915 104.925 20.1257C103.481 19.4264 103 18.6523 103 18.1156H101C101 19.8519 102.422 21.1356 104.054 21.9258C105.755 22.7497 108.036 23.2312 110.5 23.2312V21.2312Z" fill="#1D91CF" mask="url(#path-26-inside-1)"/>
<path d="M97 15.6925L110.788 12.064L123.126 15.6925L110.788 18.5953L97 15.6925Z" fill="white" stroke="#1D91CF" stroke-linecap="round" stroke-linejoin="round"/>
<path d="M111 19V27" stroke="#1D91CF" stroke-linecap="round" stroke-linejoin="round"/>
<path d="M178.719 23.4671V33.1078C178.719 34.3473 179.724 35.3114 181.018 35.3114H193.949C192.081 35.3114 190.5 33.7964 190.5 32.006V23.4671H178.719Z" fill="white" stroke="#313552" stroke-miterlimit="10" stroke-linecap="round" stroke-linejoin="round"/>
<path d="M202.281 13.6886V32.1437C202.281 33.9341 200.845 35.3114 198.977 35.3114H181.592C183.46 35.3114 184.896 33.9341 184.896 32.1437V13.6886H202.281Z" fill="white" stroke="#313552" stroke-miterlimit="10" stroke-linecap="round" stroke-linejoin="round"/>
<path d="M188 19.1429L188.818 20L191 18" fill="white"/>
<path d="M188 19.1429L188.818 20L191 18" stroke="#313552" stroke-miterlimit="10" stroke-linecap="round" stroke-linejoin="round"/>
<path d="M188 24.1429L188.818 25L191 23" fill="white"/>
<path d="M188 24.1429L188.818 25L191 23" stroke="#313552" stroke-miterlimit="10" stroke-linecap="round" stroke-linejoin="round"/>
<path d="M189.495 32.1437C190.447 32.1437 191.219 31.4038 191.219 30.491C191.219 29.5783 190.447 28.8383 189.495 28.8383C188.542 28.8383 187.771 29.5783 187.771 30.491C187.771 31.4038 188.542 32.1437 189.495 32.1437Z" fill="white" stroke="#313552" stroke-miterlimit="10" stroke-linecap="round" stroke-linejoin="round"/>
<path d="M194.235 19.3353H199.408" stroke="#313552" stroke-miterlimit="10" stroke-linecap="round" stroke-linejoin="round"/>
<path d="M194.235 24.8443H199.408" stroke="#313552" stroke-miterlimit="10" stroke-linecap="round" stroke-linejoin="round"/>
<path d="M194.235 30.3533H199.408" stroke="#313552" stroke-miterlimit="10" stroke-linecap="round" stroke-linejoin="round"/>
<path d="M0 0H374.5" stroke="#E6E6E6"/>
</g>
<defs>
<clipPath id="clip0">
<path d="M0 0H375V65H0V0Z" fill="white"/>
</clipPath>
</defs>
</svg>
