<svg width="31" height="38" viewBox="0 0 31 38" fill="none" xmlns="http://www.w3.org/2000/svg">
<path fill-rule="evenodd" clip-rule="evenodd" d="M7.70698 1.29293C7.89452 1.10537 8.14889 1 8.41413 1H29C29.5523 1 30 1.44772 30 2V36C30 36.5523 29.5523 37 29 37H3C2.44771 37 2 36.5523 2 36V7.41476C2 7.14956 2.10534 6.89523 2.29285 6.70769L7.70698 1.29293Z" fill="#E4E8F3" stroke="#BDC7E2"/>
<rect x="6" y="5" width="21" height="27" fill="#EDEFF5"/>
<path fill-rule="evenodd" clip-rule="evenodd" d="M8.00159 1V6.00058C8.00159 6.55286 7.55387 7.00058 7.00159 7.00058H2L8.00159 1Z" fill="#BDC7E2"/>
<rect y="21" width="31" height="11" rx="1" fill="#5275F0"/>
<path d="M8.36719 30H7.13672V26.8408H3.95801V30H2.72266V22.8906H3.95801V25.8496H7.13672V22.8906H8.36719V30Z" fill="white"/>
<path d="M14.8223 23.8867H12.6055V30H11.3799V23.8867H9.18262V22.8906H14.8223V23.8867Z" fill="white"/>
<path d="M17.3613 22.8906L19.4121 28.3398L21.458 22.8906H23.0547V30H21.8242V27.6562L21.9463 24.5215L19.8467 30H18.9629L16.8682 24.5264L16.9902 27.6562V30H15.7598V22.8906H17.3613Z" fill="white"/>
<path d="M25.7549 29.0137H28.9824V30H24.5195V22.8906H25.7549V29.0137Z" fill="white"/>
<path d="M10.5146 13.9189L13.073 14.8902C13.2671 14.964 13.3955 15.15 13.3955 15.3577V15.429C13.3955 15.791 13.0227 16.0331 12.692 15.8857L9.60507 14.5101C9.42475 14.4297 9.30859 14.2508 9.30859 14.0533V13.7605C9.30859 13.5629 9.42496 13.3838 9.60552 13.3036L12.6924 11.9316C13.0231 11.7847 13.3955 12.0267 13.3955 12.3885V12.4628C13.3955 12.6694 13.2684 12.8548 13.0757 12.9292L10.5146 13.9189Z" fill="#BDC7E2"/>
<path d="M15.136 17.3213C15.0731 17.4948 14.9084 17.6104 14.7238 17.6104C14.4198 17.6104 14.2081 17.3084 14.3117 17.0226L16.7917 10.1796C16.8546 10.0062 17.0194 9.89062 17.2039 9.89062C17.5079 9.89062 17.7197 10.1926 17.6161 10.4784L15.136 17.3213Z" fill="#BDC7E2"/>
<path d="M21.6865 13.8945L18.9965 12.9065C18.7997 12.8342 18.6689 12.6468 18.6689 12.4371V12.3788C18.6689 12.0195 19.0366 11.7775 19.3667 11.9196L22.5854 13.3054C22.7689 13.3844 22.8877 13.5649 22.8877 13.7646V14.0488C22.8877 14.2485 22.7689 14.4291 22.5854 14.5081L19.3667 15.8939C19.0366 16.036 18.6689 15.794 18.6689 15.4347V15.3737C18.6689 15.1654 18.7982 14.9788 18.9932 14.9056L21.6865 13.8945Z" fill="#BDC7E2"/>
</svg>
