<svg width="30" height="38" viewBox="0 0 30 38" fill="none" xmlns="http://www.w3.org/2000/svg">
<path fill-rule="evenodd" clip-rule="evenodd" d="M6.70698 1.29293C6.89452 1.10537 7.14889 1 7.41413 1H28C28.5523 1 29 1.44772 29 2V36C29 36.5523 28.5523 37 28 37H2C1.44771 37 1 36.5523 1 36V7.41476C1 7.14956 1.10534 6.89523 1.29285 6.70769L6.70698 1.29293Z" fill="#E4E8F3" stroke="#BDC7E2"/>
<rect x="5" y="6" width="21" height="27" fill="#EDEFF5"/>
<path fill-rule="evenodd" clip-rule="evenodd" d="M7.00159 1V6.00058C7.00159 6.55286 6.55387 7.00058 6.00159 7.00058H1L7.00159 1Z" fill="#BDC7E2"/>
<rect x="4" y="16" width="22" height="12" rx="2" fill="#EF4141"/>
<rect x="5" y="11" width="3" height="3" rx="1" fill="#BDC7E3"/>
<rect x="11" y="11" width="3" height="3" rx="1" fill="#BDC7E3"/>
<rect x="17" y="11" width="3" height="3" rx="1" fill="#BDC7E3"/>
<rect x="23" y="11" width="3" height="3" rx="1" fill="#BDC7E3"/>
<rect x="5" y="30" width="3" height="3" rx="1" fill="#BDC7E3"/>
<rect x="11" y="30" width="3" height="3" rx="1" fill="#BDC7E3"/>
<rect x="17" y="30" width="3" height="3" rx="1" fill="#BDC7E3"/>
<rect x="23" y="30" width="3" height="3" rx="1" fill="#BDC7E3"/>
<path d="M13 25V19L17 22L13 25Z" fill="white"/>
</svg>
