<svg width="24" height="24" viewBox="0 0 24 24" fill="none" xmlns="http://www.w3.org/2000/svg">
<path d="M14.4539 8.32401L6.64611 16.1292L6.13556 17.8702L7.84173 17.3771L15.6754 9.54601L14.4539 8.32401ZM15.786 6.99234L17.0075 8.21347L18.1461 7.07525C18.2271 6.99427 18.2726 6.88446 18.2726 6.76997C18.2726 6.65547 18.2271 6.54566 18.1461 6.46468L17.5345 5.85412C17.4535 5.77317 17.3437 5.72769 17.2291 5.72769C17.1146 5.72769 17.0047 5.77317 16.9237 5.85412L15.7869 6.99234H15.786ZM18.7569 4.63299L19.3677 5.24355C19.7725 5.64843 20 6.19748 20 6.76997C20 7.34246 19.7725 7.89151 19.3677 8.29638L8.74881 18.9126L5.10322 19.9662C4.95462 20.009 4.79724 20.0112 4.64752 19.9725C4.4978 19.9338 4.36122 19.8556 4.25204 19.7461C4.14286 19.6366 4.06509 19.4998 4.02684 19.35C3.98859 19.2002 3.99127 19.0429 4.03459 18.8945L5.11272 15.2199L15.7039 4.63213C16.1089 4.22738 16.6582 4 17.2308 4C17.8035 4 18.3528 4.22738 18.7578 4.63213L18.7569 4.63299Z" fill="#303450"/>
</svg>
