<svg width="24" height="24" viewBox="0 0 24 24" fill="none" xmlns="http://www.w3.org/2000/svg">
<path fill-rule="evenodd" clip-rule="evenodd" d="M6.44444 12.0004C6.44444 10.7731 5.44952 9.77821 4.22222 9.77821C2.99492 9.77821 2 10.7731 2 12.0004C2 13.2277 2.99492 14.2227 4.22222 14.2227C5.44952 14.2227 6.44444 13.2277 6.44444 12.0004ZM14.2222 12.0004C14.2222 10.7731 13.2273 9.77821 12 9.77821C10.7727 9.77821 9.77778 10.7731 9.77778 12.0004C9.77778 13.2277 10.7727 14.2227 12 14.2227C13.2273 14.2227 14.2222 13.2277 14.2222 12.0004ZM19.7778 9.77821C21.0051 9.77821 22 10.7731 22 12.0004C22 13.2277 21.0051 14.2227 19.7778 14.2227C18.5505 14.2227 17.5556 13.2277 17.5556 12.0004C17.5556 10.7731 18.5505 9.77821 19.7778 9.77821Z" fill="#303450"/>
</svg>
