<?xml version="1.0" standalone="no"?>
<!DOCTYPE svg PUBLIC "-//W3C//DTD SVG 1.1//EN" "http://www.w3.org/Graphics/SVG/1.1/DTD/svg11.dtd" >
<svg xmlns="http://www.w3.org/2000/svg">
<metadata>
<json>
<![CDATA[
{
	"fontFamily": "me-icons",
	"majorVersion": 1,
	"minorVersion": 0,
	"version": "Version 1.0",
	"fontId": "me-icons",
	"psName": "me-icons",
	"subFamily": "Regular",
	"fullName": "me-icons",
	"description": "Font generated by IcoMoon."
}
]]>
</json>
</metadata>
<defs>
<font id="me-icons" horiz-adv-x="1024">
<font-face units-per-em="1024" ascent="960" descent="-64" />
<missing-glyph horiz-adv-x="1024" />
<glyph unicode="&#x20;" horiz-adv-x="512" d="" />
<glyph unicode="&#xe900;" glyph-name="cake" data-tags="cake" d="M511.705-64c-21.777 0-43.768 1.395-65.76 4.237-227.371 29.662-408.667 208.919-440.903 435.915s92.043 449.646 302.196 541.367c13.785 5.9 29.447-0.322 35.347-13.839 5.9-13.57-0.268-29.394-13.839-35.347-188.162-82.066-299.406-281.384-270.549-484.618s191.112-363.718 394.667-390.215c203.502-26.443 401.533 86.947 481.507 276.020 5.793 13.731 21.616 19.846 35.133 14.321 13.678-5.793 20.061-21.509 14.321-35.133-80.779-190.79-268.994-312.709-472.12-312.709zM997.396 421.047h-485.315c-14.804 0-26.819 12.015-26.819 26.819v485.315c0 14.804 12.015 26.819 26.819 26.819 136.83 0 265.4-53.262 362.109-149.971 96.763-96.763 150.025-225.333 150.025-362.163 0-14.804-12.015-26.819-26.819-26.819zM538.899 474.685h430.873c-6.383 112.425-53.262 217.126-133.505 297.368s-184.943 127.068-297.368 133.505v-430.873z" />
<glyph unicode="&#xe901;" glyph-name="check-nobox" data-tags="check-nobox" d="M251.961 21.333c-15.417 0-30.151 6.258-40.903 17.351l-195.072 201.671c-21.845 22.585-21.276 58.596 1.308 80.441 22.585 21.788 58.596 21.276 80.441-1.308l154.169-159.403 674.304 697.23c21.845 22.528 57.856 23.211 80.441 1.308 22.528-21.845 23.154-57.856 1.308-80.441l-715.15-739.556c-10.695-11.036-25.429-17.294-40.846-17.294z" />
<glyph unicode="&#xe902;" glyph-name="check-selected" data-tags="check-selected" d="M435.2 268.8c-6.554 0-13.107 2.509-18.125 7.475l-153.6 153.6c-9.984 9.984-9.984 26.214 0 36.198s26.214 9.984 36.198 0l135.526-135.475 545.075 545.126c9.984 9.984 26.214 9.984 36.198 0s9.984-26.214 0-36.198l-563.2-563.2c-4.966-5.018-11.52-7.526-18.074-7.526zM844.8-38.4h-716.8c-70.554 0-128 57.395-128 128v716.8c0 70.554 57.446 128 128 128h563.2c14.131 0 25.6-11.469 25.6-25.6s-11.469-25.6-25.6-25.6h-563.2c-42.342 0-76.8-34.458-76.8-76.8v-716.8c0-42.342 34.458-76.8 76.8-76.8h716.8c42.342 0 76.8 34.458 76.8 76.8v358.4c0 14.131 11.469 25.6 25.6 25.6s25.6-11.469 25.6-25.6v-358.4c0-70.605-57.395-128-128-128z" />
<glyph unicode="&#xe903;" glyph-name="chevron-right" data-tags="chevron-right" d="M787.692 448c0-10.082-3.86-20.165-11.5-27.884l-472.615-472.615c-15.36-15.36-40.33-15.36-55.69 0s-15.36 40.33 0 55.69l444.731 444.81-444.731 444.731c-15.36 15.36-15.36 40.33 0 55.69s40.33 15.36 55.69 0l472.615-472.615c7.641-7.641 11.5-17.723 11.5-27.806z" />
<glyph unicode="&#xe904;" glyph-name="chevron-up" data-tags="chevron-up" d="M512 723.692c10.082 0 20.165-3.86 27.884-11.5l472.615-472.615c15.36-15.36 15.36-40.33 0-55.69s-40.33-15.36-55.69 0l-444.81 444.731-444.731-444.731c-15.36-15.36-40.33-15.36-55.69 0s-15.36 40.33 0 55.69l472.615 472.615c7.641 7.641 17.723 11.5 27.806 11.5z" />
<glyph unicode="&#xe905;" glyph-name="chevron-left" data-tags="chevron-left" d="M236.308 448c0 10.082 3.86 20.165 11.5 27.884l472.615 472.615c15.36 15.36 40.33 15.36 55.69 0s15.36-40.33 0-55.69l-444.731-444.81 444.731-444.731c15.36-15.36 15.36-40.33 0-55.69s-40.33-15.36-55.69 0l-472.615 472.615c-7.641 7.641-11.5 17.723-11.5 27.806z" />
<glyph unicode="&#xe906;" glyph-name="chevron" data-tags="chevron" d="M512 172.308c-10.082 0-20.165 3.86-27.884 11.5l-472.615 472.615c-15.36 15.36-15.36 40.33 0 55.69s40.33 15.36 55.69 0l444.81-444.731 444.731 444.731c15.36 15.36 40.33 15.36 55.69 0s15.36-40.33 0-55.69l-472.615-472.615c-7.641-7.641-17.723-11.5-27.806-11.5z" />
<glyph unicode="&#xe907;" glyph-name="close" data-tags="close" d="M39.424-63.971c-10.082 0-20.165 3.86-27.884 11.5-15.36 15.36-15.36 40.33 0 55.69l945.231 945.231c15.36 15.36 40.33 15.36 55.69 0s15.36-40.33 0-55.69l-945.231-945.231c-7.641-7.641-17.723-11.5-27.806-11.5zM984.654-63.971c-10.082 0-20.165 3.86-27.884 11.5l-945.231 945.231c-15.36 15.36-15.36 40.33 0 55.69s40.33 15.36 55.69 0l945.231-945.231c15.36-15.36 15.36-40.33 0-55.69-7.641-7.641-17.723-11.5-27.806-11.5z" />
<glyph unicode="&#xe908;" glyph-name="comment" data-tags="comment" d="M26.947-64c-3.449 0-6.952 0.701-10.294 2.048-10.078 4.15-16.653 14.013-16.653 24.899v862.316c0 74.267 60.47 134.737 134.737 134.737h754.526c74.321 0 134.737-60.47 134.737-134.737v-538.947c0-74.321-60.416-134.737-134.737-134.737h-635.581l-207.71-207.71c-5.12-5.12-12.019-7.869-19.025-7.869zM134.737 906.105c-44.571 0-80.842-36.271-80.842-80.842v-797.265l169.553 169.553c5.066 5.066 11.911 7.923 19.079 7.923h646.737c44.571 0 80.842 36.271 80.842 80.842v538.947c0 44.571-36.271 80.842-80.842 80.842h-754.526z" />
<glyph unicode="&#xe909;" glyph-name="eye" data-tags="eye" d="M512 69.565c-321.714 0-502.116 353.414-509.64 368.462-3.117 6.278-3.117 13.668 0 19.901 7.524 15.093 187.926 368.506 509.64 368.506s502.116-353.414 509.64-368.462c3.117-6.278 3.117-13.668 0-19.901-7.524-15.093-187.926-368.506-509.64-368.506zM47.505 448c31.388-56.498 199.101-333.913 464.495-333.913 265.795 0 433.152 277.326 464.495 333.913-31.388 56.498-199.101 333.913-464.495 333.913-265.795 0-433.152-277.326-464.495-333.913zM512 292.174c-85.927 0-155.826 69.899-155.826 155.826s69.899 155.826 155.826 155.826 155.826-69.899 155.826-155.826-69.899-155.826-155.826-155.826zM512 559.304c-61.351 0-111.304-49.953-111.304-111.304 0-61.395 49.953-111.304 111.304-111.304 61.395 0 111.304 49.909 111.304 111.304 0 61.351-49.909 111.304-111.304 111.304z" />
<glyph unicode="&#xe90a;" glyph-name="eye-shut" data-tags="eye-shut" d="M512.356 69.565c-322.070 0-502.517 353.414-510.041 368.462-3.25 6.5-3.117 14.113 0.312 20.48 57.21 106.674 135.079 198.077 231.379 271.627 9.795 7.524 23.775 5.565 31.254-4.185 7.435-9.75 5.565-23.73-4.23-31.21-88.064-67.228-159.833-150.261-213.482-246.829 31.566-56.721 199.19-333.824 464.451-333.824 89.934 1.469 179.155 32.456 250.925 87.174 9.75 7.435 23.686 5.61 31.21-4.185 7.48-9.795 5.565-23.775-4.185-31.21-79.293-60.461-177.864-94.653-277.593-96.301zM905.572 283.759c-5.075 0-10.195 1.692-14.336 5.209-9.394 7.969-10.596 21.994-2.716 31.388 33.258 39.446 62.776 82.41 87.93 127.733-31.566 56.765-200.971 333.824-465.252 333.824-29.518 0-58.947-3.384-87.619-10.106-11.887-2.716-23.953 4.63-26.758 16.607s4.63 23.953 16.607 26.758c32.278 7.569 65.224 11.932 98.616 11.264 321.67 0 502.072-353.414 509.596-368.462 3.206-6.456 3.117-14.069-0.312-20.435-27.737-51.957-60.995-100.975-98.749-145.853-4.408-5.254-10.685-7.925-17.007-7.925zM508.705 288.835c-12.867 0-25.823 1.603-38.6 4.853-55.251 14.069-98.304 57.166-112.417 112.373-14.113 55.296 3.027 113.753 44.744 152.621 8.993 8.37 23.062 7.925 31.477-1.113 8.37-8.993 7.88-23.107-1.113-31.477-29.785-27.782-42.029-69.543-31.967-108.989 10.106-39.491 40.826-70.211 80.317-80.317 39.535-10.151 81.252 2.137 108.945 31.967 8.37 8.949 22.483 9.528 31.477 1.113s9.483-22.483 1.113-31.477c-29.874-32.011-71.324-49.553-113.976-49.553zM1001.739-64c-5.699 0-11.398 2.182-15.761 6.5l-979.478 979.478c-8.682 8.682-8.682 22.795 0 31.477s22.795 8.682 31.477 0l979.478-979.478c8.682-8.682 8.682-22.795 0-31.477-4.319-4.319-10.017-6.5-15.716-6.5z" />
<glyph unicode="&#xe90b;" glyph-name="hamburger" data-tags="hamburger" d="M997.053 421.053h-970.105c-14.875 0-26.947 12.072-26.947 26.947s12.072 26.947 26.947 26.947h970.105c14.875 0 26.947-12.072 26.947-26.947s-12.072-26.947-26.947-26.947zM997.053 744.421h-970.105c-14.875 0-26.947 12.072-26.947 26.947s12.072 26.947 26.947 26.947h970.105c14.875 0 26.947-12.072 26.947-26.947s-12.072-26.947-26.947-26.947zM997.053 97.684h-970.105c-14.875 0-26.947 12.072-26.947 26.947s12.072 26.947 26.947 26.947h970.105c14.875 0 26.947-12.072 26.947-26.947s-12.072-26.947-26.947-26.947z" />
<glyph unicode="&#xe90c;" glyph-name="help" data-tags="help" d="M508.099 374.857c-10.191 0-19.7 6.437-23.113 16.677-4.291 12.776 2.584 26.575 15.36 30.866 36.084 12.093 129.658 57.832 129.658 123.124 0.098 59.685-42.52 110.299-101.278 120.393-58.807 9.947-115.81-23.454-135.607-79.726-4.486-12.727-18.383-19.407-31.11-14.921-12.678 4.486-19.407 18.383-14.921 31.11 27.697 78.75 107.666 125.708 189.879 111.567 82.31-14.141 141.897-84.992 141.8-168.472 0-113.762-156.331-167.156-162.962-169.399-2.584-0.829-5.169-1.219-7.704-1.219zM512-64c-282.331 0-512 229.669-512 512s229.669 512 512 512c282.331 0 512-229.669 512-512s-229.669-512-512-512zM512 911.238c-255.415 0-463.238-207.823-463.238-463.238s207.823-463.238 463.238-463.238 463.238 207.823 463.238 463.238-207.823 463.238-463.238 463.238zM512 179.81c-13.458 0-24.381 10.923-24.381 24.381v48.762c0 13.458 10.923 24.381 24.381 24.381s24.381-10.923 24.381-24.381v-48.762c0-13.458-10.923-24.381-24.381-24.381z" />
<glyph unicode="&#xe90d;" glyph-name="login" data-tags="login" d="M853.333-64h-243.81c-13.458 0-24.381 10.923-24.381 24.381s10.923 24.381 24.381 24.381h243.81c40.326 0 73.143 32.817 73.143 73.143v780.19c0 40.326-32.817 73.143-73.143 73.143h-243.81c-13.458 0-24.381 10.923-24.381 24.381s10.923 24.381 24.381 24.381h243.81c67.243 0 121.905-54.711 121.905-121.905v-780.19c0-67.243-54.662-121.905-121.905-121.905zM463.238 228.571c-6.242 0-12.483 2.389-17.262 7.119-9.509 9.509-9.509 24.966 0 34.475l177.835 177.835-177.835 177.786c-9.509 9.509-9.509 24.966 0 34.475s24.966 9.509 34.475 0l195.048-195.048c9.509-9.509 9.509-24.966 0-34.475l-195.048-195.048c-4.73-4.73-10.971-7.119-17.213-7.119zM658.286 423.619h-585.143c-13.458 0-24.381 10.923-24.381 24.381s10.923 24.381 24.381 24.381h585.143c13.458 0 24.381-10.923 24.381-24.381s-10.923-24.381-24.381-24.381z" />
<glyph unicode="&#xe90e;" glyph-name="mail" data-tags="mail" d="M902.095 33.524h-780.19c-67.194 0-121.905 54.662-121.905 121.905v585.143c0 67.194 54.711 121.905 121.905 121.905h780.19c67.243 0 121.905-54.711 121.905-121.905v-585.143c0-67.243-54.662-121.905-121.905-121.905zM121.905 813.714c-40.326 0-73.143-32.817-73.143-73.143v-585.143c0-40.326 32.817-73.143 73.143-73.143h780.19c40.326 0 73.143 32.817 73.143 73.143v585.143c0 40.326-32.817 73.143-73.143 73.143h-780.19zM512 374.857c-4.876 0-9.801 1.463-13.995 4.437l-487.619 341.333c-11.069 7.704-13.702 22.918-5.998 33.938 7.753 11.020 22.918 13.653 33.987 5.998l473.624-331.581 473.624 331.532c11.118 7.656 26.234 5.071 33.938-5.998 7.753-11.020 5.071-26.234-5.949-33.938l-487.619-341.333c-4.194-2.926-9.118-4.389-13.995-4.389z" />
<glyph unicode="&#xe90f;" glyph-name="more" data-tags="more" d="M512 326.095c-67.194 0-121.905 54.662-121.905 121.905 0 67.194 54.711 121.905 121.905 121.905 67.243 0 121.905-54.711 121.905-121.905 0-67.243-54.662-121.905-121.905-121.905zM512 521.143c-40.326 0-73.143-32.817-73.143-73.143s32.817-73.143 73.143-73.143 73.143 32.817 73.143 73.143-32.817 73.143-73.143 73.143zM512 716.19c-67.194 0-121.905 54.711-121.905 121.905s54.711 121.905 121.905 121.905c67.243 0 121.905-54.711 121.905-121.905s-54.662-121.905-121.905-121.905zM512 911.238c-40.326 0-73.143-32.817-73.143-73.143s32.817-73.143 73.143-73.143 73.143 32.817 73.143 73.143-32.817 73.143-73.143 73.143zM512-64c-67.194 0-121.905 54.662-121.905 121.905s54.711 121.905 121.905 121.905c67.243 0 121.905-54.662 121.905-121.905s-54.662-121.905-121.905-121.905zM512 131.048c-40.326 0-73.143-32.817-73.143-73.143s32.817-73.143 73.143-73.143 73.143 32.817 73.143 73.143-32.817 73.143-73.143 73.143z" />
<glyph unicode="&#xe910;" glyph-name="network" data-tags="network" d="M927.008 436.981c-11.166 0-21.211 7.656-23.747 18.968-28.477 124.733-116.687 225.816-235.91 270.434-12.629 4.73-19.066 18.773-14.336 31.403s18.822 18.968 31.403 14.287c134.68-50.371 234.252-164.474 266.386-305.25 3.023-13.117-5.169-26.185-18.334-29.208-1.853-0.439-3.706-0.634-5.461-0.634zM536.425 614.669c-88.015 0-159.646 71.631-159.646 159.646s71.631 159.646 159.646 159.646c88.015 0 159.598-71.631 159.598-159.646s-71.582-159.646-159.598-159.646zM536.425 885.2c-61.147 0-110.885-49.737-110.885-110.885s49.737-110.885 110.885-110.885 110.836 49.737 110.836 110.885-49.688 110.885-110.836 110.885zM121.022 293.036c-12.434 0-23.016 9.411-24.235 22.040-13.8 143.067 45.105 282.575 157.55 373.224 10.581 8.485 25.844 6.778 34.28-3.657 8.436-10.484 6.827-25.844-3.657-34.28-99.621-80.311-151.845-203.922-139.654-330.606 1.317-13.361-8.533-25.356-21.943-26.624-0.78-0.049-1.56-0.098-2.341-0.098zM159.69 21.432c-61.586 0-116.59 34.377-143.555 89.722-38.571 79.092-5.608 174.86 73.484 213.431 22.040 10.776 45.544 16.189 69.876 16.189 61.586 0 116.638-34.377 143.604-89.673 18.676-38.327 21.358-81.676 7.461-122.002s-42.667-72.802-80.945-91.477c-22.040-10.728-45.544-16.189-69.925-16.189zM159.495 292.012c-16.872 0-33.207-3.803-48.469-11.215-54.955-26.819-77.873-93.33-51.054-148.285 26.185-53.638 94.208-77.483 148.285-51.054 26.624 13.019 46.616 35.547 56.222 63.586 9.655 27.989 7.802 58.075-5.169 84.699-18.822 38.376-57.051 62.269-99.816 62.269zM537.693-37.96c-44.812 0-90.014 7.070-133.998 21.406-12.776 4.242-19.749 17.993-15.555 30.769 4.145 12.824 18.042 19.7 30.769 15.604 121.563-39.985 253.659-16.335 353.329 62.903 10.581 8.338 25.893 6.68 34.28-3.901s6.632-25.893-3.901-34.28c-76.507-60.806-169.886-92.501-264.923-92.501zM880.586 20.603c-28.916 0-57.295 7.899-82.164 22.821-75.386 45.349-99.913 143.604-54.613 219.038 28.721 47.738 81.189 77.434 137.021 77.434 28.867 0 57.246-7.899 82.115-22.821 36.523-21.943 62.318-56.808 72.655-98.206s3.901-84.309-18.042-120.881c-28.77-47.738-81.237-77.385-136.972-77.385zM880.83 291.134c-39.4 0-74.947-20.090-95.183-53.784-31.5-52.37-14.434-120.686 37.937-152.137 51.005-30.72 121.563-12.971 152.137 37.937 15.262 25.405 19.7 55.15 12.581 83.919-7.168 28.77-25.112 52.955-50.469 68.169-17.31 10.386-37.010 15.896-57.003 15.896z" />
<glyph unicode="&#xe911;" glyph-name="pause" data-tags="pause" d="M391.529-64h-240.941c-16.625 0-30.118 13.493-30.118 30.118v963.765c0 16.625 13.493 30.118 30.118 30.118h240.941c16.625 0 30.118-13.493 30.118-30.118v-963.765c0-16.625-13.493-30.118-30.118-30.118zM180.706-3.765h180.706v903.529h-180.706v-903.529zM873.412-64h-240.941c-16.625 0-30.118 13.493-30.118 30.118v963.765c0 16.625 13.493 30.118 30.118 30.118h240.941c16.625 0 30.118-13.493 30.118-30.118v-963.765c0-16.625-13.493-30.118-30.118-30.118zM662.588-3.765h180.706v903.529h-180.706v-903.529z" />
<glyph unicode="&#xe912;" glyph-name="checkbox" data-tags="checkbox" d="M889.263-64h-754.526c-74.267 0-134.737 60.416-134.737 134.737v754.526c0 74.267 60.47 134.737 134.737 134.737h754.526c74.321 0 134.737-60.47 134.737-134.737v-754.526c0-74.321-60.416-134.737-134.737-134.737zM134.737 906.105c-44.571 0-80.842-36.271-80.842-80.842v-754.526c0-44.571 36.271-80.842 80.842-80.842h754.526c44.571 0 80.842 36.271 80.842 80.842v754.526c0 44.571-36.271 80.842-80.842 80.842h-754.526z" />
<glyph unicode="&#xe913;" glyph-name="user" data-tags="user" d="M950.857-76.19c-13.458 0-24.381 10.923-24.381 24.381v109.714c0 107.569-87.479 195.048-195.048 195.048h-438.857c-107.569 0-195.048-87.479-195.048-195.048v-109.714c0-13.458-10.923-24.381-24.381-24.381s-24.381 10.923-24.381 24.381v109.714c0 134.437 109.373 243.81 243.81 243.81h438.857c134.437 0 243.81-109.373 243.81-243.81v-109.714c0-13.458-10.923-24.381-24.381-24.381zM512 472.381c-134.437 0-243.81 109.373-243.81 243.81s109.373 243.81 243.81 243.81 243.81-109.373 243.81-243.81-109.373-243.81-243.81-243.81zM512 911.238c-107.569 0-195.048-87.479-195.048-195.048s87.479-195.048 195.048-195.048c107.569 0 195.048 87.479 195.048 195.048s-87.479 195.048-195.048 195.048z" />
<glyph unicode="&#xe914;" glyph-name="unlock" data-tags="unlock" horiz-adv-x="926" d="M804.342-64h-682.472c-67.175 0-121.87 54.646-121.87 121.87v341.236c0 67.175 54.695 121.87 121.87 121.87h682.472c67.223 0 121.87-54.695 121.87-121.87v-341.236c0-67.223-54.646-121.87-121.87-121.87zM121.87 472.228c-40.315 0-73.122-32.807-73.122-73.122v-341.236c0-40.315 32.807-73.122 73.122-73.122h682.472c40.315 0 73.122 32.807 73.122 73.122v341.236c0 40.315-32.807 73.122-73.122 73.122h-682.472zM219.366 472.228c-13.454 0-24.374 10.92-24.374 24.374v194.992c-0.146 138.298 103.541 253.099 241.156 266.993 137.421 13.991 262.167-77.851 289.709-213.37 2.681-13.211-5.801-26.080-19.012-28.761-12.967-2.584-26.031 5.801-28.761 19.012-22.522 110.902-124.454 185.974-237.013 174.615-112.608-11.358-197.429-105.296-197.332-218.488v-194.992c0-13.454-10.92-24.374-24.374-24.374z" />
<glyph unicode="&#xe915;" glyph-name="law" data-tags="law" horiz-adv-x="593" d="M350.316 259.368c-14.875 0-26.947 12.072-26.947 26.947s12.072 26.947 26.947 26.947c169.068 0 188.632 76.908 188.632 134.737s-19.564 134.737-188.632 134.737h-161.684c-123.419 0-188.632 65.213-188.632 188.632s65.213 188.632 188.632 188.632h323.368c14.875 0 26.947-12.072 26.947-26.947s-12.072-26.947-26.947-26.947h-323.368c-93.184 0-134.737-41.553-134.737-134.737s41.553-134.737 134.737-134.737h161.684c200.488 0 242.526-102.562 242.526-188.632s-42.038-188.632-242.526-188.632zM404.211-64h-323.368c-14.875 0-26.947 12.072-26.947 26.947s12.072 26.947 26.947 26.947h323.368c93.184 0 134.737 41.553 134.737 134.737s-41.553 134.737-134.737 134.737h-161.684c-200.435 0-242.526 102.562-242.526 188.632s42.092 188.632 242.526 188.632c14.875 0 26.947-12.072 26.947-26.947s-12.072-26.947-26.947-26.947c-169.068 0-188.632-76.908-188.632-134.737s19.564-134.737 188.632-134.737h161.684c123.419 0 188.632-65.213 188.632-188.632s-65.213-188.632-188.632-188.632z" />
<glyph unicode="&#xe916;" glyph-name="triangle-rounded" data-tags="triangle-rounded" horiz-adv-x="598" d="M28.908 931.378c-18.504-18.504-27.626-42.54-28.26-66.75-0.098-0.832-0.646-1.38-0.646-2.312 0.186-54.682 0-785.346 0.36-828.808 0-0.186 0.274-0.46 0.274-0.646 0.086-24.77 9.582-49.538 28.348-68.316 38.116-38.116 99.896-38.028 138.012 0.086l391.294 391.294c50.918 50.918 51.004 133.128 0.086 184.044l-391.48 391.48c-38.092 38.128-99.882 38.030-137.986-0.074z" />
<glyph unicode="&#xe917;" glyph-name="info" data-tags="info" d="M512-64c-282.317 0-512 229.683-512 512s229.683 512 512 512 512-229.683 512-512-229.683-512-512-512zM512 919.040c-259.727 0-471.040-211.313-471.040-471.040 0-259.748 211.313-471.040 471.040-471.040 259.748 0 471.040 211.292 471.040 471.040 0 259.727-211.292 471.040-471.040 471.040zM486.994 627.384c-4.424 0-7.311 2.949-7.311 7.352v53.617c0 4.403 2.908 7.352 7.311 7.352h49.951c4.424 0 7.352-2.949 7.352-7.352v-53.617c0-4.403-2.99-7.352-7.352-7.352h-49.951zM488.489 196.239c-4.403 0-7.332 2.929-7.332 7.311v337.162c0 4.403 2.949 7.352 7.332 7.352h46.981c4.444 0 7.352-2.949 7.352-7.352v-337.142c0-4.403-2.97-7.311-7.352-7.311h-46.981z" />
<glyph unicode="&#xe918;" glyph-name="badge" data-tags="badge" horiz-adv-x="1029" d="M1022.474 448.002c0-17.333-34.575-32.71-36.33-49.581-1.787-17.205 28.852-39.386 25.333-56.013-3.574-16.889-40.591-24.742-45.851-40.939-5.32-16.389 20-44.49 13.054-60.068-7.006-15.711-44.847-15.652-53.402-30.437-8.605-14.868 10.3-47.638 0.234-61.471-10.098-13.874-47.097-5.956-58.561-18.68-11.473-12.733 0.243-48.71-12.495-60.183-12.719-11.464-47.285 3.927-61.159-6.167-13.833-10.066-9.814-47.693-24.683-56.298-14.79-8.554-45.393 13.677-61.099 6.671-15.578-6.946-19.496-44.586-35.885-49.91-16.197-5.255-41.471 22.882-58.355 19.308-16.628-3.519-28.33-39.51-45.53-41.296-16.87-1.75-35.739 31.028-53.072 31.028s-36.201-32.779-53.072-31.028c-17.205 1.787-28.907 37.778-45.535 41.296-16.889 3.574-42.162-24.568-58.359-19.308-16.385 5.32-20.307 42.96-35.885 49.91-15.711 7.006-46.318-15.226-61.104-6.667-14.868 8.6-10.854 46.227-24.683 56.293-13.874 10.098-48.435-5.292-61.159 6.172-12.733 11.473-1.022 47.45-12.495 60.188-11.459 12.719-48.463 4.806-58.561 18.68-10.066 13.833 8.838 46.598 0.238 61.466-8.554 14.786-46.396 14.731-53.402 30.442-6.946 15.578 18.373 43.674 13.054 60.059-5.255 16.197-42.277 24.055-45.846 40.939-3.519 16.628 27.12 38.809 25.333 56.009-1.75 16.87-36.33 32.247-36.33 49.581s34.579 32.71 36.33 49.581c1.787 17.205-28.852 39.386-25.333 56.013 3.574 16.889 40.591 24.742 45.851 40.939 5.324 16.389-20 44.485-13.054 60.068 7.006 15.711 44.852 15.656 53.406 30.442 8.6 14.868-10.305 47.633-0.238 61.466 10.098 13.874 47.102 5.961 58.561 18.685 11.473 12.733-0.238 48.71 12.495 60.183 12.724 11.459 47.28-3.927 61.159 6.167 13.828 10.066 9.814 47.693 24.683 56.293 14.786 8.554 45.393-13.672 61.099-6.671 15.578 6.946 19.5 44.586 35.885 49.906 16.197 5.255 41.471-22.882 58.355-19.308 16.628 3.519 28.33 39.51 45.53 41.296 16.87 1.75 35.739-31.028 53.072-31.028s36.201 32.779 53.072 31.028c17.205-1.787 28.907-37.778 45.535-41.296 16.889-3.574 42.162 24.568 58.359 19.308 16.389-5.324 20.307-42.96 35.885-49.91 15.711-7.006 46.314 15.226 61.099 6.671 14.873-8.6 10.854-46.231 24.687-56.298 13.874-10.098 48.435 5.292 61.159-6.172 12.733-11.473 1.022-47.45 12.495-60.188 11.459-12.719 48.463-4.806 58.561-18.68 10.066-13.833-8.843-46.598-0.238-61.471 8.554-14.786 46.396-14.726 53.402-30.437 6.946-15.578-18.373-43.674-13.054-60.064 5.255-16.197 42.277-24.055 45.846-40.939 3.519-16.628-27.12-38.809-25.333-56.009 1.75-16.861 36.33-32.238 36.33-49.571zM566.426-64c-10.832 0-20.664 8.719-30.167 17.159-7.359 6.534-15.707 13.938-21.581 13.938s-14.222-7.404-21.585-13.938c-10.098-8.967-20.751-18.254-32.192-17.054-11.885 1.237-20.311 12.628-28.463 23.647-5.755 7.78-12.279 16.596-17.782 17.759-0.518 0.11-1.095 0.17-1.704 0.17-5.824 0-14.14-4.724-22.181-9.287-9.521-5.402-19.363-10.987-28.683-10.992-2.277 0-4.458 0.334-6.493 0.994-11.313 3.675-17.164 16.55-22.813 29.003-4.014 8.838-8.564 18.859-13.746 21.168-1.178 0.527-2.722 0.793-4.582 0.793-5.64 0-13.242-2.396-20.586-4.71-8.312-2.621-16.903-5.333-24.618-5.333-4.591 0-8.619 0.981-11.959 2.914-10.259 5.938-13.287 19.72-16.215 33.045-2.089 9.507-4.454 20.279-9.068 23.638-2.144 1.562-5.846 2.318-11.322 2.318-4.312 0-9.045-0.458-14.053-0.944-5.109-0.49-10.392-1.003-15.358-1.003-6.030 0-14.772 0.651-20.985 6.25-8.783 7.913-8.893 22.002-8.999 35.629-0.078 9.75-0.16 20.806-4 25.063-3.83 4.247-14.804 5.48-24.486 6.57-13.553 1.526-27.56 3.097-34.529 12.669-6.942 9.539-4.137 23.326-1.425 36.66 1.947 9.572 4.156 20.421 1.269 25.407-2.85 4.926-13.306 8.403-22.529 11.468-12.962 4.312-26.364 8.77-31.203 19.615-4.788 10.745 0.82 23.624 6.245 36.078 3.913 8.971 8.339 19.143 6.552 24.66-1.746 5.375-11.212 10.942-19.565 15.858-11.803 6.942-24.004 14.121-26.47 25.782-2.424 11.459 5.737 22.854 13.627 33.869 5.723 7.986 12.206 17.040 11.597 22.854-0.577 5.572-8.655 12.962-15.78 19.482-10.131 9.255-20.596 18.836-20.596 30.804s10.465 21.544 20.586 30.809c7.129 6.52 15.203 13.915 15.78 19.482 0.605 5.819-5.879 14.873-11.597 22.859-7.89 11.015-16.046 22.405-13.622 33.869 2.47 11.661 14.671 18.841 26.47 25.782 8.353 4.916 17.819 10.483 19.565 15.858 1.792 5.517-2.639 15.688-6.548 24.664-5.425 12.454-11.033 25.333-6.245 36.078 4.838 10.845 18.24 15.303 31.203 19.615 9.223 3.065 19.679 6.543 22.529 11.468 2.887 4.99 0.678 15.84-1.269 25.407-2.712 13.333-5.521 27.12 1.425 36.66 6.969 9.572 20.98 11.148 34.529 12.669 9.682 1.086 20.655 2.318 24.486 6.57 3.84 4.261 3.922 15.313 4 25.067 0.105 13.622 0.215 27.711 8.999 35.624 6.213 5.599 14.951 6.245 20.98 6.245 4.962 0 10.25-0.509 15.358-1.003 5.008-0.486 9.741-0.944 14.053-0.944 5.471 0 9.173 0.761 11.322 2.318 4.614 3.359 6.978 14.131 9.068 23.638 2.928 13.329 5.956 27.111 16.22 33.049 3.34 1.934 7.363 2.914 11.954 2.914 7.711 0 16.307-2.712 24.618-5.333 7.349-2.318 14.946-4.715 20.586-4.715 1.865 0 3.404 0.266 4.582 0.793 5.182 2.309 9.732 12.325 13.746 21.168 5.654 12.449 11.501 25.324 22.813 28.999 2.030 0.66 4.211 0.994 6.488 0.994 9.32 0 19.161-5.59 28.683-10.992 8.903-5.054 18.405-10.254 23.885-9.123 5.503 1.164 12.027 9.984 17.782 17.759 8.151 11.019 16.582 22.415 28.458 23.647 11.423 1.187 22.098-8.087 32.197-17.054 7.363-6.534 15.707-13.938 21.585-13.938 5.874 0 14.222 7.404 21.581 13.938 10.103 8.967 20.724 18.231 32.197 17.054 11.885-1.237 20.311-12.628 28.463-23.647 5.755-7.78 12.279-16.596 17.782-17.759 0.518-0.11 1.095-0.165 1.704-0.165 5.824 0 14.135 4.724 22.181 9.287 9.521 5.402 19.363 10.992 28.683 10.992 2.277 0 4.458-0.334 6.488-0.994 11.317-3.675 17.164-16.55 22.818-29.003 4.014-8.838 8.564-18.854 13.746-21.164 1.178-0.527 2.722-0.793 4.582-0.793 5.64 0 13.242 2.396 20.586 4.715 8.312 2.621 16.907 5.333 24.618 5.333 4.591 0 8.614-0.981 11.954-2.914 10.263-5.934 13.292-19.72 16.22-33.049 2.089-9.507 4.454-20.279 9.068-23.638 2.144-1.562 5.846-2.318 11.322-2.318 4.307 0 9.040 0.458 14.048 0.939 5.109 0.495 10.396 1.003 15.358 1.003 6.030 0 14.772-0.646 20.985-6.245 8.783-7.913 8.893-22.002 8.999-35.629 0.078-9.75 0.16-20.802 4-25.063 3.83-4.252 14.804-5.48 24.486-6.57 13.553-1.526 27.56-3.097 34.529-12.669 6.942-9.539 4.137-23.326 1.425-36.66-1.947-9.572-4.156-20.421-1.269-25.411 2.85-4.926 13.306-8.399 22.529-11.468 12.962-4.307 26.364-8.765 31.203-19.61 4.788-10.745-0.82-23.624-6.245-36.078-3.913-8.971-8.344-19.148-6.552-24.66 1.746-5.375 11.212-10.946 19.569-15.858 11.798-6.942 24-14.121 26.465-25.778 2.424-11.464-5.732-22.854-13.622-33.869-5.723-7.986-12.206-17.035-11.597-22.85 0.577-5.572 8.655-12.967 15.78-19.487 10.117-9.26 20.586-18.836 20.586-30.809 0-11.968-10.465-21.544-20.586-30.809-7.125-6.52-15.203-13.915-15.78-19.482-0.605-5.819 5.879-14.868 11.597-22.854 7.89-11.015 16.046-22.405 13.622-33.869-2.47-11.661-14.671-18.841-26.47-25.782-8.353-4.916-17.819-10.483-19.565-15.858-1.792-5.517 2.639-15.688 6.548-24.664 5.425-12.458 11.038-25.338 6.245-36.082-4.838-10.845-18.236-15.299-31.203-19.61-9.223-3.065-19.679-6.543-22.529-11.468-2.887-4.99-0.678-15.84 1.269-25.411 2.712-13.333 5.517-27.12-1.425-36.66-6.969-9.572-20.976-11.143-34.524-12.664-9.682-1.086-20.655-2.318-24.49-6.57-3.835-4.261-3.922-15.313-4-25.063-0.105-13.627-0.215-27.716-8.999-35.629-6.213-5.599-14.951-6.245-20.985-6.245-4.967 0-10.25 0.513-15.363 1.008-5.008 0.481-9.741 0.944-14.048 0.944-5.471 0-9.173-0.761-11.322-2.318-4.614-3.359-6.978-14.131-9.068-23.638-2.928-13.329-5.956-27.111-16.22-33.049-3.34-1.934-7.363-2.914-11.954-2.914-7.711 0-16.307 2.712-24.618 5.333-7.349 2.318-14.942 4.715-20.586 4.715-1.865 0-3.404-0.266-4.582-0.793-5.182-2.309-9.732-12.325-13.746-21.168-5.654-12.449-11.501-25.324-22.813-29.003-2.030-0.66-4.211-0.994-6.488-0.994-9.32 0-19.166 5.59-28.687 10.992-8.041 4.568-16.357 9.287-22.181 9.287-0.619 0-1.178-0.055-1.704-0.165-5.503-1.164-12.027-9.979-17.782-17.759-8.151-11.019-16.582-22.415-28.458-23.647-0.66-0.082-1.338-0.119-2.016-0.119zM412.942-8.578c1.567 0 3.097-0.156 4.55-0.467 10.607-2.241 18.424-12.811 25.988-23.033 6.085-8.22 12.98-17.539 18.836-18.149 0.202-0.023 0.376-0.009 0.609-0.032 5.613 0 13.81 7.276 21.045 13.691 9.64 8.559 19.61 17.402 30.708 17.402s21.067-8.848 30.708-17.402c7.501-6.653 15.913-14.277 21.659-13.659 5.851 0.605 12.747 9.929 18.832 18.149 7.56 10.222 15.377 20.793 25.984 23.033 1.452 0.307 2.983 0.463 4.55 0.463 9.452 0 19.372-5.631 28.967-11.079 7.968-4.522 16.211-9.2 21.901-9.2 0.843 0 1.576 0.105 2.245 0.321 5.549 1.805 10.328 12.325 14.543 21.608 5.269 11.606 10.722 23.606 20.664 28.041 2.992 1.333 6.323 1.984 10.181 1.984 7.757 0 16.38-2.722 24.724-5.352 7.317-2.309 14.887-4.696 20.481-4.696 2.176 0 3.83 0.348 5.072 1.063 5.017 2.905 7.491 14.163 9.672 24.101 2.74 12.476 5.572 25.379 14.405 31.803 4.641 3.377 10.809 4.953 19.409 4.953 4.971 0 10.259-0.513 15.372-1.008 5.008-0.481 9.736-0.944 14.039-0.944 5.901 0 9.755 0.889 11.78 2.712 4.293 3.863 4.38 15.368 4.458 25.521 0.096 12.793 0.202 26.021 7.533 34.158 7.322 8.128 20.458 9.604 33.164 11.029 10.098 1.136 21.544 2.419 24.944 7.097 3.381 4.641 1.090 15.899-0.93 25.833-2.552 12.554-5.196 25.535 0.302 35.033 5.462 9.439 17.984 13.604 30.089 17.631 9.663 3.212 20.614 6.854 22.983 12.165 2.328 5.214-2.25 15.725-6.291 24.994-5.123 11.762-10.419 23.927-7.024 34.401 3.354 10.332 14.699 17.003 25.672 23.459 8.802 5.178 18.781 11.047 19.995 16.783 1.168 5.535-5.485 14.827-11.354 23.019-7.491 10.46-15.239 21.278-14.098 32.279 1.123 10.763 10.809 19.629 20.174 28.201 7.556 6.914 16.119 14.754 16.119 20.669s-8.564 13.75-16.119 20.669c-9.37 8.573-19.056 17.439-20.174 28.206-1.145 11.001 6.602 21.814 14.098 32.275 5.869 8.197 12.522 17.484 11.349 23.019-1.21 5.732-11.184 11.601-19.991 16.779-10.974 6.456-22.314 13.127-25.672 23.459-3.4 10.474 1.901 22.634 7.024 34.396 4.037 9.269 8.614 19.775 6.291 24.99-2.369 5.31-13.32 8.953-22.983 12.165-12.11 4.023-24.628 8.188-30.089 17.626-5.498 9.503-2.859 22.483-0.302 35.038 2.021 9.929 4.312 21.187 0.93 25.828-3.404 4.678-14.85 5.961-24.948 7.097-12.701 1.43-25.837 2.9-33.159 11.029-7.331 8.137-7.436 21.365-7.533 34.158-0.078 10.153-0.17 21.659-4.454 25.521-2.025 1.824-5.879 2.712-11.785 2.712-4.302 0-9.031-0.458-14.034-0.939-5.113-0.495-10.401-1.003-15.368-1.003-8.6 0-14.772 1.572-19.413 4.953-8.834 6.428-11.665 19.326-14.405 31.803-2.186 9.934-4.655 21.196-9.677 24.101-1.242 0.719-2.9 1.068-5.072 1.068-5.594 0-13.164-2.387-20.481-4.696-8.339-2.63-16.962-5.347-24.724-5.347-3.803 0-7.23 0.669-10.181 1.984-9.943 4.435-15.391 16.431-20.66 28.037-4.215 9.283-8.994 19.807-14.547 21.613-0.664 0.215-1.397 0.321-2.241 0.321-5.691 0-13.934-4.678-21.897-9.2-9.594-5.443-19.519-11.079-28.967-11.079-1.567 0-3.097 0.156-4.55 0.467-10.607 2.241-18.424 12.811-25.988 23.033-6.085 8.22-12.98 17.539-18.832 18.149-5.819 0.66-14.158-7.010-21.654-13.659-9.64-8.559-19.61-17.402-30.708-17.402s-21.067 8.848-30.708 17.402c-7.501 6.653-15.936 14.318-21.654 13.659-5.851-0.609-12.747-9.929-18.832-18.149-7.56-10.222-15.377-20.793-25.984-23.033-1.452-0.307-2.983-0.463-4.55-0.463-9.452 0-19.372 5.631-28.967 11.079-7.968 4.522-16.206 9.2-21.897 9.2-0.843 0-1.576-0.105-2.241-0.321-5.549-1.801-10.328-12.325-14.547-21.608-5.269-11.606-10.722-23.601-20.664-28.037-2.992-1.333-6.323-1.984-10.181-1.984-7.757 0-16.385 2.722-24.724 5.347-7.322 2.309-14.887 4.696-20.481 4.696-2.176 0-3.83-0.348-5.072-1.068-5.022-2.905-7.496-14.163-9.677-24.101-2.74-12.476-5.576-25.374-14.405-31.803-4.646-3.377-10.809-4.953-19.409-4.953-4.971 0-10.259 0.509-15.372 1.003-5.003 0.486-9.736 0.944-14.034 0.944-5.901 0-9.755-0.889-11.78-2.712-4.289-3.863-4.376-15.368-4.454-25.516-0.101-12.793-0.202-26.021-7.537-34.158-7.322-8.128-20.458-9.604-33.164-11.033-10.098-1.132-21.544-2.419-24.948-7.093-3.381-4.646-1.090-15.899 0.935-25.833 2.552-12.55 5.196-25.53-0.302-35.033-5.462-9.443-17.984-13.608-30.089-17.631-9.663-3.216-20.618-6.859-22.987-12.169-2.323-5.214 2.254-15.72 6.291-24.994 5.123-11.762 10.419-23.927 7.019-34.401-3.354-10.332-14.699-17.003-25.672-23.459-8.802-5.178-18.781-11.047-19.995-16.783-1.168-5.535 5.485-14.827 11.354-23.019 7.491-10.46 15.239-21.278 14.098-32.279-1.118-10.767-10.804-19.629-20.174-28.206-7.574-6.905-16.137-14.744-16.137-20.655 0-5.915 8.564-13.755 16.124-20.669 9.365-8.573 19.056-17.439 20.174-28.201 1.145-11.001-6.602-21.819-14.098-32.275-5.869-8.197-12.522-17.484-11.349-23.019 1.21-5.732 11.189-11.601 19.991-16.783 10.974-6.451 22.318-13.127 25.672-23.459 3.4-10.474-1.901-22.634-7.024-34.396-4.037-9.269-8.614-19.775-6.291-24.99 2.369-5.31 13.32-8.958 22.983-12.169 12.11-4.027 24.628-8.192 30.089-17.631 5.498-9.503 2.859-22.479 0.302-35.033-2.021-9.929-4.312-21.187-0.93-25.833 3.404-4.678 14.85-5.961 24.948-7.097 12.701-1.43 25.837-2.9 33.159-11.029 7.331-8.137 7.436-21.365 7.533-34.158 0.078-10.153 0.17-21.659 4.454-25.521 2.025-1.824 5.883-2.712 11.785-2.712 4.302 0 9.031 0.458 14.034 0.944 5.113 0.495 10.401 1.003 15.372 1.003 8.6 0 14.767-1.572 19.409-4.953 8.834-6.428 11.665-19.331 14.405-31.803 2.186-9.934 4.655-21.191 9.672-24.096 1.242-0.719 2.9-1.068 5.077-1.068 5.594 0 13.164 2.387 20.481 4.696 8.339 2.63 16.962 5.347 24.724 5.347 3.803 0 7.23-0.669 10.181-1.984 9.943-4.435 15.391-16.431 20.664-28.041 4.215-9.283 8.994-19.807 14.547-21.608 0.669-0.215 1.397-0.321 2.241-0.321 5.691 0 13.934 4.678 21.901 9.2 9.594 5.448 19.519 11.079 28.967 11.079z" />
<glyph unicode="&#xe919;" glyph-name="strengths" data-tags="strengths" horiz-adv-x="1758" d="M0 514.91h89.97v-120.496h-89.97v120.496zM1666.964 514.91h89.97v-120.496h-89.97v120.496zM1339.298 509.42h-921.658v450.582h-122.986v-1024h122.986v450.582h921.658v-450.582h122.912v1024h-122.912zM89.97 755.244h122.912v-614.488h-122.912v614.488zM1544.126 755.244h122.912v-614.488h-122.912v614.488z" />
<glyph unicode="&#xe91a;" glyph-name="stairs" data-tags="stairs" horiz-adv-x="1164" d="M889.314 517.038v239.236h239.284c19.136 0 34.156 15.020 34.156 34.156 0 19.186-15.068 34.204-34.156 34.204h-273.442c-19.184 0-34.204-15.020-34.204-34.204v-239.236h-239.236c-19.138 0-34.204-15.068-34.204-34.204v-239.284h-239.284c-19.138 0-34.204-15.020-34.204-34.156v-239.236h-239.236c-19.138 0-34.204-15.068-34.204-34.204s15.068-34.204 34.204-34.204h273.442c19.138 0 34.204 15.068 34.204 34.204v239.284h239.286c19.136 0 34.204 15.068 34.204 34.204v239.236h239.236c19.138 0 34.156 15.068 34.156 34.204zM34.834 482.834c8.188 0 17.78 2.762 24.612 9.594l351.346 352.702v-191.418c0-19.138 15.020-34.204 34.156-34.204s34.204 15.068 34.204 34.204v273.44c0 2.714 0 4.070 0 6.83 0 1.356 0 1.356-1.358 2.714 0 1.356 0 2.762-1.358 2.762 0 1.356-1.358 2.714-1.358 2.714 0 1.356-1.358 1.356-1.358 2.762-2.762 4.070-5.476 6.83-9.594 9.544-1.358 0-1.358 1.358-2.714 1.358s-2.762 1.358-2.762 1.358c-1.358 0-2.714 1.356-4.070 1.356s-1.358 0-2.762 1.356c-2.714 0-4.070 0-6.832 0h-273.44c-19.138 0-34.204-15.068-34.204-34.204s15.068-34.204 34.204-34.204h191.418l-352.702-349.988c-13.662-13.662-13.662-35.512 0-47.818 6.83-8.092 16.376-10.852 24.564-10.852z" />
<glyph unicode="&#xe91b;" glyph-name="shield" data-tags="shield" horiz-adv-x="829" d="M414.476-64c-3.755 0-7.461 0.878-10.923 2.584-16.482 8.241-403.554 205.288-403.554 509.416v390.095c0 11.166 7.607 20.919 18.481 23.65l390.095 97.524c3.852 1.024 7.948 1.024 11.8 0l390.095-97.524c10.874-2.731 18.481-12.483 18.481-23.65v-390.095c0-304.128-387.072-501.175-403.554-509.416-3.462-1.707-7.168-2.584-10.923-2.584zM48.762 819.029v-371.029c0-247.613 303.787-426.179 365.714-460.020 61.879 33.841 365.714 212.699 365.714 460.020v371.029l-365.714 91.429-365.714-91.429z" />
<glyph unicode="&#xe91c;" glyph-name="lock" data-tags="lock" horiz-adv-x="930" d="M797.782 531.318h-59.546v154.812c0 151.026-122.842 273.87-273.87 273.87s-273.87-122.844-273.87-273.87v-154.812h-59.51c-72.228 0-130.986-58.76-130.986-130.952v-333.414c0-72.192 58.76-130.952 130.986-130.952h666.794c72.192 0 130.952 58.76 130.952 130.952v333.38c0 72.226-58.76 130.986-130.952 130.986zM261.94 686.13c0 111.628 90.802 202.428 202.428 202.428s202.428-90.802 202.428-202.428v-154.776l-404.856-0.036v154.812zM857.292 66.952c0-32.826-26.682-59.51-59.51-59.51h-666.794c-32.826 0-59.546 26.682-59.546 59.51v333.414c0 32.79 26.718 59.51 59.546 59.51h666.794c32.826 0 59.51-26.72 59.51-59.546v-333.38z" />
<glyph unicode="&#xe91d;" glyph-name="pause-thin" data-tags="pause-thin" horiz-adv-x="774" d="M0 960v-1024h274.726v1024h-274.726zM249.758-39.030h-224.788v974.028h224.788v-974.028zM499.484 960v-1024h274.758v1024h-274.76zM749.274-39.030h-224.788v974.028h224.788v-974.028z" />
<glyph unicode="&#xe91e;" glyph-name="messenger" data-tags="messenger" d="M562.88 321.583l-130.384 139.057-254.407-139.057 279.848 297.089 133.567-139.063 251.231 139.063-279.855-297.089zM512 960c-282.768 0-512-212.249-512-474.072 0-149.193 74.456-282.264 190.809-369.169v-180.759l174.328 95.68c46.528-12.872 95.816-19.824 146.864-19.824 282.768 0 512 212.249 512 474.072s-229.232 474.072-512 474.072z" />
<glyph unicode="&#xe91f;" glyph-name="coach" data-tags="coach" d="M556.522-64c-12.288 0-22.261 9.973-22.261 22.261v59.392c0 53.159-49.953 96.434-111.304 96.434h-267.13c-61.351 0-111.304-43.275-111.304-96.434v-59.392c0-12.288-9.973-22.261-22.261-22.261s-22.261 9.973-22.261 22.261v59.392c0 77.735 69.899 140.956 155.826 140.956h267.13c85.927 0 155.826-63.221 155.826-140.956v-59.392c0-12.288-9.973-22.261-22.261-22.261zM289.391 203.13c-85.927 0-155.826 69.899-155.826 155.826s69.899 155.826 155.826 155.826 155.826-69.899 155.826-155.826-69.899-155.826-155.826-155.826zM289.391 470.261c-61.351 0-111.304-49.909-111.304-111.304s49.953-111.304 111.304-111.304 111.304 49.909 111.304 111.304-49.953 111.304-111.304 111.304zM512 470.261c-3.027 0-6.099 0.623-8.993 1.914-8.058 3.562-13.267 11.531-13.267 20.346v395.754c0 39.58 34.415 71.725 76.711 71.725h380.883c42.296 0 76.711-32.189 76.711-71.725v-247.318c0-39.58-34.371-71.725-76.711-71.725h-317.885l-102.445-93.139c-4.185-3.829-9.572-5.832-15.004-5.832zM566.45 915.478c-17.72 0-32.189-12.199-32.189-27.203v-345.444l71.591 65.091c4.096 3.695 9.439 5.788 14.959 5.788h326.478c17.72 0 32.189 12.199 32.189 27.203v247.363c0 15.004-14.425 27.203-32.189 27.203h-380.839z" />
<glyph unicode="&#xe920;" glyph-name="circle-full" data-tags="circle-full" d="M1024 448c0-92.889-22.889-178.555-68.667-257s-107.889-140.555-186.333-186.333-164.111-68.667-257-68.667-178.555 22.889-257 68.667-140.555 107.889-186.333 186.333-68.667 164.111-68.667 257 22.889 178.555 68.667 257c45.778 78.445 107.889 140.555 186.333 186.333s164.111 68.667 257 68.667 178.555-22.889 257-68.667 140.555-107.889 186.333-186.333c45.778-78.445 68.667-164.111 68.667-257z" />
<glyph unicode="&#xe921;" glyph-name="circle-empty" data-tags="circle-empty" d="M512 960c-282.831 0-512-229.169-512-512s229.169-512 512-512c282.831 0 512 229.169 512 512s-229.169 512-512 512zM512-21.415c-258.708 0-469.415 210.462-469.415 469.415 0 258.708 210.462 469.415 469.415 469.415 258.708 0 469.415-210.462 469.415-469.415 0-258.708-210.708-469.415-469.415-469.415z" />
<glyph unicode="&#xe922;" glyph-name="KB" data-tags="KB" horiz-adv-x="1175" d="M292.757 241.975c-32.191-52.966-62.834-89.053-151.849-100.19-26.29-3.286-104.124-2.114-134.419-0.637-7.601 0.371-8.593 3.068-2.604 7.89 17.964 14.45 63.717 48.411 110.842 148.596 11.606 24.661 157.085 311.696 157.085 311.696l-209.447 350.671 209.447-33.395 113.828-172.554-0.812 157.521 201.143-33.389v-680.729l-198.963 41.835v148.394c0 4.582-15.719 37.977-13.6 34.653 0 0-74.549-170.32-80.651-180.362zM918.617 277.724l-73.966 16.695v-104.843l83.773-17.218c0 0 41.889 5.171 41.889 44.526 0 44.537-15.469 50.1-51.697 60.84zM918.372 517.062l-73.96 16.695v-104.843l93.701-16.695c0 0 32.202 4.659 32.202 44.014 0 50.090-15.714 50.090-51.942 60.829zM737.564 47.207c-65.705 8.26-94.523 34.948-94.523 93.488v463.055c0 58.535 34.523 93.488 94.523 93.488l220.268-33.4c80.548-18.367 198.081-56.791 198.081-176.493 0-45.431-17.267-88.23-43.562-123.178l-13.153-17.474 13.153-13.109c40.277-40.184 62.469-86.487 62.469-138.919 0-115.316-69.868-180.847-215.337-180.847l-221.919 33.389zM1048.857 33.215c0 0-26.268-47.485 14.646-72.342 15.229-9.257 12.75-16.068 1.052-22.285-11.088-5.895-47.627-0.425-65.351 3.64-81.25 18.624-149.326 96.545-149.326 96.545s189.276 4.103 198.98-5.558z" />
<glyph unicode="&#xe923;" glyph-name="circle-arrow" data-tags="circle-arrow" horiz-adv-x="438" d="M3.072-43.52c0-18.289 0 18.412 0-12.8-1.597 9.277 0 0 0 12.8-1.597 14.582 0 0-1.597 30.72v42.25c0 43.581 0 69.612 0 90.89 0 20.541 0 87.962 0 107.52 0 20.951 0 125.501 0 168.96v166.4c0 32.051 0 137.38 0 176.64 0 9.81 0 97.28 0 113.93 0 13.66 0 47.37 0 85.77zM0 919.040v40.96c39.219 0 55.91-1.577 74.445-6.984 16.261-4.669 31.293-12.493 44.585-23.204 14.991-12.001 25.887-24.76 48.374-56.873l224.645-320.389c26.952-38.42 36.925-57.405 42.619-81.285 5.038-21.094 4.854-41.554-0.492-62.525-6.001-23.675-16.241-42.516-43.827-80.609l-222.577-307.302c-22.753-31.396-33.669-43.889-48.579-55.583-13.087-10.363-27.955-17.961-44.155-22.548-18.186-5.202-34.673-6.697-73.441-6.697v40.96z" />
<glyph unicode="&#xe924;" glyph-name="edit" data-tags="edit" d="M636.75 787.445l208.305-208.303-527.277-527.277-208.187 208.303 527.159 527.277zM1003.117 837.683l-92.896 92.896c-35.901 35.901-94.197 35.901-130.22 0l-88.985-88.985 208.305-208.305 103.796 103.796c27.845 27.847 27.845 72.753 0 100.598zM0.581-32.618c-3.791-17.061 11.613-32.348 28.676-28.199l232.121 56.28-208.187 208.303-52.61-236.384z" />
<glyph unicode="&#xe925;" glyph-name="arrow-right" data-tags="arrow-right" horiz-adv-x="1463" d="M950.857-64c-18.725 0-37.449 7.168-51.712 21.431-28.599 28.599-28.599 74.825 0 103.424l387.145 387.145-387.145 387.145c-28.599 28.599-28.599 74.825 0 103.424s74.825 28.599 103.424 0l438.857-438.857c28.599-28.599 28.599-74.825 0-103.424l-438.857-438.857c-14.263-14.263-32.987-21.431-51.712-21.431zM1389.714 374.857h-1316.571c-40.375 0-73.143 32.695-73.143 73.143 0 40.375 32.768 73.143 73.143 73.143h1316.571c40.448 0 73.143-32.768 73.143-73.143 0-40.448-32.695-73.143-73.143-73.143z" />
<glyph unicode="&#xe926;" glyph-name="edit-u" data-tags="edit-u" horiz-adv-x="931" d="M232.727 168.727h-186.182c-25.693 0-46.545 20.806-46.545 46.545v186.182c0 12.381 4.887 24.204 13.638 32.908l512 512c18.199 18.199 47.616 18.199 65.815 0l186.182-186.182c18.199-18.199 18.199-47.616 0-65.815l-512-512c-8.704-8.751-20.573-13.638-32.908-13.638zM93.091 261.818h120.367l465.455 465.455-120.367 120.367-465.455-465.455v-120.367zM884.364-64h-837.818c-25.693 0-46.545 20.806-46.545 46.545s20.852 46.545 46.545 46.545h837.818c25.74 0 46.545-20.806 46.545-46.545s-20.806-46.545-46.545-46.545z" />
<glyph unicode="&#xe927;" glyph-name="video" data-tags="video" horiz-adv-x="1536" d="M896-64h-704c-105.856 0-192 86.144-192 192v640c0 105.856 86.144 192 192 192h704c105.856 0 192-86.144 192-192v-195.648l346.816 247.744c19.456 13.888 45.12 15.808 66.496 4.8 21.312-10.944 34.688-32.896 34.688-56.896v-640c0-24-13.376-45.952-34.688-56.96-21.376-10.816-47.040-9.152-66.496 4.864l-346.816 247.744v-195.648c0-105.856-86.144-192-192-192zM192 832c-35.264 0-64-28.736-64-64v-640c0-35.328 28.736-64 64-64h704c35.328 0 64 28.672 64 64v640c0 35.264-28.672 64-64 64h-704zM1134.144 448l273.856-195.648v391.296l-273.856-195.648z" />
<glyph unicode="&#xe928;" glyph-name="info-bold" data-tags="info-bold" d="M512-64c-282.298 0-512 229.702-512 512s229.702 512 512 512 512-229.702 512-512-229.702-512-512-512zM512 866.909c-230.959 0-418.909-187.951-418.909-418.909 0-231.005 187.951-418.909 418.909-418.909 231.005 0 418.909 187.904 418.909 418.909 0 230.959-187.904 418.909-418.909 418.909zM512 215.273c-25.693 0-46.545 20.806-46.545 46.545v186.182c0 25.693 20.852 46.545 46.545 46.545 25.74 0 46.545-20.852 46.545-46.545v-186.182c0-25.74-20.806-46.545-46.545-46.545zM512 587.636c-25.693 0-46.545 20.852-46.545 46.545v46.545c0 25.693 20.852 46.545 46.545 46.545 25.74 0 46.545-20.852 46.545-46.545v-46.545c0-25.693-20.806-46.545-46.545-46.545z" />
<glyph unicode="&#xe929;" glyph-name="subject1" data-tags="subject1" d="M714.105-23.579h-633.263c-22.285 0-40.421 18.136-40.421 40.421v134.737c0 22.285 18.136 40.421 40.421 40.421h633.263c22.285 0 40.421-18.136 40.421-40.421v-134.737c0-22.285-18.136-40.421-40.421-40.421zM80.842 165.053c-7.424 0-13.474-6.036-13.474-13.474v-134.737c0-7.437 6.050-13.474 13.474-13.474h633.263c7.437 0 13.474 6.036 13.474 13.474v134.737c0 7.437-6.036 13.474-13.474 13.474h-633.263zM896 43.789h-13.474c-48.29 0-87.579 39.289-87.579 87.579v94.316c0 48.29 39.289 87.579 87.579 87.579h13.474c48.29 0 87.579-39.289 87.579-87.579v-94.316c0-48.29-39.289-87.579-87.579-87.579zM882.526 286.316c-33.428 0-60.632-27.203-60.632-60.632v-94.316c0-33.428 27.203-60.632 60.632-60.632h13.474c33.428 0 60.632 27.203 60.632 60.632v94.316c0 33.428-27.203 60.632-60.632 60.632h-13.474zM673.684 43.789h-26.947c-7.451 0-13.474 6.023-13.474 13.474s6.023 13.474 13.474 13.474h26.947c7.451 0 13.474-6.023 13.474-13.474s-6.023-13.474-13.474-13.474zM600.536 43.789h-26.947c-7.451 0-13.474 6.023-13.474 13.474s6.023 13.474 13.474 13.474h26.947c7.451 0 13.474-6.023 13.474-13.474s-6.023-13.474-13.474-13.474zM525.474 43.789h-244.453c-7.437 0-13.474 6.023-13.474 13.474s6.036 13.474 13.474 13.474h244.453c7.451 0 13.474-6.023 13.474-13.474s-6.023-13.474-13.474-13.474zM234.833 43.789h-26.947c-7.437 0-13.474 6.023-13.474 13.474s6.036 13.474 13.474 13.474h26.947c7.437 0 13.474-6.023 13.474-13.474s-6.036-13.474-13.474-13.474zM161.684 43.789h-26.947c-7.437 0-13.474 6.023-13.474 13.474s6.036 13.474 13.474 13.474h26.947c7.437 0 13.474-6.023 13.474-13.474s-6.036-13.474-13.474-13.474zM673.684 97.684h-26.947c-7.451 0-13.474 6.023-13.474 13.474s6.023 13.474 13.474 13.474h26.947c7.451 0 13.474-6.023 13.474-13.474s-6.023-13.474-13.474-13.474zM600.536 97.684h-26.947c-7.451 0-13.474 6.023-13.474 13.474s6.023 13.474 13.474 13.474h26.947c7.451 0 13.474-6.023 13.474-13.474s-6.023-13.474-13.474-13.474zM527.4 97.684h-26.947c-7.437 0-13.474 6.023-13.474 13.474s6.036 13.474 13.474 13.474h26.947c7.451 0 13.474-6.023 13.474-13.474s-6.036-13.474-13.474-13.474zM454.252 97.684h-26.947c-7.437 0-13.474 6.023-13.474 13.474s6.036 13.474 13.474 13.474h26.947c7.437 0 13.474-6.023 13.474-13.474s-6.023-13.474-13.474-13.474zM381.117 97.684h-26.947c-7.437 0-13.474 6.023-13.474 13.474s6.036 13.474 13.474 13.474h26.947c7.437 0 13.474-6.023 13.474-13.474s-6.036-13.474-13.474-13.474zM307.968 97.684h-26.947c-7.437 0-13.474 6.023-13.474 13.474s6.036 13.474 13.474 13.474h26.947c7.437 0 13.474-6.023 13.474-13.474s-6.036-13.474-13.474-13.474zM234.833 97.684h-26.947c-7.437 0-13.474 6.023-13.474 13.474s6.036 13.474 13.474 13.474h26.947c7.437 0 13.474-6.023 13.474-13.474s-6.036-13.474-13.474-13.474zM161.684 97.684h-26.947c-7.437 0-13.474 6.023-13.474 13.474s6.036 13.474 13.474 13.474h26.947c7.437 0 13.474-6.023 13.474-13.474s-6.036-13.474-13.474-13.474zM889.263 178.526c-7.451 0-13.474 6.023-13.474 13.474v40.421c0 7.451 6.023 13.474 13.474 13.474s13.474-6.023 13.474-13.474v-40.421c0-7.451-6.023-13.474-13.474-13.474zM646.737 232.421h-269.474c-7.437 0-13.474 6.023-13.474 13.474s6.036 13.474 13.474 13.474h53.895v148.211h-242.526c-22.285 0-40.421 18.136-40.421 40.421v404.211c0 22.285 18.136 40.421 40.421 40.421h646.737c22.285 0 40.421-18.136 40.421-40.421v-404.211c0-22.285-18.136-40.421-40.421-40.421h-242.526v-148.211h53.895c7.451 0 13.474-6.023 13.474-13.474s-6.023-13.474-13.474-13.474zM458.105 259.368h107.789v148.211h-107.789v-148.211zM188.632 865.684c-7.424 0-13.474-6.050-13.474-13.474v-404.211c0-7.437 6.050-13.474 13.474-13.474h646.737c7.437 0 13.474 6.036 13.474 13.474v404.211c0 7.424-6.036 13.474-13.474 13.474h-646.737zM808.421 461.474h-26.947c-7.451 0-13.474 6.036-13.474 13.474s6.023 13.474 13.474 13.474h26.947c7.451 0 13.474-6.036 13.474-13.474s-6.023-13.474-13.474-13.474zM741.053 461.474h-26.947c-7.451 0-13.474 6.036-13.474 13.474s6.023 13.474 13.474 13.474h26.947c7.451 0 13.474-6.036 13.474-13.474s-6.023-13.474-13.474-13.474zM458.105 495.158c-1.886 0-3.8 0.391-5.619 1.226-6.75 3.112-9.715 11.116-6.616 17.88l127.016 276.211c3.085 6.75 11.062 9.715 17.866 6.616 6.764-3.112 9.728-11.116 6.602-17.88l-127.003-276.211c-2.277-4.931-7.155-7.842-12.248-7.842zM606.329 569.263c-4.621 0-9.108 2.371-11.614 6.629-3.773 6.413-1.644 14.673 4.77 18.445l84.723 49.947-85.8 62.289c-6.009 4.365-7.357 12.8-2.991 18.809 4.379 6.023 12.773 7.37 18.823 2.991l102.427-74.361c3.665-2.668 5.753-7.006 5.538-11.547-0.229-4.527-2.708-8.664-6.616-10.954l-102.427-60.376c-2.142-1.28-4.5-1.873-6.831-1.873zM412.295 569.263c-2.317 0-4.689 0.593-6.831 1.873l-102.413 60.376c-3.921 2.304-6.4 6.427-6.616 10.954-0.216 4.541 1.873 8.879 5.551 11.547l102.413 74.361c6.009 4.379 14.457 3.032 18.809-2.991 4.379-6.023 3.045-14.444-2.991-18.809l-85.787-62.289 84.709-49.947c6.413-3.773 8.542-12.045 4.77-18.445-2.506-4.258-7.006-6.629-11.614-6.629z" />
<glyph unicode="&#xe92a;" glyph-name="subject2" data-tags="subject2" d="M567.296-44.275h-326.171c-7.437 0-13.474 6.023-13.474 13.474s6.036 13.474 13.474 13.474h79.495c-0.889 1.805-1.401 3.827-1.401 5.969v160.728h-251.85c-22.285 0-40.421 18.136-40.421 40.421v433.368c0 22.285 18.136 40.421 40.421 40.421h673.684c22.285 0 40.421-18.136 40.421-40.421v-433.368c0-22.285-18.136-40.421-40.421-40.421h-264.408v-160.728c0-2.142-0.499-4.177-1.401-5.969h92.039c7.451 0 13.474-6.023 13.474-13.474s-6.023-13.474-13.46-13.474zM344.778-17.327h106.307c-0.889 1.805-1.401 3.827-1.401 5.969v160.728h-103.518v-160.728c0.013-2.142-0.485-4.163-1.388-5.969zM67.368 636.632c-7.424 0-13.474-6.050-13.474-13.474v-433.368c0-7.437 6.050-13.474 13.474-13.474h673.684c7.437 0 13.474 6.036 13.474 13.474v433.368c0 7.424-6.036 13.474-13.474 13.474h-673.684zM363.789 271.549h-229.053c-7.437 0-13.474 6.023-13.474 13.474s6.036 13.474 13.474 13.474h229.053c7.437 0 13.474-6.023 13.474-13.474s-6.036-13.474-13.474-13.474zM458.105 286.316c-1.738 0-3.49 0.323-5.16 1.024-5.026 2.075-8.313 7.006-8.313 12.45v203.601c0 21.464 17.462 38.925 38.925 38.925h178.163c21.45 0 38.912-17.462 38.912-38.925v-127.259c0-21.464-17.462-38.925-38.925-38.925h-147.119l-46.956-46.942c-2.573-2.573-6.023-3.948-9.526-3.948zM483.557 515.368c-6.616 0-11.978-5.363-11.978-11.978v-171.075l27.904 27.891c2.533 2.533 5.955 3.948 9.526 3.948h152.697c6.602 0 11.978 5.363 11.978 11.978v127.259c0 6.616-5.363 11.978-11.978 11.978h-178.149zM185.64 332.517h-50.904c-7.437 0-13.474 6.023-13.474 13.474v48.761c0 3.665 1.496 7.181 4.15 9.728l139.978 134.104c5.214 4.985 13.433 4.985 18.648 0l50.904-48.761c2.654-2.533 4.15-6.063 4.15-9.728s-1.496-7.195-4.15-9.728l-139.978-134.104c-2.506-2.412-5.848-3.746-9.324-3.746zM148.211 359.464h32.013l125.912 120.616-31.434 30.1-126.491-121.182v-29.534zM862.316 663.579c-14.861 0-26.947 12.086-26.947 26.947s12.086 26.947 26.947 26.947 26.947-12.086 26.947-26.947-12.086-26.947-26.947-26.947zM795.688 729.843c-3.476 0-6.952 1.334-9.593 4.002-5.228 5.295-5.174 13.824 0.135 19.065 17.799 17.57 43.264 27.648 69.861 27.648 26.57 0 52.008-10.078 69.834-27.648 5.309-5.228 5.349-13.757 0.135-19.052-5.228-5.309-13.757-5.349-19.052-0.135-12.813 12.638-31.367 19.887-50.904 19.887-19.564 0-38.131-7.249-50.931-19.887-2.641-2.573-6.063-3.88-9.485-3.88zM952.684 777.378c-3.247 0-6.481 1.159-9.081 3.517-22.393 20.413-54.312 32.121-87.552 32.121-33.213 0-65.118-11.709-87.525-32.121-5.511-5.026-14.013-4.621-19.038 0.889-5.012 5.497-4.621 14.026 0.876 19.038 27.311 24.886 65.846 39.155 105.688 39.155 39.882 0 78.403-14.269 105.715-39.155 5.497-5.012 5.901-13.541 0.876-19.038-2.654-2.924-6.292-4.406-9.957-4.406zM735.286 824.899c-3.53 0-7.047 1.374-9.701 4.123-5.174 5.349-5.012 13.878 0.337 19.052 34.291 33.064 80.519 51.294 130.156 51.294 49.664 0 95.865-18.23 130.115-51.308 5.349-5.174 5.497-13.703 0.323-19.052-5.133-5.349-13.703-5.511-19.038-0.323-29.197 28.2-68.756 43.736-111.4 43.736-42.631 0-82.216-15.535-111.441-43.749-2.614-2.52-5.982-3.773-9.351-3.773z" />
<glyph unicode="&#xe92b;" glyph-name="subject3" data-tags="subject3" d="M94.316 57.263c-2.681 0-5.336 0.808-7.613 2.358-3.665 2.506-5.861 6.669-5.861 11.116l0.189 522.186c0 5.551 3.409 10.536 8.596 12.557 0.795 0.31 19.793 7.653 50.189 17.085 7.101 2.223 14.646-1.765 16.856-8.879 2.21-7.101-1.765-14.646-8.879-16.856-17.691-5.484-31.542-10.294-39.815-13.285l-0.189-493.541c64.175 22.461 277.019 88.374 390.602 18.998 0.054 61.319 0.027 229.012-0.067 500.682 0 7.437 6.023 13.474 13.474 13.474v0c7.437 0 13.474-6.023 13.474-13.474 0.054-175.778 0.094-307.631 0.094-395.533l-0.027-98.91c0-2.25 0-4.365-0.013-6.387 113.219 69.659 326.616 3.611 390.858-18.863l-0.175 492.962c-8.569 3.085-23.094 8.125-41.674 13.837-7.114 2.183-11.102 9.728-8.92 16.842 2.196 7.101 9.715 11.089 16.842 8.906 31.488-9.688 51.267-17.327 52.089-17.637 5.187-2.008 8.61-7.006 8.61-12.557l0.202-521.607c0-4.446-2.196-8.61-5.861-11.116-3.665-2.52-8.34-3.045-12.504-1.442-2.91 1.132-292.271 111.764-402.109 15.373-1.267-1.954-3.126-2.681-5.888-3.786-4.77-1.913-10.227-0.916-14.053 2.533-108.84 98.87-400.613-12.962-403.55-14.107-1.576-0.633-3.22-0.93-4.877-0.93zM781.487 218.947c-0.808 0-1.617 0.067-2.439 0.229-57.762 10.523-138.752 20.197-196.568 6.467-7.208-1.738-14.484 2.735-16.222 9.984-1.725 7.235 2.749 14.498 9.984 16.222 62.343 14.848 147.348 4.837 207.643-6.184 7.316-1.334 12.167-8.34 10.833-15.67-1.172-6.494-6.845-11.048-13.231-11.048zM303.158 218.947v0c-4.931 0-9.459 2.681-11.816 7.020l-29.063 53.154-53.154 29.049c-4.325 2.371-7.020 6.899-7.020 11.83 0 4.918 2.681 9.459 7.006 11.816l53.167 29.076 29.063 53.14c4.716 8.664 18.904 8.664 23.633 0.013l29.103-53.154 53.127-29.076c4.325-2.358 7.006-6.899 7.006-11.816s-2.695-9.459-7.006-11.816l-53.127-29.063-29.090-53.167c-2.371-4.325-6.912-7.006-11.83-7.006zM243.658 320l35.005-19.119c2.264-1.24 4.123-3.099 5.363-5.363l19.133-35.018 19.16 35.032c1.24 2.25 3.099 4.123 5.349 5.336l34.991 19.133-34.991 19.16c-2.25 1.24-4.123 3.085-5.349 5.336l-19.16 35.018-19.133-35.005c-1.24-2.264-3.099-4.123-5.349-5.349l-35.018-19.16zM862.316 245.895c-1.523 0-3.072 0.256-4.581 0.808-1.738 0.633-173.743 61.939-274.378 30.801-7.128-2.183-14.659 1.792-16.856 8.879-2.196 7.101 1.779 14.659 8.879 16.856 109.339 33.9 284.133-28.524 291.517-31.192 7.006-2.533 10.617-10.253 8.098-17.246-1.994-5.497-7.168-8.906-12.679-8.906zM862.316 299.789c-1.523 0-3.072 0.256-4.581 0.808-1.738 0.633-173.743 61.952-274.378 30.801-7.128-2.196-14.659 1.779-16.856 8.879s1.779 14.659 8.879 16.856c109.339 33.9 284.133-28.524 291.517-31.192 7.006-2.533 10.617-10.253 8.098-17.246-1.994-5.497-7.168-8.906-12.679-8.906zM848.842 488.421c-7.451 0-13.474 6.036-13.474 13.474 0 178.297-145.071 323.368-323.368 323.368s-323.368-145.071-323.368-323.368c0-7.437-6.036-13.474-13.474-13.474s-13.474 6.036-13.474 13.474c0 193.159 157.157 350.316 350.316 350.316 193.172 0 350.316-157.157 350.316-350.316 0-7.437-6.023-13.474-13.474-13.474zM768 488.421c-7.451 0-13.474 6.036-13.474 13.474 0 133.726-108.8 242.526-242.526 242.526s-242.526-108.8-242.526-242.526c0-7.437-6.036-13.474-13.474-13.474s-13.474 6.036-13.474 13.474c0 148.588 120.886 269.474 269.474 269.474s269.474-120.886 269.474-269.474c0-7.437-6.023-13.474-13.474-13.474zM687.158 501.895c-7.451 0-13.474 6.036-13.474 13.474 0 81.718-69.511 148.211-154.947 148.211s-154.947-66.493-154.947-148.211c0-7.437-6.036-13.474-13.474-13.474s-13.474 6.036-13.474 13.474c0 96.579 81.597 175.158 181.895 175.158s181.895-78.579 181.895-175.158c0-7.437-6.023-13.474-13.474-13.474zM875.789 704c-7.451 0-13.474 6.036-13.474 13.474v13.474h-13.474c-7.451 0-13.474 6.036-13.474 13.474s6.023 13.474 13.474 13.474h13.474v13.474c0 7.437 6.023 13.474 13.474 13.474s13.474-6.036 13.474-13.474v-13.474h13.474c7.451 0 13.474-6.036 13.474-13.474s-6.023-13.474-13.474-13.474h-13.474v-13.474c0-7.437-6.023-13.474-13.474-13.474zM161.684 771.368c-7.437 0-13.474 6.036-13.474 13.474v26.947h-13.474c-7.437 0-13.474 6.036-13.474 13.474s6.036 13.474 13.474 13.474h13.474v26.947c0 7.437 6.036 13.474 13.474 13.474s13.474-6.036 13.474-13.474v-26.947h13.474c7.437 0 13.474-6.036 13.474-13.474s-6.036-13.474-13.474-13.474h-13.474v-26.947c0-7.437-6.036-13.474-13.474-13.474z" />
<glyph unicode="&#xe92c;" glyph-name="subject4" data-tags="subject4" d="M133.336-45.73c-2.964 0-5.928 0.97-8.421 2.964-5.807 4.662-6.737 13.15-2.088 18.944 72.071 89.843 100.77 102.548 117.72 103.586 25.789 1.563 51.375 13.811 72.030 34.479l165.875 166.71c5.107 5.107 5.282 13.191 0.418 18.055-4.877 4.877-12.921 4.756-18.001-0.243l-69.726-69.726c-5.268-5.268-13.784-5.268-19.052 0-2.627 2.627-3.948 6.077-3.948 9.526s1.32 6.899 3.948 9.526l69.632 69.645c0.040 0.054 0.094 0.108 0.148 0.162l28.349 28.187c5.053 5.053 5.241 13.15 0.377 18.001-2.291 2.291-5.443 3.867-8.677 3.476-3.436-0.040-6.723-1.455-9.243-3.988l-91.298-91.284c-5.268-5.268-13.784-5.268-19.052 0-2.627 2.627-3.948 6.077-3.948 9.526s1.32 6.899 3.948 9.526l115.645 115.847c5.12 5.12 5.295 13.204 0.431 18.068-4.851 4.851-12.935 4.689-18.028-0.404l-16.424-16.896c-0.229-0.256-0.472-0.485-0.714-0.741l-101.214-101.241c-5.268-5.268-13.784-5.268-19.052 0-2.627 2.627-3.948 6.077-3.948 9.526s1.32 6.899 3.948 9.526l101.47 101.47c4.743 5.012 4.729 13.191-0.094 18.014-4.837 4.851-12.921 4.675-18.001-0.404l-174.727-173.056c-3.463-3.449-12.733-12.84-24.051-8.92-11.965 4.042-13.878 18.365-15.158 27.837l-12.773 74.995c-1.011 8.987-5.955 17.233-14.956 17.233-0.054 0-0.121 0-0.175 0-8.34-0.094-15.158-7.249-15.885-16.64-1.59-66.924-2.142-175.064 3.045-195.786 2.452-9.768 4.379-17.475-92.066-108.813-5.389-5.133-13.918-4.904-19.052 0.512-5.12 5.389-4.891 13.932 0.525 19.038 64.755 61.346 80.061 80.707 83.645 86.555-6.669 38.117-3.409 182.919-2.991 199.869 1.832 24.118 20.089 41.957 42.469 42.227 0.162 0 0.323 0 0.485 0 21.571 0 39.033-16.936 41.634-40.448l12.369-72.542 168.65 167.033c15.522 15.535 40.704 15.724 56.077 0.364 3.624-3.624 6.387-7.774 8.313-12.207 14.956 7.545 33.496 5.201 45.757-7.060 14.592-14.605 15.158-38.063 1.819-53.733 3.8-1.859 7.289-4.352 10.375-7.437 15.36-15.373 15.171-40.556-0.418-56.131l-1.576-1.563c3.705-1.846 7.181-4.298 10.267-7.384 15.36-15.387 15.171-40.569-0.404-56.131l-165.888-166.71c-25.344-25.344-57.115-40.367-89.479-42.348-7.37-0.445-31.69-10.456-98.331-93.548-2.654-3.315-6.575-5.039-10.509-5.039zM669.656 450.654c-10.065 0-20.089 3.786-27.715 11.399-3.085 3.085-5.538 6.562-7.384 10.267l-1.536-1.549c-15.616-15.616-40.798-15.778-56.158-0.445-3.085 3.085-5.565 6.575-7.437 10.375-15.629-13.339-39.087-12.787-53.72 1.819-12.288 12.301-14.619 30.868-7.101 45.784-4.433 1.927-8.569 4.689-12.18 8.3-15.36 15.373-15.171 40.542 0.404 56.118l166.993 168.61-73.324 12.477c-22.892 2.506-39.909 20.211-39.653 42.011 0.269 22.393 18.109 40.637 41.512 42.442 17.651 0.445 162.479 3.705 200.583-2.978 5.848 3.584 25.209 18.89 86.555 83.645 5.12 5.403 13.635 5.619 19.038 0.525 5.403-5.12 5.632-13.649 0.512-19.052-91.284-96.377-99.072-94.531-108.813-92.066-20.736 5.187-128.876 4.648-196.5 3.018-8.691-0.687-15.845-7.518-15.939-15.859-0.108-9.108 8.179-14.107 16.451-15.010l76.261-12.962c9-1.199 23.323-3.112 27.365-15.077 3.827-11.291-5.47-20.588-8.973-24.104l-172.962-174.632c-5.12-5.12-5.309-13.204-0.445-18.055 4.797-4.824 12.948-4.837 17.96-0.135l101.524 101.511c5.268 5.268 13.784 5.268 19.052 0 2.627-2.627 3.948-6.077 3.948-9.526s-1.32-6.899-3.948-9.526l-101.228-101.228c-0.269-0.269-0.525-0.525-0.808-0.781l-16.977-16.505c-4.931-4.945-5.12-13.029-0.269-17.893 4.851-4.851 12.935-4.689 18.028 0.404l115.887 115.672c5.268 5.268 13.784 5.268 19.052 0 2.627-2.627 3.948-6.077 3.948-9.526s-1.32-6.899-3.948-9.526l-91.284-91.284c-2.533-2.533-3.948-5.807-3.988-9.256-0.054-3.301 1.186-6.387 3.476-8.677 4.877-4.864 12.962-4.662 18.028 0.418l28.16 28.322c0.054 0.054 0.108 0.094 0.162 0.148l69.645 69.632c5.268 5.268 13.784 5.268 19.052 0 2.627-2.627 3.948-6.077 3.948-9.526s-1.32-6.899-3.948-9.526l-69.699-69.686c-5.026-5.080-5.147-13.164-0.269-18.055 4.891-4.877 12.989-4.675 18.028 0.391l166.764 165.942c20.628 20.642 32.876 46.228 34.452 72.017 1.024 16.95 13.743 45.649 103.586 117.706 5.821 4.648 14.323 3.705 18.944-2.088 4.662-5.807 3.719-14.282-2.075-18.944-83.092-66.641-93.103-90.961-93.548-98.317-1.967-32.364-17.004-64.135-42.321-89.452l-166.764-165.928c-7.842-7.842-18.149-11.776-28.403-11.776zM256 596.211c-3.88 0-7.586 1.684-10.132 4.595l-105.337 120.253c-12.45 14.417-19.267 33.132-19.267 52.749 0 42.712 32.674 77.15 74.388 78.39 21.113 0.337 43.641-11.843 60.349-32.269 16.707 20.44 39.464 32.93 60.349 32.269 41.715-1.24 74.388-35.678 74.388-78.39 0-19.618-6.818-38.333-19.2-52.669l-105.391-120.32c-2.56-2.924-6.265-4.608-10.146-4.608zM197.133 825.263c-0.229 0-0.458 0-0.687 0-27.042-0.808-48.236-23.417-48.236-51.456 0-13.164 4.487-25.613 12.652-35.072l95.138-108.598 95.192 108.679c8.111 9.378 12.598 21.827 12.598 34.991 0 28.052-21.194 50.648-48.249 51.456-14.161 0.243-34.695-11.789-47.697-35.867-4.702-8.704-19.011-8.704-23.714 0-12.773 23.687-33.145 35.867-46.996 35.867z" />
<glyph unicode="&#xe92d;" glyph-name="subject5" data-tags="subject5" d="M781.474 37.996c-7.451 0-13.474 6.023-13.474 13.474v207.899h-188.632v-207.899c0-7.451-6.023-13.474-13.474-13.474s-13.474 6.023-13.474 13.474v207.899h-175.158c-7.437 0-13.474 6.023-13.474 13.474s6.036 13.474 13.474 13.474h175.158v198.184c0 7.437 6.023 13.474 13.474 13.474s13.474-6.036 13.474-13.474v-198.184h188.632v198.184c0 7.437 6.023 13.474 13.474 13.474s13.474-6.036 13.474-13.474v-198.184h180.493c7.451 0 13.474-6.023 13.474-13.474s-6.023-13.474-13.474-13.474h-180.493v-207.899c0-7.437-6.023-13.474-13.474-13.474zM286.855 54.38c-7.437 0-13.474 6.023-13.474 13.474v20.776c0 12.733-8.96 23.889-21.747 27.109-7.222 1.819-11.601 9.135-9.782 16.357 1.805 7.208 9.122 11.587 16.344 9.782 24.792-6.225 42.105-28.12 42.132-53.221v-20.79c0-7.464-6.036-13.487-13.474-13.487zM222.963 54.38c-7.437 0-13.474 6.023-13.474 13.474v20.776c0 15.468-13.056 28.052-29.103 28.052h-85.181c-16.061 0-29.13-12.584-29.13-28.052v-20.776c0-7.451-6.036-13.474-13.474-13.474s-13.474 6.023-13.474 13.474v20.776c0 30.329 25.155 55 56.077 55h85.181c30.909 0 56.051-24.67 56.051-55v-20.776c0-7.451-6.023-13.474-13.474-13.474zM894.626 117.625c-2.789 0-5.524 0.862-7.815 2.506l-45.784 32.633c-6.063 4.312-7.478 12.733-3.153 18.796 4.312 6.077 12.706 7.478 18.796 3.153l34.506-24.589 51.173 76.328c4.15 6.184 12.531 7.842 18.701 3.692 6.184-4.15 7.828-12.531 3.692-18.701l-58.893-87.848c-2.035-3.032-5.201-5.107-8.771-5.753-0.822-0.148-1.644-0.216-2.452-0.216zM665.573 117.625c-2.789 0-5.524 0.862-7.815 2.506l-45.784 32.633c-6.063 4.312-7.478 12.733-3.153 18.796 4.312 6.077 12.719 7.478 18.796 3.153l34.506-24.589 51.173 76.328c4.163 6.184 12.517 7.842 18.701 3.692s7.828-12.531 3.692-18.701l-58.893-87.848c-2.035-3.032-5.201-5.107-8.771-5.753-0.822-0.148-1.644-0.216-2.452-0.216zM137.795 158.208c-30.909 0-56.051 24.67-56.051 55 0 30.343 25.142 55.027 56.051 55.027s56.064-24.684 56.064-55.027c0-30.329-25.155-55-56.064-55zM137.795 241.287c-16.047 0-29.103-12.598-29.103-28.079 0-15.468 13.056-28.052 29.103-28.052s29.117 12.584 29.117 28.052c0 15.495-13.069 28.079-29.117 28.079zM212.305 159.461c-6.036 0-11.52 4.083-13.056 10.213-1.805 7.208 2.587 14.525 9.809 16.33 12.854 3.207 21.827 14.39 21.827 27.19s-8.973 23.943-21.814 27.149c-7.222 1.805-11.614 9.122-9.822 16.344 1.792 7.208 9.122 11.547 16.33 9.822 24.872-6.198 42.24-28.12 42.24-53.302s-17.368-47.104-42.227-53.315c-1.105-0.296-2.196-0.431-3.288-0.431zM286.855 323.867c-7.437 0-13.474 6.023-13.474 13.474v20.763c0 12.733-8.96 23.889-21.747 27.109-7.222 1.819-11.601 9.135-9.782 16.357 1.805 7.208 9.122 11.587 16.344 9.782 24.792-6.225 42.105-28.12 42.132-53.221v-20.776c0-7.464-6.036-13.487-13.474-13.487zM222.963 323.867c-7.437 0-13.474 6.023-13.474 13.474v20.763c0 15.468-13.056 28.052-29.103 28.052h-85.181c-16.061 0-29.13-12.584-29.13-28.052v-20.763c0-7.451-6.036-13.474-13.474-13.474s-13.474 6.023-13.474 13.474v20.763c0 30.329 25.155 55 56.077 55h85.181c30.909 0 56.051-24.67 56.051-55v-20.763c0-7.451-6.023-13.474-13.474-13.474zM894.626 333.204c-2.789 0-5.524 0.862-7.815 2.506l-45.784 32.633c-6.063 4.312-7.478 12.733-3.153 18.796 4.312 6.063 12.706 7.491 18.796 3.153l34.506-24.589 51.173 76.328c4.15 6.184 12.531 7.842 18.701 3.692 6.184-4.15 7.828-12.517 3.692-18.688l-58.893-87.848c-2.035-3.032-5.201-5.107-8.771-5.753-0.822-0.162-1.644-0.229-2.452-0.229zM436.534 333.231c-2.789 0-5.511 0.849-7.815 2.506l-45.797 32.606c-6.063 4.312-7.478 12.719-3.153 18.796 4.298 6.050 12.719 7.478 18.796 3.153l34.506-24.563 51.173 76.315c4.15 6.171 12.517 7.828 18.701 3.678s7.828-12.517 3.678-18.688l-58.893-87.821c-2.021-3.032-5.187-5.107-8.771-5.753-0.808-0.148-1.617-0.229-2.425-0.229zM137.795 427.682c-30.909 0-56.051 24.684-56.051 55.013s25.142 55 56.051 55c30.909 0 56.064-24.67 56.064-55s-25.155-55.013-56.064-55.013zM137.795 510.76c-16.047 0-29.103-12.584-29.103-28.052 0-15.481 13.056-28.066 29.103-28.066s29.117 12.598 29.117 28.066c0 15.468-13.069 28.052-29.117 28.052zM212.305 428.935c-6.036 0-11.52 4.083-13.056 10.213-1.805 7.222 2.587 14.538 9.809 16.33 12.854 3.207 21.827 14.376 21.827 27.176 0 12.787-8.973 23.956-21.814 27.163-7.222 1.805-11.614 9.108-9.809 16.33s9.135 11.614 16.33 9.809c24.872-6.198 42.24-28.12 42.24-53.302s-17.368-47.104-42.227-53.315c-1.118-0.269-2.21-0.404-3.301-0.404zM673.684 544.889c-3.746 0-7.33 1.563-9.876 4.312l-163.867 176.842c-18.311 20.089-28.362 46.228-28.362 73.674 0 59.379 47.643 107.224 108.463 108.935 33.428 1.078 68.675-19.496 93.642-52.251 24.98 32.781 60.376 53.113 93.642 52.251 60.82-1.698 108.463-49.543 108.463-108.935 0-27.459-10.051-53.598-28.295-73.593l-163.934-176.909c-2.547-2.749-6.131-4.325-9.876-4.325zM551.141 710.44l122.543-132.244 125.898 135.869h-31.582c-4.312 0-8.367 2.061-10.914 5.565l-14.147 19.496-23.417-44.989c-2.425-4.648-7.653-7.37-12.571-7.235-5.255 0.243-9.876 3.517-11.857 8.381l-20.291 49.772-15.225-48.707c-1.563-5.012-5.901-8.664-11.116-9.337-5.174-0.62-10.348 1.738-13.15 6.184l-27.365 43.533-8.812-18.58c-2.223-4.702-6.979-7.693-12.167-7.693h-35.827zM606.316 778.132c4.621 0 8.933-2.371 11.412-6.306l24.872-39.572 17.691 56.603c1.684 5.416 6.602 9.203 12.288 9.445 5.592 0.229 10.914-3.112 13.043-8.381l23.458-57.546 20.035 38.494c2.142 4.136 6.306 6.872 10.954 7.208 4.77 0.445 9.162-1.738 11.911-5.524l22.905-31.569h47.010c0.849 0 1.657-0.081 2.452-0.229l3.315 3.584c13.622 14.969 21.181 34.654 21.181 55.377 0 44.692-36.136 80.707-82.27 82.001-28.632 0.916-61.79-22.38-81.179-56.347-4.783-8.394-18.607-8.394-23.39 0-19.402 33.967-53.127 56.926-81.179 56.347-46.161-1.28-82.297-37.309-82.297-82.001 0-20.723 7.559-40.408 21.261-55.444l6.4-6.899h52.278l15.683 33.051c2.102 4.446 6.467 7.384 11.385 7.667 0.256 0.027 0.512 0.040 0.781 0.040z" />
<glyph unicode="&#xe92e;" glyph-name="subject6" data-tags="subject6" d="M869.133 3.368h-241.475c-34.048 0-61.763 27.796-61.763 61.979v388.042c0 34.183 27.715 61.979 61.763 61.979h241.475c34.061 0 61.777-27.796 61.777-61.979v-388.042c0-34.183-27.715-61.979-61.777-61.979zM592.842 378.947v-313.6c0-19.321 15.616-35.032 34.816-35.032h241.475c19.213 0 34.829 15.71 34.829 35.032v313.6h-311.121zM592.842 405.895h311.121v47.495c0 19.321-15.616 35.032-34.829 35.032h-241.475c-19.2 0-34.816-15.724-34.816-35.032v-47.495zM161.684 16.842c-7.437 0-13.474 6.023-13.474 13.474v14.969c-7.572 1.064-15.697 2.708-24.374 4.918-7.208 1.832-11.574 9.162-9.741 16.384 1.832 7.208 9.189 11.56 16.384 9.728 38.265-9.728 55.053-4.972 62.397 0.741 6.211 4.81 9.229 13.177 9.229 25.546 0 17.543-7.963 21.208-37.336 25.573-22.703 3.382-56.98 8.461-56.98 47.522 0 19.187 6.117 33.9 18.176 43.736 6.104 4.985 13.487 8.529 22.245 10.631v15.832c0 7.451 6.036 13.474 13.474 13.474s13.474-6.023 13.474-13.474v-13.568c9.432-0.364 19.86-1.725 31.326-4.083 7.289-1.482 11.992-8.61 10.496-15.899-1.482-7.289-8.664-11.978-15.899-10.496-35.746 7.316-51.308 2.223-58.085-3.288-5.551-4.541-8.259-12.019-8.259-22.865 0-13.959 6.831-16.829 33.981-20.857 24.024-3.557 60.335-8.96 60.335-52.237 0-20.952-6.602-36.702-19.645-46.835-8.852-6.885-20.211-10.806-34.25-11.763v-13.689c0-7.451-6.036-13.474-13.474-13.474zM754.513 92.739h-13.474c-14.861 0-26.947 12.086-26.947 26.947v13.474c0 14.861 12.086 26.947 26.947 26.947h13.474c14.861 0 26.947-12.086 26.947-26.947v-13.474c0-14.861-12.086-26.947-26.947-26.947zM741.039 133.16v0-13.474h13.474v13.474h-13.474zM660.197 92.739h-13.474c-14.861 0-26.947 12.086-26.947 26.947v13.474c0 14.861 12.086 26.947 26.947 26.947h13.474c14.861 0 26.947-12.086 26.947-26.947v-13.474c0-14.861-12.086-26.947-26.947-26.947zM646.723 133.16v0-13.474h13.474v13.474h-13.474zM848.829 187.055h-13.474c-14.861 0-26.947 12.086-26.947 26.947v13.474c0 14.861 12.086 26.947 26.947 26.947h13.474c14.861 0 26.947-12.086 26.947-26.947v-13.474c0-14.861-12.086-26.947-26.947-26.947zM835.355 227.476v0-13.474h13.474v13.474h-13.474zM754.513 187.055h-13.474c-14.861 0-26.947 12.086-26.947 26.947v13.474c0 14.861 12.086 26.947 26.947 26.947h13.474c14.861 0 26.947-12.086 26.947-26.947v-13.474c0-14.861-12.086-26.947-26.947-26.947zM741.039 227.476v0-13.474h13.474v13.474h-13.474zM660.197 187.055h-13.474c-14.861 0-26.947 12.086-26.947 26.947v13.474c0 14.861 12.086 26.947 26.947 26.947h13.474c14.861 0 26.947-12.086 26.947-26.947v-13.474c0-14.861-12.086-26.947-26.947-26.947zM646.723 227.476v0-13.474h13.474v13.474h-13.474zM848.829 281.371h-13.474c-14.861 0-26.947 12.086-26.947 26.947v13.474c0 14.861 12.086 26.947 26.947 26.947h13.474c14.861 0 26.947-12.086 26.947-26.947v-13.474c0-14.861-12.086-26.947-26.947-26.947zM835.355 321.792v0-13.474h13.474v13.474h-13.474zM754.513 281.371h-13.474c-14.861 0-26.947 12.086-26.947 26.947v13.474c0 14.861 12.086 26.947 26.947 26.947h13.474c14.861 0 26.947-12.086 26.947-26.947v-13.474c0-14.861-12.086-26.947-26.947-26.947zM741.039 321.792v0-13.474h13.474v13.474h-13.474zM660.197 281.371h-13.474c-14.861 0-26.947 12.086-26.947 26.947v13.474c0 14.861 12.086 26.947 26.947 26.947h13.474c14.861 0 26.947-12.086 26.947-26.947v-13.474c0-14.861-12.086-26.947-26.947-26.947zM646.723 321.792v0-13.474h13.474v13.474h-13.474zM483.072 299.763c-0.081 0-0.162 0-0.243 0l-113.785 1.981c-65.981 1.145-119.444 55.781-119.148 121.789l0.35 78.673-29.952-31.003c-5.16-5.363-13.676-5.511-19.052-0.323-5.349 5.174-5.497 13.703-0.323 19.052l53.989 55.902c2.627 2.722 6.225 4.325 10.051 4.109 3.773-0.094 7.33-1.779 9.822-4.621l53.046-61.009c4.877-5.619 4.285-14.134-1.334-19.011-5.619-4.891-14.134-4.285-19.011 1.334l-30.275 34.829-0.35-78.040c-0.229-51.335 41.337-93.817 92.672-94.707l113.785-1.981c7.437-0.135 13.366-6.265 13.231-13.716-0.135-7.37-6.144-13.258-13.474-13.258zM730.462 584.030c-0.121 0-0.243 0-0.35 0-3.773 0.094-7.33 1.779-9.822 4.621l-53.046 61.009c-4.877 5.619-4.285 14.134 1.334 19.011 5.619 4.864 14.107 4.298 19.011-1.334l30.275-34.829 0.337 78.040c0.229 51.335-41.337 93.831-92.659 94.72l-113.785 1.981c-7.437 0.135-13.366 6.265-13.231 13.716 0.121 7.437 5.861 13.676 13.716 13.231l113.785-1.981c65.981-1.145 119.417-55.781 119.134-121.789l-0.337-78.686 29.965 31.003c5.147 5.336 13.716 5.484 19.038 0.323 5.349-5.174 5.497-13.703 0.323-19.052l-54.003-55.902c-2.547-2.6-6.050-4.083-9.688-4.083zM215.471 623.225c-6.306 0-12.665 0.404-19.038 1.24-65.805 8.569-118.272 60.443-127.596 126.141s26.637 130.129 87.458 156.659c6.831 2.964 14.767-0.135 17.731-6.966s-0.135-14.767-6.966-17.731c-49.758-21.72-79.185-74.429-71.559-128.175 7.626-53.76 50.553-96.202 104.408-103.208 53.8-6.939 106.2 23.013 127.353 73.014 2.897 6.845 10.792 10.065 17.664 7.155 6.845-2.897 10.065-10.806 7.155-17.664-23.336-55.175-77.811-90.462-136.61-90.462zM350.316 757.895h-134.737c-7.437 0-13.474 6.036-13.474 13.474v134.737c0 7.437 6.036 13.474 13.474 13.474 39.586 0 76.8-15.414 104.798-43.412s43.412-65.213 43.412-104.798c0-7.437-6.036-13.474-13.474-13.474zM229.053 784.842h107.048c-3.005 27.298-15.091 52.574-34.776 72.273-19.699 19.699-44.975 31.784-72.273 34.776v-107.048z" />
<glyph unicode="&#xe92f;" glyph-name="subject7" data-tags="subject7" d="M943.158 4.554h-889.263v26.947h210.405l-5.214 2.789c5.295 9.89 9.836 19.752 13.662 29.548-55.188-17.664-101.282-16.047-137.135 4.864-41.203 24.010-68.621 73.512-81.516 147.119l-1.981 11.304 10.846 3.759c46.808 16.182 88.603 15.468 124.241-2.129 40.421-19.968 72.987-61.979 96.997-125.022 2.951 16.020 3.827 31.852 2.627 47.414-1.913 24.926-10.752 41.512-20.116 59.082-11.776 22.11-25.128 47.144-24.131 89.196 0.296 12.719 1.549 24.792 3.746 36.096-26.22 13.379-44.221 40.65-44.221 72.057 0 44.584 36.258 80.842 80.842 80.842s80.842-36.258 80.842-80.842-36.258-80.842-80.842-80.842c-3.624 0-7.195 0.243-10.698 0.714-1.576-8.973-2.479-18.553-2.722-28.659-0.835-34.991 9.768-54.851 20.965-75.897 7.855-14.74 15.912-29.858 20.305-49.839 22.016 44.288 49.529 74.765 82.149 90.867 35.651 17.61 77.447 18.297 124.227 2.129l10.846-3.759-1.967-11.304c-12.908-73.607-40.327-123.109-81.516-147.119-35.166-20.52-80.195-22.474-133.969-5.861-4.136-22.016-11.695-44.234-22.622-66.52h451.409l-5.794 6.467c18.904 16.936 27.311 32.876 24.98 47.4-1.388 8.596-8.785 15.266-17.381 22.986-10.388 9.351-22.905 20.615-26.206 38.306-19.537-11.102-38.211-14.848-55.673-10.954-24.374 5.336-45.514 25.196-62.841 59.028l-5.107 9.957 8.852 6.845c20.992 16.236 42.267 22.878 63.434 19.806 21.315-3.112 41.971-16.317 61.548-39.316 0.027 36.312 8.717 63.488 25.883 80.842 14.996 15.158 36.487 22.353 62.599 22.353l11.183-0.148 1.927-11.021c6.508-37.443 1.576-66.021-14.673-84.952-14.215-16.559-36.554-25.236-66.452-25.869-0.957-1.644-1.765-3.355-2.412-5.12l0.552-0.781-1.118-0.876c-0.889-2.883-1.401-5.915-1.563-9.162-0.579-11.52 6.157-18.163 18.095-28.915 10.819-9.728 23.067-20.749 25.964-38.75 3.126-19.496-3.651-39.006-20.157-58.125h178.163v-26.934zM82.823 208.936c12.072-58.988 34.371-98.304 66.358-116.952 28.308-16.492 65.913-17.691 111.953-3.544-21.706 59.675-50.567 98.708-85.868 116.143-26.624 13.177-56.967 14.619-92.443 4.352zM319.003 123.608c46.026-14.161 83.658-12.962 111.953 3.544 31.987 18.648 54.272 57.964 66.358 116.965-35.49 10.253-65.805 8.825-92.429-4.339-35.315-17.448-64.162-56.495-85.881-116.17zM626.122 196.702c11.978-19.981 25.021-31.65 38.925-34.681 11.965-2.641 25.762 1.011 41.108 10.792-15.643 18.931-31.219 29.642-46.43 31.865-10.9 1.536-21.949-1.037-33.603-7.976zM801.859 267.749c-13.501-1.455-23.902-6.023-31.65-13.837-10.806-10.927-16.802-28.861-17.907-53.396 18.149 1.415 31.34 6.831 39.33 16.128 9.256 10.779 12.679 27.944 10.227 51.106zM282.947 461.474c-29.723 0-53.895-24.172-53.895-53.895s24.172-53.895 53.895-53.895 53.895 24.172 53.895 53.895-24.172 53.895-53.895 53.895zM690.688 556.8l-157.049 330.078 162.722-51.86-1.145 2.587 215.579 94.356 10.819-24.684-214.676-93.965 26.085-55.727 246.366 80.492 8.367-25.613-250.368-81.785-46.7-173.878zM584.677 842.334l98.964-207.966 28.187 104.947-34.371 73.445-92.78 29.575zM494.43 463.252c-0.539 0-1.091 0.027-1.63 0.094-7.384 0.889-12.652 7.599-11.763 14.983 1.132 9.499 2.493 18.634 4.056 27.392 1.293 7.316 8.246 12.234 15.616 10.914 7.33-1.293 12.207-8.286 10.914-15.616-1.469-8.286-2.749-16.923-3.827-25.91-0.835-6.831-6.643-11.857-13.366-11.857zM393.89 505.452c-1.024 0-2.048 0.108-3.085 0.35-7.249 1.698-11.736 8.947-10.038 16.195 2.156 9.189 4.621 18.243 7.316 26.92 2.21 7.114 9.741 11.102 16.869 8.852 7.101-2.21 11.075-9.768 8.852-16.869-2.506-8.071-4.797-16.492-6.804-25.061-1.455-6.198-6.993-10.388-13.11-10.388zM511.744 542.033c-1.496 0-3.018 0.256-4.5 0.781-7.020 2.479-10.685 10.186-8.192 17.192 3.301 9.31 7.020 18.176 11.062 26.314 3.301 6.656 11.399 9.405 18.055 6.077 6.669-3.315 9.391-11.399 6.077-18.055-3.571-7.168-6.858-15.023-9.809-23.323-1.954-5.538-7.141-8.987-12.692-8.987zM421.080 581.336c-2.048 0-4.15 0.472-6.104 1.469-6.629 3.368-9.27 11.493-5.901 18.122 4.312 8.475 9.027 16.721 14.026 24.522 4.015 6.265 12.355 8.098 18.607 4.083 6.265-4.015 8.098-12.342 4.083-18.607-4.514-7.060-8.798-14.538-12.706-22.218-2.371-4.675-7.101-7.37-12.005-7.37zM318.329 602.22c-1.684 0-3.409 0.323-5.080 1.011-6.899 2.803-10.2 10.671-7.384 17.556 3.544 8.704 7.397 17.273 11.439 25.452 3.288 6.669 11.345 9.418 18.041 6.117 6.669-3.288 9.405-11.372 6.117-18.041-3.746-7.599-7.33-15.576-10.644-23.687-2.129-5.228-7.168-8.408-12.49-8.408zM553.795 610.129c-3.651 0-7.289 1.469-9.944 4.379-5.012 5.497-4.635 14.013 0.849 19.038 2.641 2.425 5.363 4.716 8.138 6.872 4.19 3.234 9.62 6.629 16.653 10.402 6.575 3.503 14.727 1.024 18.243-5.524 3.517-6.562 1.037-14.727-5.524-18.243-5.605-3.005-9.917-5.672-12.84-7.936-2.183-1.698-4.352-3.53-6.467-5.457-2.6-2.371-5.861-3.53-9.108-3.53zM467.981 646.764c-3.422 0-6.845 1.293-9.472 3.894-5.295 5.228-5.336 13.757-0.108 19.052 6.589 6.669 13.662 13.083 21.005 19.065 5.753 4.702 14.255 3.813 18.957-1.954 4.689-5.767 3.827-14.255-1.954-18.957-6.589-5.363-12.921-11.116-18.85-17.098-2.627-2.668-6.104-4.002-9.58-4.002zM357.066 672.93c-2.749 0-5.511 0.835-7.909 2.573-6.023 4.379-7.357 12.8-2.978 18.823 5.578 7.68 11.52 15.091 17.677 22.016 4.931 5.551 13.447 6.090 19.025 1.132 5.565-4.931 6.077-13.46 1.132-19.025-5.578-6.279-10.968-13.002-16.034-19.981-2.641-3.611-6.737-5.538-10.914-5.538zM532.898 694.326c-4.851 0-9.539 2.627-11.951 7.222-3.449 6.589-0.903 14.74 5.686 18.189 8.138 4.271 16.721 8.273 25.492 11.897 6.831 2.816 14.767-0.418 17.61-7.289s-0.418-14.754-7.289-17.61c-8.030-3.328-15.872-6.993-23.296-10.873-2.021-1.037-4.15-1.536-6.252-1.536zM413.642 730.206c-4.15 0-8.232 1.9-10.873 5.497-4.406 5.996-3.112 14.43 2.87 18.836 7.572 5.565 15.549 10.792 23.727 15.535 6.427 3.746 14.673 1.563 18.419-4.891 3.732-6.44 1.549-14.673-4.891-18.419-7.33-4.258-14.498-8.96-21.288-13.945-2.398-1.765-5.187-2.614-7.963-2.614zM485.174 767.030c-5.619 0-10.873 3.557-12.773 9.176-2.371 7.047 1.415 14.7 8.461 17.071 8.771 2.951 17.866 5.565 27.042 7.761 7.276 1.684 14.511-2.749 16.249-9.971 1.725-7.235-2.735-14.511-9.971-16.249-8.408-2.008-16.707-4.392-24.711-7.087-1.428-0.472-2.87-0.701-4.298-0.701z" />
<glyph unicode="&#xe930;" glyph-name="subject8" data-tags="subject8" d="M891.998-10.105c-44.584 0-80.842 36.258-80.842 80.842s36.258 80.842 80.842 80.842 80.842-36.258 80.842-80.842-36.258-80.842-80.842-80.842zM891.998 124.632c-29.723 0-53.895-24.172-53.895-53.895s24.172-53.895 53.895-53.895 53.895 24.172 53.895 53.895-24.172 53.895-53.895 53.895zM193.051-9.917c-19.348 0-46.808 8.125-83.981 24.819-4.837 2.169-7.949 6.993-7.949 12.288v63.475l-61.965 30.114c-4.756 2.317-7.72 7.181-7.586 12.477 0.135 5.282 3.355 9.984 8.219 12.059l148.022 62.666c3.301 1.401 6.993 1.415 10.321 0.081l155.352-63.003c5.080-2.061 8.421-7.020 8.408-12.517 0-0.755-0.067-1.496-0.189-2.237 0.121-0.741 0.189-1.496 0.189-2.277v-53.895c0-7.451-6.036-13.474-13.474-13.474s-13.474 6.023-13.474 13.474v38.494l-52.736-21.208v-64.243c0-5.201-3.005-9.944-7.693-12.167-35.382-16.775-62.019-24.926-81.462-24.926zM128.054 35.975c36.123-15.549 55.215-18.944 64.997-18.944 9.701 0 28.241 3.368 62.195 18.769v44.8l-57.169-22.986c-3.099-1.24-6.548-1.293-9.701-0.148l-60.322 22.285v-43.776zM119.862 111.495l72.973-26.961 119.579 48.074-119.256 48.371-115.564-48.936 42.267-20.547zM735.299 87.242c-0.943 0-1.913 0.094-2.87 0.296-204.921 44.342-304.317 128.283-295.411 249.519 6.831 93.103 71.343 149.059 128.256 198.413 51.375 44.557 95.731 83.038 87.417 138.55-17.3 115.469-160.822 125.386-293.982 125.602-0.364 0-0.728 0.013-1.091 0.040l32.593-30.397c5.443-5.080 5.74-13.608 0.66-19.052s-13.595-5.74-19.052-0.66l-56.832 53.019c-2.762 2.573-4.312 6.198-4.285 9.971s1.657 7.37 4.46 9.89l60.066 54.097c5.524 4.985 14.067 4.541 19.025-0.997 4.985-5.524 4.527-14.040-0.997-19.025l-33.24-29.939c111.778-0.189 297.229-1.064 319.34-148.574 10.509-70.157-41.432-115.2-96.418-162.883-55.565-48.195-113.031-98.021-119.040-180.035-7.761-105.728 84.507-180.143 274.257-221.197 7.262-1.576 11.884-8.744 10.321-16.020-1.388-6.306-6.966-10.617-13.177-10.617zM813.662 342.178c-3.449 0-6.899 1.32-9.526 3.948l-33.347 33.347-33.347-33.347c-5.268-5.268-13.784-5.268-19.052 0s-5.268 13.784 0 19.052l33.347 33.347-33.347 33.347c-5.268 5.268-5.268 13.797 0 19.065s13.784 5.268 19.052 0l33.347-33.347 33.347 33.347c5.268 5.268 13.784 5.268 19.052 0s5.268-13.797 0-19.065l-33.347-33.347 33.347-33.347c5.268-5.268 5.268-13.784 0-19.052-2.641-2.627-6.077-3.948-9.526-3.948zM315.136 436.493c-3.449 0-6.899 1.32-9.526 3.948l-33.347 33.347-33.347-33.347c-5.268-5.268-13.784-5.268-19.052 0s-5.268 13.784 0 19.052l33.347 33.347-33.347 33.347c-5.268 5.268-5.268 13.784 0 19.052s13.784 5.268 19.052 0l33.347-33.347 33.347 33.347c5.268 5.268 13.784 5.268 19.052 0s5.268-13.784 0-19.052l-33.347-33.347 33.347-33.347c5.268-5.268 5.268-13.784 0-19.052-2.627-2.627-6.077-3.948-9.526-3.948zM175.158 744.421c-44.584 0-80.842 36.258-80.842 80.842s36.258 80.842 80.842 80.842 80.842-36.258 80.842-80.842-36.258-80.842-80.842-80.842zM175.158 879.158c-29.723 0-53.895-24.172-53.895-53.895s24.172-53.895 53.895-53.895 53.895 24.172 53.895 53.895-24.172 53.895-53.895 53.895z" />
<glyph unicode="&#xe931;" glyph-name="subject9" data-tags="subject9" d="M457.849 19.052c-1.24 0-2.506 0.175-3.732 0.525-107.426 31.043-168.367 124.82-155.459 170.483 0.849 2.978 2.102 5.928 3.8 8.704l-84.035 133.605c-0.701 1.132-1.24 2.358-1.59 3.638l-124.51 458.213c-1.846 6.804 1.859 13.891 8.515 16.236 6.629 2.371 13.986-0.822 16.829-7.289l190.747-434.27c0.552-1.253 0.903-2.547 1.051-3.907l17.125-151.269c5.336 0.566 11.426 0.054 18.324-1.859 47.953-13.231 52.817-43.358 57.115-69.928 0.701-4.379 1.428-8.893 2.358-13.501 6.184-30.545 26.907-59.176 61.548-85.113 5.214-3.907 6.885-10.968 3.988-16.788-2.331-4.675-7.060-7.478-12.072-7.478zM330.685 187.055c-4.877 0-5.605-2.573-6.090-4.312-5.726-20.264 18.661-71.909 73.863-108.315-10.213 15.508-17.058 31.757-20.493 48.667-1.011 4.958-1.792 9.822-2.56 14.538-4.123 25.546-6.4 39.626-37.672 48.263v0c-3.005 0.822-5.295 1.159-7.047 1.159zM253.036 327.963l40.839-64.916-8.771 77.501-32.067-12.584zM237.474 362.819l2.951-10.86 39.222 15.4-5.012 11.412-37.16-15.953zM165.821 626.513l64.525-237.433 33.455 14.349-97.981 223.084zM616.691 40.354c-13.851 0-27.055 4.352-37.376 13.325v0c-10.658 9.243-16.802 22.434-17.327 37.147-0.647 18.445 7.491 37.511 22.326 52.332 25.371 25.331 62.1 31.286 86.905 15.131v170.86c0 5.497 3.341 10.442 8.448 12.504l161.684 64.957c4.15 1.698 8.866 1.186 12.571-1.347 3.705-2.506 5.928-6.683 5.928-11.156v-209.799c0-3.907-1.657-7.424-4.298-9.876-1.967-15.266-9.634-30.37-21.854-42.59-27.432-27.352-68.136-32.121-92.699-10.779v0c-10.658 9.243-16.802 22.434-17.327 37.147-0.647 18.445 7.491 37.511 22.326 52.332 25.371 25.331 62.087 31.286 86.905 15.131v148.507l-134.737-54.137v-195.651c0-3.651-1.442-6.966-3.813-9.391 0.081-17.88-8.003-36.204-22.339-50.54-15.912-15.845-36.244-24.104-55.323-24.104zM639.811 140.167c-12.194 0-26.031-5.645-36.487-16.088-9.553-9.539-14.808-21.302-14.417-32.296 0.175-5.053 1.725-12.234 8.057-17.718 0-0.013 0-0.013 0.013-0.013 13.433-11.695 39.060-7.37 55.983 9.499 9.539 9.539 14.808 21.315 14.417 32.296-0.189 5.066-1.725 12.248-8.057 17.731-5.12 4.46-12.005 6.589-19.51 6.589zM801.496 207.535c-12.194 0-26.031-5.645-36.487-16.088-9.553-9.539-14.808-21.302-14.417-32.296 0.175-5.053 1.725-12.234 8.057-17.718 0-0.013 0-0.013 0.013-0.013 13.433-11.695 39.060-7.37 55.983 9.499 9.539 9.539 14.808 21.315 14.417 32.296-0.189 5.066-1.725 12.248-8.057 17.731-5.12 4.46-12.005 6.589-19.51 6.589zM737.846 501.895c-41.89 0-79.36 17.624-108.436 51.025-3.934 4.514-7.707 9.297-11.304 14.323-25.101-35.18-58.476-64.768-118.272-65.347-44.099-0.552-82.904 17.691-113.031 52.399-51.133 58.907-74.24 162.493-58.867 263.923 0.431 2.829 1.752 5.457 3.786 7.491 57.25 57.411 197.861 70.925 284.254 28.766 33.051 15.805 75.345 25.304 120.697 24.684 67.193-0.202 124.51-19.725 157.265-53.598 1.94-1.994 3.193-4.541 3.638-7.289 13.285-85.154 1.765-200.515-53.976-266.294-27.823-32.835-62.909-49.677-104.286-50.082-0.499 0-0.984 0-1.469 0zM596.399 809.755c-12.598-92.173 8.623-187.796 53.329-239.144 24.131-27.715 53.76-41.768 88.077-41.768 0.404 0 0.822 0 1.24 0 33.199 0.323 61.467 13.972 83.981 40.556 49.327 58.193 59.877 161.765 48.559 240.357-27.985 26.489-77.999 42.294-134.993 42.456-41.485-0.216-80.168-7.936-109.352-22.029-2.317-2.776-5.619-4.433-9.095-4.77-8.273-4.689-15.589-9.93-21.747-15.656zM353.927 809.674c-12.665-91.149 8.502-186.193 53.235-237.716 25.142-28.955 56.509-44.072 92.416-43.116 44.504 0.418 72.852 17.731 103.060 63.501-31.933 60.052-44.504 143.468-32.256 225.832 0.418 2.803 1.711 5.416 3.692 7.437 4.029 4.123 8.502 8.030 13.393 11.749-75.304 27.796-185.681 16.020-233.539-27.688zM741.053 596.197c-20.022 0-40.044 4.972-59.917 14.915-6.656 3.328-9.351 11.426-6.023 18.082 3.341 6.669 11.439 9.351 18.082 6.023 32.216-16.115 63.528-16.115 95.731 0 6.656 3.328 14.754 0.633 18.082-6.023s0.633-14.754-6.023-18.082c-19.887-9.944-39.909-14.915-59.931-14.915zM552.408 596.211c-2.021 0-4.083 0.458-6.009 1.415-32.216 16.115-63.528 16.115-95.731 0-6.683-3.341-14.754-0.62-18.082 6.023-3.328 6.656-0.633 14.754 6.023 18.082 39.761 19.887 80.074 19.887 119.848 0 6.656-3.328 9.351-11.426 6.023-18.082-2.371-4.716-7.128-7.437-12.072-7.437z" />
<glyph unicode="&#xe932;" glyph-name="subject10" data-tags="subject10" d="M643.341 111.158c-9.836 0-41.499 1.819-75.682 21.76-28.12 16.384-138.792 128.943-151.323 141.73-16.303 18.499-16.007 44.194 0.216 60.335 15.737 15.643 40.125 16.088 59.352 1.145l62.801-43.251 1.172 238.646c0 22.029 18.041 40.003 40.205 40.003 5.416 0 10.59-1.051 15.333-2.964 5.282 16.074 20.399 27.648 38.184 27.648 21.167 0 38.562-16.357 40.125-37.053 4.204 1.482 8.704 2.291 13.393 2.291 22.178 0 40.219-17.974 40.219-40.071v-2.466c4.163 1.442 8.637 2.237 13.285 2.237 22.178 0 40.232-17.974 40.232-40.071l0.62-235.978c0-39.101-14.093-74.28-39.667-99.085-24.657-23.916-57.425-35.705-95.326-34.789-0.040 0-1.145-0.067-3.139-0.067zM646.036 138.159c31.555-0.876 57.694 8.488 77.002 27.217 20.305 19.672 31.488 47.98 31.488 79.683l-0.606 235.992c0 7.276-5.955 13.164-13.285 13.164-7.357 0-13.339-5.834-13.393-13.029v-98.91c0-7.451-6.023-13.474-13.474-13.474s-13.474 6.023-13.474 13.474v98.816c0 0.067 0 0.135 0 0.216l0.108 40.125c0 7.208-5.955 13.096-13.272 13.096-7.249 0-13.15-5.888-13.15-13.123v-129.536c0-7.451-6.023-13.474-13.474-13.474s-13.474 6.023-13.474 13.474l-0.135 164.231c0 7.303-5.955 13.191-13.285 13.191-7.316 0-13.258-5.888-13.258-13.137l0.31-23.7c0.013-0.323 0.013-0.647 0.013-0.97 0-0.054 0-0.121 0-0.189v-143.454c0-7.451-6.023-13.474-13.474-13.474s-13.474 6.023-13.474 13.474v143.939c-0.202 6.979-6.36 12.8-13.649 12.8-7.316 0-13.258-5.888-13.258-13.123l-1.213-246.73c0-4.851 0-17.933-10.644-23.296-11.331-5.74-23.134 3.032-30.936 8.825l-64.054 44.126c-7.559 5.848-17.583 8.259-24.428 1.455-6.858-6.818-4.931-16.667 0.525-22.865 47.697-48.627 126.235-125.763 145.165-136.785 33.63-19.618 64.485-18.014 64.795-18.028zM215.579 178.526c-7.437 0-13.474 6.023-13.474 13.474s6.036 13.474 13.474 13.474c57.384 0 100.945 48.182 116.211 80.573 8.286 17.583 11.587 76.113 11.722 108.894 0.013 5.43 3.301 10.321 8.313 12.396 5.012 2.035 10.779 0.93 14.646-2.87 2.533-2.412 16.802-14.309 35.88-1.132 5.363 3.719 6.279 9.634 7.343 24.36 1.28 17.691 3.032 41.903 24.765 65.24 8.677 9.31 13.784 40.65 7.33 77.016-4.81 27.069-14.107 42.995-20.709 46.323-16.128 8.152-44.113-17.448-55.161-31.124-0.741-0.903-1.576-1.698-2.479-2.371-0.243-0.984-0.579-1.954-1.051-2.883-3.449-6.925-21.773-41.863-44.072-49.354-9.93-3.328-20.116-1.752-28.726 4.446-12.679 9.122-19.308 26.395-19.308 38.737 0 2.088 0.162 5.107 0.364 8.771 0.916 16.344 3.341 59.769-16.344 63.070-18.365 3.085-34.008 19.092-46.134 37.093-2.25-9.984-6.265-19.254-13.002-26.206-7.155-7.397-20.359-15.293-42.671-10.806-67.934 13.662-96.916 117.76-98.115 122.193-1.954 7.181 2.291 14.565 9.472 16.519 7.155 1.967 14.565-2.277 16.546-9.459 7.020-25.681 34.587-94.221 77.42-102.831 12.504-2.506 16.64 1.725 18.001 3.126 11.749 12.099 7.801 49.529 4.042 65.752-1.617 6.979 2.52 14.013 9.405 15.993 6.925 1.967 14.12-1.765 16.465-8.542 10.267-29.683 33.509-72.973 53.046-76.248 43.48-7.289 40.205-66.048 38.804-91.149-0.175-3.045-0.323-5.538-0.323-7.276 0-5.093 3.544-13.581 8.111-16.869 1.765-1.267 2.951-1.253 4.419-0.768 8.381 2.816 21.949 22.609 28.51 35.8 0.916 1.832 2.183 3.368 3.692 4.554v107.56c0 7.437 6.036 13.474 13.474 13.474s13.474-6.036 13.474-13.474v-78.255c17.327 13.757 41.485 26.139 64.337 14.579 22.38-11.318 31.582-45.999 35.085-65.671 6.319-35.517 4.392-80.236-14.147-100.109-15.266-16.371-16.451-32.849-17.61-48.802-1.118-15.535-2.398-33.159-18.877-44.584-17.556-12.126-34.425-12.544-47.683-8.691-0.997-28.982-4.096-77.285-13.837-97.954-15.71-33.172-65.253-95.987-140.625-95.987zM99.961 286.329c-3.382 0-6.575 0.189-9.539 0.499-29.319 3.085-53.787 20.184-61.103 30.774-4.231 6.131-2.695 14.511 3.436 18.755 6.131 4.217 14.511 2.681 18.728-3.422 2.52-3.49 19.51-17.192 42.429-19.375 20.507-1.9 40.273 5.767 58.503 22.986 5.416 5.080 13.932 4.851 19.052-0.552 5.107-5.403 4.864-13.932-0.552-19.052-25.856-24.441-51.564-30.612-70.952-30.612zM875.789 353.684c-3.49 0-6.979 1.347-9.62 4.042-37.241 37.942-57.748 89.155-57.748 144.168 0 55.040 20.507 106.24 57.748 144.182 5.228 5.309 13.757 5.389 19.052 0.175 5.322-5.214 5.389-13.743 0.189-19.052-32.283-32.876-50.041-77.366-50.041-125.305 0-47.912 17.772-92.416 50.041-125.305 5.214-5.309 5.133-13.837-0.189-19.052-2.614-2.56-6.023-3.853-9.432-3.853zM929.684 380.632c-3.624 0-7.222 1.442-9.876 4.312-27.985 30.208-44.019 72.825-44.019 116.952 0 44.14 16.034 86.757 44.019 116.952 5.066 5.457 13.581 5.794 19.038 0.728 5.457-5.053 5.794-13.581 0.728-19.038-23.417-25.277-36.837-61.224-36.837-98.641 0-37.403 13.42-73.364 36.824-98.627 5.066-5.457 4.743-13.986-0.728-19.038-2.587-2.412-5.875-3.597-9.149-3.597zM365.312 421.053c-5.147 0-10.065 2.964-12.301 7.963-3.045 6.804 0 14.767 6.791 17.812 4.514 2.021 10.563 13.999 9.957 18.23-3.624 10.442-18.931 12.288-19.092 12.301-3.813 0.337-7.289 2.277-9.58 5.336-4.595 6.131-5.457 14.619-2.547 25.236 6.157 22.42 32.781 62.316 60.524 73.795 6.872 2.856 14.754-0.418 17.597-7.303s-0.418-14.754-7.303-17.597c-18.769-7.774-40.354-39.949-44.787-55.067 11.655-3.8 25.236-12.234 30.774-28.349 5.565-16.303-7.532-43.533-24.549-51.173-1.779-0.808-3.638-1.186-5.484-1.186zM983.579 421.053c-3.449 0-6.885 1.32-9.512 3.934-19.645 19.577-30.909 47.616-30.909 76.908 0 29.278 11.264 57.304 30.909 76.908 5.268 5.255 13.784 5.255 19.052-0.013 5.255-5.268 5.255-13.797-0.027-19.065-14.605-14.579-22.986-35.651-22.986-57.829 0-22.191 8.381-43.264 22.986-57.829 5.268-5.255 5.282-13.77 0.027-19.052-2.627-2.641-6.077-3.961-9.539-3.961zM159.016 515.274c-27.069 0-44.908 13.514-46.026 14.376-5.875 4.581-6.925 13.043-2.371 18.917 4.554 5.848 12.962 6.912 18.823 2.439 1.32-0.997 28.551-20.588 65.455 2.708 6.292 3.988 14.605 2.102 18.594-4.19 3.975-6.292 2.088-14.605-4.204-18.58-18.621-11.789-35.773-15.67-50.27-15.67z" />
<glyph unicode="&#xe933;" glyph-name="subject11" data-tags="subject11" d="M619.789 37.996c-7.451 0-13.474 6.023-13.474 13.474v207.899h-188.632v-207.899c0-7.451-6.036-13.474-13.474-13.474s-13.474 6.023-13.474 13.474v207.899h-175.158c-7.437 0-13.474 6.023-13.474 13.474s6.036 13.474 13.474 13.474h175.158v198.184c0 7.437 6.036 13.474 13.474 13.474s13.474-6.036 13.474-13.474v-198.184h188.632v198.184c0 7.437 6.023 13.474 13.474 13.474s13.474-6.036 13.474-13.474v-198.184h180.493c7.451 0 13.474-6.023 13.474-13.474s-6.023-13.474-13.474-13.474h-180.493v-207.899c0-7.437-6.023-13.474-13.474-13.474zM503.889 104.152c-2.789 0-5.524 0.862-7.828 2.506l-45.784 32.633c-6.063 4.312-7.464 12.733-3.153 18.796 4.312 6.077 12.719 7.478 18.796 3.153l34.493-24.589 51.187 76.328c4.136 6.184 12.517 7.855 18.688 3.678 6.184-4.136 7.828-12.517 3.678-18.688l-58.893-87.848c-2.021-3.032-5.187-5.107-8.771-5.753-0.795-0.148-1.603-0.216-2.412-0.216zM732.941 104.152c-2.789 0-5.524 0.862-7.815 2.506l-45.784 32.633c-6.063 4.312-7.478 12.733-3.153 18.796 4.312 6.063 12.706 7.491 18.796 3.153l34.506-24.589 51.173 76.328c4.163 6.184 12.517 7.815 18.701 3.692 6.184-4.15 7.828-12.531 3.692-18.701l-58.893-87.848c-2.035-3.032-5.201-5.107-8.771-5.753-0.822-0.148-1.644-0.216-2.452-0.216zM732.941 333.204c-2.789 0-5.524 0.862-7.815 2.506l-45.784 32.633c-6.063 4.312-7.478 12.733-3.153 18.796 4.312 6.063 12.706 7.491 18.796 3.153l34.506-24.589 51.173 76.328c4.163 6.184 12.517 7.842 18.701 3.692s7.828-12.517 3.692-18.688l-58.893-87.848c-2.035-3.032-5.201-5.107-8.771-5.753-0.822-0.162-1.644-0.229-2.452-0.229zM274.85 333.231c-2.789 0-5.511 0.849-7.815 2.506l-45.797 32.606c-6.063 4.312-7.478 12.719-3.153 18.796 4.312 6.050 12.733 7.478 18.796 3.153l34.506-24.563 51.173 76.315c4.136 6.171 12.517 7.828 18.701 3.678 6.171-4.15 7.828-12.517 3.678-18.688l-58.893-87.821c-2.021-3.032-5.187-5.107-8.771-5.753-0.808-0.148-1.617-0.229-2.425-0.229zM431.158 582.737h-188.632c-22.285 0-40.421 18.136-40.421 40.421v188.632c0 22.285 18.136 40.421 40.421 40.421h26.947v13.474c0 7.437 6.036 13.474 13.474 13.474s13.474-6.036 13.474-13.474v-13.474h80.842v13.474c0 7.437 6.036 13.474 13.474 13.474s13.474-6.036 13.474-13.474v-13.474h26.947c22.285 0 40.421-18.136 40.421-40.421v-188.632c0-22.285-18.136-40.421-40.421-40.421zM229.053 744.421v-121.263c0-7.424 6.050-13.474 13.474-13.474h188.632c7.424 0 13.474 6.050 13.474 13.474v121.263h-215.579zM229.053 771.368h215.579v40.421c0 7.424-6.050 13.474-13.474 13.474h-26.947v-13.474c0-7.437-6.036-13.474-13.474-13.474s-13.474 6.036-13.474 13.474v13.474h-80.842v-13.474c0-7.437-6.036-13.474-13.474-13.474s-13.474 6.036-13.474 13.474v13.474h-26.947c-7.424 0-13.474-6.050-13.474-13.474v-40.421zM812.315 620.288c-7.451 0-13.474 6.036-13.474 13.474v20.776c0 12.746-8.947 23.889-21.747 27.109-7.208 1.805-11.587 9.135-9.782 16.344 1.819 7.222 9.122 11.614 16.357 9.782 24.792-6.225 42.119-28.12 42.119-53.235v-20.776c0-7.451-6.023-13.474-13.474-13.474zM748.45 620.288c-7.451 0-13.474 6.036-13.474 13.474v20.776c0 15.468-13.056 28.052-29.103 28.052h-85.181c-16.061 0-29.13-12.584-29.13-28.052v-20.776c0-7.437-6.023-13.474-13.474-13.474s-13.474 6.036-13.474 13.474v20.776c0 30.329 25.155 55 56.077 55h85.181c30.909 0 56.051-24.67 56.051-55v-20.776c0-7.451-6.023-13.474-13.474-13.474zM663.269 724.116c-30.909 0-56.051 24.684-56.051 55.013s25.142 55 56.051 55c30.922 0 56.064-24.67 56.064-55 0-30.343-25.155-55.013-56.064-55.013zM663.269 807.181c-16.047 0-29.103-12.584-29.103-28.052s13.056-28.066 29.103-28.066 29.117 12.598 29.117 28.066c0 15.468-13.069 28.052-29.117 28.052zM737.779 725.356c-6.036 0-11.52 4.083-13.056 10.213-1.819 7.222 2.573 14.538 9.809 16.33 12.84 3.207 21.814 14.376 21.814 27.176 0 12.787-8.973 23.956-21.814 27.163-7.222 1.805-11.601 9.108-9.822 16.33 1.819 7.222 9.122 11.668 16.344 9.809 24.872-6.198 42.24-28.12 42.24-53.302s-17.368-47.104-42.24-53.315c-1.091-0.283-2.196-0.404-3.274-0.404z" />
<glyph unicode="&#xe934;" glyph-name="subject12" data-tags="subject12" d="M417.684 16.842h-134.737c-22.285 0-40.421 18.136-40.421 40.421v94.316c0 22.285 18.136 40.421 40.421 40.421h13.474c0 22.285 18.136 40.421 40.421 40.421h26.947c22.285 0 40.421-18.136 40.421-40.421h13.474c22.285 0 40.421-18.136 40.421-40.421v-94.316c0-22.285-18.136-40.421-40.421-40.421zM269.474 111.158v-53.895c0-7.437 6.050-13.474 13.474-13.474h134.737c7.424 0 13.474 6.036 13.474 13.474v53.895h-161.684zM269.474 138.105h161.684v13.474c0 7.437-6.050 13.474-13.474 13.474h-134.737c-7.424 0-13.474-6.036-13.474-13.474v-13.474zM323.368 192h53.895c0 7.437-6.050 13.474-13.474 13.474h-26.947c-7.424 0-13.474-6.036-13.474-13.474zM592.842 18.567c-7.451 0-13.474 6.023-13.474 13.474v240.802h-431.158c-7.437 0-13.474 6.023-13.474 13.474s6.036 13.474 13.474 13.474h431.158v296.421h-431.158c-7.437 0-13.474 6.036-13.474 13.474s6.036 13.474 13.474 13.474h431.158v242.526c0 7.437 6.023 13.474 13.474 13.474s13.474-6.036 13.474-13.474v-242.526h269.029c7.451 0 13.474-6.036 13.474-13.474s-6.023-13.474-13.474-13.474h-269.029v-296.421h269.029c7.451 0 13.474-6.023 13.474-13.474s-6.023-13.474-13.474-13.474h-269.029v-240.802c0-7.451-6.023-13.474-13.474-13.474zM746.415 63.731c-2.789 0-5.524 0.862-7.815 2.506l-45.784 32.633c-6.063 4.312-7.478 12.733-3.153 18.796 4.312 6.063 12.719 7.491 18.796 3.153l34.506-24.589 51.173 76.328c4.15 6.198 12.517 7.828 18.701 3.692 6.184-4.15 7.828-12.531 3.692-18.701l-58.893-87.848c-2.035-3.032-5.201-5.107-8.771-5.753-0.822-0.148-1.644-0.216-2.452-0.216zM363.789 70.737h-26.947c-7.437 0-13.474 6.023-13.474 13.474s6.036 13.474 13.474 13.474h26.947c7.437 0 13.474-6.023 13.474-13.474s-6.036-13.474-13.474-13.474zM431.158 353.684h-125.049c-20.197 0-36.635 15.872-36.635 35.368v131.368c0 19.496 16.438 35.368 36.635 35.368h125.049c7.437 0 13.474-6.036 13.474-13.474v-175.158c0-7.451-6.036-13.474-13.474-13.474zM296.421 394.105v-5.053c0-4.648 4.339-8.421 9.688-8.421h111.576v26.947h-111.576c-5.255 0-9.688-6.171-9.688-13.474zM306.109 528.842c-5.349 0-9.688-3.773-9.688-8.421v-87.323c3.085 0.93 6.333 1.428 9.688 1.428h111.576v94.316h-111.576zM746.415 400.573c-2.776 0-5.511 0.862-7.815 2.506l-45.784 32.633c-6.063 4.312-7.478 12.719-3.153 18.782s12.719 7.505 18.796 3.153l34.506-24.589 51.173 76.328c4.15 6.184 12.517 7.842 18.701 3.692s7.828-12.517 3.692-18.688l-58.893-87.848c-2.035-3.032-5.201-5.107-8.771-5.753-0.822-0.148-1.644-0.216-2.452-0.216zM390.737 690.526c-7.437 0-13.474 6.036-13.474 13.474v60.632h-53.895v-60.632c0-7.437-6.036-13.474-13.474-13.474s-13.474 6.036-13.474 13.474v134.737c0 7.437 6.036 13.474 13.474 13.474s13.474-6.036 13.474-13.474v-47.158h53.895v47.158c0 7.437 6.036 13.474 13.474 13.474s13.474-6.036 13.474-13.474v-134.737c0-7.437-6.036-13.474-13.474-13.474zM437.895 704c-7.437 0-13.474 6.036-13.474 13.474v107.789c0 7.437 6.036 13.474 13.474 13.474s13.474-6.036 13.474-13.474v-33.684h6.737c7.437 0 13.474-6.036 13.474-13.474s-6.036-13.474-13.474-13.474h-6.737v-47.158c0-7.437-6.036-13.474-13.474-13.474zM262.737 704c-7.437 0-13.474 6.036-13.474 13.474v47.158h-6.737c-7.437 0-13.474 6.036-13.474 13.474s6.036 13.474 13.474 13.474h6.737v33.684c0 7.437 6.036 13.474 13.474 13.474s13.474-6.036 13.474-13.474v-107.789c0-7.437-6.036-13.474-13.474-13.474zM746.415 710.481c-2.776 0-5.511 0.862-7.815 2.506l-45.784 32.62c-6.063 4.312-7.478 12.733-3.153 18.796 4.312 6.063 12.719 7.505 18.796 3.153l34.506-24.576 51.173 76.328c4.15 6.171 12.517 7.842 18.701 3.678 6.184-4.15 7.828-12.517 3.692-18.701l-58.893-87.835c-2.035-3.018-5.201-5.093-8.771-5.753-0.822-0.148-1.644-0.216-2.452-0.216z" />
</font>
</defs>
</svg>
