<svg width="159" height="130" viewBox="0 0 159 130" fill="none" xmlns="http://www.w3.org/2000/svg">
<path fill-rule="evenodd" clip-rule="evenodd" d="M24.3413 24.111C24.4329 23.8607 24.6207 23.6573 24.8629 23.546L73.02 1.41786C73.5218 1.18727 74.1156 1.40715 74.3462 1.90899L110.97 81.6129C111.201 82.1147 110.981 82.7085 110.479 82.9391L49.3676 111.02C48.8658 111.25 48.272 111.03 48.0414 110.529L17.4158 43.8785C17.3056 43.6388 17.2947 43.3651 17.3854 43.1173L24.3413 24.111Z" fill="#EEF2FD" stroke="#D1D9EF"/>
<rect x="25.1934" y="37.1074" width="51.9406" height="67.2867" transform="rotate(-24.6788 25.1934 37.1074)" fill="#FAFBFD"/>
<rect x="34.8906" y="46.3643" width="39.5738" height="9.9684" transform="rotate(-24.6788 34.8906 46.3643)" fill="#D1D9EF"/>
<rect x="43.2148" y="64.4805" width="39.5738" height="9.9684" transform="rotate(-24.6788 43.2148 64.4805)" fill="#D1D9EF"/>
<rect x="51.5391" y="82.5957" width="39.5738" height="9.96839" transform="rotate(-24.6788 51.5391 82.5957)" fill="#D1D9EF"/>
<path fill-rule="evenodd" clip-rule="evenodd" d="M24.4883 23.7182L30.3145 36.3977C30.5451 36.8995 30.3252 37.4933 29.8234 37.7239L17.2438 43.5042L24.4883 23.7182Z" fill="#D1D9EF"/>
<path fill-rule="evenodd" clip-rule="evenodd" d="M78.5634 8.29561C78.7512 8.10641 79.0067 8 79.2732 8H147C147.552 8 148 8.44772 148 9V121C148 121.552 147.552 122 147 122H61C60.4477 122 60 121.552 60 121V27.4138C60 27.1499 60.1043 26.8967 60.2902 26.7094L78.5634 8.29561Z" fill="#E4E8F3" stroke="#BDC7E2"/>
<rect x="72.5723" y="23.833" width="66" height="85.5" fill="#EDEFF5"/>
<rect x="78.8574" y="39.667" width="50.2857" height="12.6667" fill="#BDC7E2"/>
<rect x="78.8574" y="65" width="50.2857" height="12.6667" fill="#BDC7E2"/>
<rect x="78.8574" y="90.334" width="50.2857" height="12.6667" fill="#BDC7E2"/>
<path fill-rule="evenodd" clip-rule="evenodd" d="M78.8621 8V26.0018C78.8621 26.5541 78.4144 27.0018 77.8621 27.0018H60L78.8621 8Z" fill="#BDC7E2"/>
<path d="M60.2363 127.737C67.6922 127.737 73.7363 121.693 73.7363 114.237C73.7363 106.781 67.6922 100.737 60.2363 100.737C52.7805 100.737 46.7363 106.781 46.7363 114.237C46.7363 121.693 52.7805 127.737 60.2363 127.737Z" fill="#303450"/>
<path fill-rule="evenodd" clip-rule="evenodd" d="M61.7363 107.737C61.7363 107.185 61.2886 106.737 60.7363 106.737H59.7363C59.184 106.737 58.7363 107.185 58.7363 107.737V112.737H53.7363C53.184 112.737 52.7363 113.185 52.7363 113.737V114.737C52.7363 115.29 53.184 115.737 53.7363 115.737H58.7363V120.737C58.7363 121.29 59.184 121.737 59.7363 121.737H60.7363C61.2886 121.737 61.7363 121.29 61.7363 120.737V115.737H66.7363C67.2886 115.737 67.7363 115.29 67.7363 114.737V113.737C67.7363 113.185 67.2886 112.737 66.7363 112.737H61.7363V107.737Z" fill="white"/>
</svg>
