<svg width="27" height="34" viewBox="0 0 27 34" fill="none" xmlns="http://www.w3.org/2000/svg">
<path fill-rule="evenodd" clip-rule="evenodd" d="M6.05934 1.26038C6.2256 1.09366 6.45111 1 6.68625 1H24.936C25.4256 1 25.8225 1.39797 25.8225 1.88889V32.1111C25.8225 32.602 25.4256 33 24.936 33H1.88652C1.3969 33 1 32.602 1 32.1111V6.70201C1 6.46628 1.09339 6.2402 1.25962 6.0735L6.05934 1.26038Z" fill="#E4E8F3" stroke="#BDC7E2"/>
<rect x="3.65918" y="5.44531" width="19.5034" height="24" fill="#EDEFF5"/>
<rect x="5.43457" y="12.5547" width="5.06439" height="5.0813" rx="1.40176" fill="#BDC7E2"/>
<path fill-rule="evenodd" clip-rule="evenodd" d="M10.3988 21.8413C10.7017 21.4861 10.7017 20.9101 10.3988 20.5548C10.096 20.1995 9.605 20.1995 9.30216 20.5548L8.20422 21.8428C7.9014 22.198 7.41043 22.1981 7.10761 21.8428C6.8048 21.4876 6.31343 21.4881 6.01061 21.8433C5.70779 22.1985 5.70739 22.775 6.01021 23.1302L6.55838 23.7733C6.55845 23.7733 6.55845 23.7735 6.55838 23.7736C6.5583 23.7737 6.5583 23.7738 6.55838 23.7739L7.00619 24.2992C7.01246 24.3066 7.01879 24.3138 7.0252 24.3209L7.10653 24.4163C7.40958 24.7718 7.9009 24.7718 8.20394 24.4163L8.75262 23.7726C8.75264 23.7726 8.75264 23.7726 8.75262 23.7726C8.75261 23.7726 8.75261 23.7725 8.75262 23.7725L10.3988 21.8413Z" fill="#BDC7E2"/>
<rect x="13.4121" y="13.7852" width="7.36637" height="2.46191" rx="1" fill="#BDC7E2"/>
<rect x="13.4131" y="21.1719" width="7.36638" height="2.46191" rx="1" fill="#BDC7E2"/>
<path fill-rule="evenodd" clip-rule="evenodd" d="M6.32052 1V5.44487C6.32052 5.93578 5.92361 6.33374 5.434 6.33374H1L6.32052 1Z" fill="#BDC7E2"/>
</svg>
