<svg width="13" height="13" viewBox="0 0 13 13" fill="none" xmlns="http://www.w3.org/2000/svg">
<path d="M6.97412 11.0553C8.24716 11.0553 9.46806 10.5483 10.3682 9.64589C11.2684 8.74349 11.7741 7.51957 11.7741 6.24338C11.7741 4.96718 11.2684 3.74326 10.3682 2.84086C9.46806 1.93845 8.24716 1.43149 6.97412 1.43149C5.70108 1.43149 4.48018 1.93845 3.58001 2.84086C2.67983 3.74326 2.17412 4.96718 2.17412 6.24338C2.17412 7.51957 2.67983 8.74349 3.58001 9.64589C4.48018 10.5483 5.70108 11.0553 6.97412 11.0553ZM6.97412 0.228516C7.76205 0.228516 8.54227 0.384095 9.27022 0.68637C9.99818 0.988645 10.6596 1.4317 11.2168 1.99023C11.7739 2.54876 12.2159 3.21183 12.5174 3.94159C12.8189 4.67134 12.9741 5.45349 12.9741 6.24338C12.9741 7.83862 12.342 9.36852 11.2168 10.4965C10.0915 11.6245 8.56542 12.2582 6.97412 12.2582C3.65612 12.2582 0.974121 9.55155 0.974121 6.24338C0.974121 4.64814 1.60626 3.11823 2.73148 1.99023C3.8567 0.862222 5.38282 0.228516 6.97412 0.228516ZM7.27412 3.23595V6.39375L9.97412 7.99971L9.52412 8.73954L6.37412 6.84486V3.23595H7.27412Z" fill="#303450"/>
</svg>
