<?xml version="1.0" encoding="UTF-8"?>
<svg width="13px" height="12px" viewBox="0 0 13 12" version="1.1" xmlns="http://www.w3.org/2000/svg" xmlns:xlink="http://www.w3.org/1999/xlink">
    <!-- Generator: Sketch 60 (88103) - https://sketch.com -->
    <title>Combined Shape</title>
    <desc>Created with Sketch.</desc>
    <g id="ContentCreator" stroke="none" stroke-width="1" fill="none" fill-rule="evenodd">
        <g id="P1-QuizInsert&amp;EditCorrect" transform="translate(-1132.000000, -989.000000)" fill="#FFFFFF">
            <g id="Group-3" transform="translate(281.000000, 966.000000)">
                <g id="Group-5" transform="translate(846.000000, 17.000000)">
                    <path d="M8.91445782,13.9994661 L10.7420985,15.8284271 C11.1326228,16.2189514 11.1326228,16.8521164 10.7420985,17.2426407 C10.3515742,17.633165 9.71840923,17.633165 9.32788494,17.2426407 L5.79235104,13.7071068 L5.72,13.625 L5.722,13.628 L5.748,13.659 L5.73614502,13.6461138 L5.73614502,13.6461138 L5.722,13.628 L5.71606701,13.6215925 L5.68592122,13.5817796 L5.68592122,13.5817796 C5.67550773,13.5671275 5.6651147,13.551756 5.65514579,13.5360882 L5.64727471,13.5236789 L5.63983859,13.5114029 C5.63517381,13.503575 5.63062528,13.495697 5.62619301,13.4877715 C5.61449156,13.4667113 5.60345294,13.4452036 5.5931877,13.4232619 C5.5844304,13.4045951 5.57626311,13.3855721 5.56871313,13.3663626 C5.56499172,13.3569644 5.56129841,13.3471476 5.55775644,13.3372588 L5.55154409,13.3192208 C5.54477711,13.2990754 5.53866949,13.2787573 5.53322125,13.2583 C5.5306535,13.2490051 5.52818768,13.2391762 5.52586853,13.2292908 L5.52027197,13.2035208 C5.51649155,13.185247 5.5132261,13.166888 5.51047562,13.1484669 C5.50727114,13.1273875 5.50481684,13.1063311 5.50302674,13.0850857 C5.50159659,13.0678504 5.500572,13.0504453 5.5,13.0330282 L5.5,12.9669718 C5.500572,12.9495547 5.50159659,12.9321496 5.50307378,12.9147758 L5.50618555,12.8833789 L5.51047562,12.8515331 C5.5132261,12.833112 5.51649155,12.814753 5.52027197,12.7964792 C5.52196819,12.7878439 5.52386355,12.7792554 5.52586853,12.7707092 L5.53322125,12.7417 C5.53866949,12.7212427 5.54477711,12.7009246 5.55154409,12.6807792 C5.55697793,12.6645008 5.56271751,12.6488024 5.56883357,12.6332937 C5.57626311,12.6144279 5.5844304,12.5954049 5.59321499,12.576599 C5.60345294,12.5547964 5.61449156,12.5332887 5.62626848,12.5122503 C5.63062528,12.504303 5.63517381,12.496425 5.63983859,12.4885971 L5.64722762,12.4765639 C5.65957695,12.4565002 5.67261496,12.4369057 5.68630872,12.4178133 C5.69548075,12.4048869 5.70540786,12.3917355 5.71570253,12.3787805 C5.73986152,12.3484595 5.76533709,12.3199072 5.79235104,12.2928932 L9.32788494,8.75735931 C9.71840923,8.36683502 10.3515742,8.36683502 10.7420985,8.75735931 C11.1326228,9.1478836 11.1326228,9.78104858 10.7420985,10.1715729 L8.91445782,11.9994661 L15.499,12 L15.4994578,7 C15.4994578,6.44771525 15.9471731,6 16.4994578,6 C17.0517426,6 17.4994578,6.44771525 17.4994578,7 L17.4994578,13 L17.4994578,13 C17.4994578,13.5128358 17.1134176,13.9355072 16.6160789,13.9932723 L16.4994578,14 L16.4994578,14 L8.91445782,13.9994661 Z" id="Combined-Shape"></path>
                </g>
            </g>
        </g>
    </g>
</svg>