<svg width="16" height="16" xmlns="http://www.w3.org/2000/svg">
 <defs>
  <clipPath id="clip0">
   <rect id="svg_1" fill="white" height="16" width="16"/>
  </clipPath>
 </defs>
 <g>
  <rect fill="none" id="canvas_background" height="18" width="18" y="-1" x="-1"/>
 </g>
 <g>
  <path fill="#303450" id="svg_3" stroke-linejoin="round" stroke-linecap="round" stroke-width="1.5" stroke="#ffffff" d="m9.41268,9.41368c-0.1831,0.19649 -0.4039,0.3541 -0.64923,0.46341c-0.24533,0.10931 -0.51017,0.16811 -0.77871,0.17281c-0.26854,0.0048 -0.53528,-0.0446 -0.78432,-0.14523c-0.24903,-0.10059 -0.47526,-0.25031 -0.66517,-0.44023c-0.18992,-0.18991 -0.33964,-0.41614 -0.44023,-0.66517c-0.10059,-0.24904 -0.14999,-0.51578 -0.14525,-0.78432c0.00474,-0.26854 0.06352,-0.53338 0.17283,-0.77871c0.10931,-0.24533 0.26692,-0.46613 0.46342,-0.64923m5.37328,5.37329c-1.1396,0.8687 -2.52721,1.35 -3.95995,1.3734c-4.66667,0 -7.333334,-5.33336 -7.333334,-5.33336c0.829264,-1.5454 1.979424,-2.89559 3.373334,-3.96l7.91995,7.91996zm-5.35995,-9.13329c0.45889,-0.10741 0.92871,-0.16111 1.4,-0.16c4.66665,0 7.33335,5.33333 7.33335,5.33333c-0.4047,0.75707 -0.8873,1.46983 -1.44,2.12666l-7.29335,-7.29999z"/>
  <path id="svg_4" stroke-linejoin="round" stroke-linecap="round" stroke-width="1.5" stroke="#ffffff" d="m0.666016,0.666992l14.666684,14.666708"/>
 </g>
</svg>
