<svg width="20" height="13" viewBox="0 0 20 13" fill="none" xmlns="http://www.w3.org/2000/svg">
<mask id="path-2-inside-1" fill="white">
<path fill-rule="evenodd" clip-rule="evenodd" d="M3.82812 4.2963V8.73368V9.20037H3.89404C4.34517 10.7832 7.05709 12 10.3352 12C13.6132 12 16.3252 10.7832 16.7763 9.20037H16.8422V8.73368V4.2196L10.5556 6.02284L3.82812 4.2963Z"/>
</mask>
<path fill-rule="evenodd" clip-rule="evenodd" d="M3.82812 4.2963V8.73368V9.20037H3.89404C4.34517 10.7832 7.05709 12 10.3352 12C13.6132 12 16.3252 10.7832 16.7763 9.20037H16.8422V8.73368V4.2196L10.5556 6.02284L3.82812 4.2963Z" fill="#365693"/>
<path d="M3.82812 4.2963L4.12643 3.13396L2.62812 2.74944V4.2963H3.82812ZM3.82812 9.20037H2.62812V10.4004H3.82812V9.20037ZM3.89404 9.20037L5.04809 8.87146L4.79982 8.00037H3.89404V9.20037ZM16.7763 9.20037V8.00037H15.8705L15.6222 8.87146L16.7763 9.20037ZM16.8422 9.20037V10.4004H18.0422V9.20037H16.8422ZM16.8422 4.2196H18.0422V2.62701L16.5113 3.06612L16.8422 4.2196ZM10.5556 6.02284L10.2573 7.18517L10.573 7.26622L10.8864 7.17633L10.5556 6.02284ZM2.62812 4.2963V8.73368H5.02813V4.2963H2.62812ZM2.62812 8.73368V9.20037H5.02813V8.73368H2.62812ZM3.82812 10.4004H3.89404V8.00037H3.82812V10.4004ZM2.74 9.52928C3.11189 10.8341 4.30641 11.7371 5.57232 12.2926C6.89272 12.872 8.55886 13.2 10.3352 13.2V10.8C8.8334 10.8 7.50454 10.5196 6.53668 10.0949C5.51433 9.64627 5.12732 9.14947 5.04809 8.87146L2.74 9.52928ZM10.3352 13.2C12.1115 13.2 13.7776 12.872 15.098 12.2926C16.3639 11.7371 17.5584 10.8341 17.9303 9.52928L15.6222 8.87146C15.543 9.14947 15.156 9.64627 14.1336 10.0949C13.1658 10.5196 11.8369 10.8 10.3352 10.8V13.2ZM16.7763 10.4004H16.8422V8.00037H16.7763V10.4004ZM18.0422 9.20037V8.73368H15.6422V9.20037H18.0422ZM18.0422 8.73368V4.2196H15.6422V8.73368H18.0422ZM16.5113 3.06612L10.2247 4.86936L10.8864 7.17633L17.1731 5.37309L16.5113 3.06612ZM10.8539 4.86051L4.12643 3.13396L3.52982 5.45863L10.2573 7.18517L10.8539 4.86051Z" fill="#303450" mask="url(#path-2-inside-1)"/>
<path d="M1 3.81048L10.5 1L19 3.81048L10.5 6.36605L1 3.81048Z" fill="#365693" stroke="#365693" stroke-width="1.2" stroke-linecap="round" stroke-linejoin="round"/>
<path d="M1.73828 4.2196V11.6854" stroke="#365693" stroke-width="1.2" stroke-linecap="round" stroke-linejoin="round"/>
</svg>
