<svg width="43" height="43" viewBox="0 0 43 43" fill="none" xmlns="http://www.w3.org/2000/svg">
<path fill-rule="evenodd" clip-rule="evenodd" d="M24 7H3.99993L3.70255 7.01103C1.64006 7.16446 0 8.9 0 11V39L0.0110254 39.2974C0.16446 41.3599 1.89997 43 3.99993 43H31.9995L32.2968 42.989C34.3593 42.8355 35.9994 41.1 35.9994 39L35.9998 19C29.3725 18.9999 24 13.6274 24 7Z" fill="#618AD8"/>
<path d="M22.9996 25L15.9997 34.02L10.9998 28L3.99994 37H31.9995L22.9996 25Z" fill="white" fill-opacity="0.5"/>
<path fill-rule="evenodd" clip-rule="evenodd" d="M43 7C43 3.13401 39.866 0 36 0C32.134 0 29 3.13401 29 7C29 10.866 32.134 14 36 14C39.866 14 43 10.866 43 7ZM35.5 6.5V4H36.5V6.5H39V7.5H36.5V10H35.5V7.5H33V6.5H35.5Z" fill="#618AD8"/>
</svg>
