<svg width="200" height="200" viewBox="0 0 200 200" fill="none" xmlns="http://www.w3.org/2000/svg">
<path d="M143.583 61.1666H96.9166V142.833H143.583C145.196 142.833 146.5 141.53 146.5 139.917V64.0833C146.5 62.4704 145.196 61.1666 143.583 61.1666Z" fill="#4CAF50"/>
<path d="M117.333 75.75H137.75V84.5H117.333V75.75ZM117.333 104.917H137.75V113.667H117.333V104.917ZM117.333 119.5H137.75V128.25H117.333V119.5ZM117.333 90.3334H137.75V99.0834H117.333V90.3334ZM96.9166 75.75H111.5V84.5H96.9166V75.75ZM96.9166 104.917H111.5V113.667H96.9166V104.917ZM96.9166 119.5H111.5V128.25H96.9166V119.5ZM96.9166 90.3334H111.5V99.0834H96.9166V90.3334Z" fill="white"/>
<path d="M102.75 154.5L41.5 142.833V61.1667L102.75 49.5V154.5Z" fill="#2E7D32"/>
<path d="M79.7928 122.417L72.7608 109.114C72.4924 108.615 72.2183 107.705 71.9324 106.378H71.8245C71.6904 107.005 71.3754 107.956 70.8795 109.233L63.8183 122.417H52.8604L65.8745 101.997L53.9658 81.5833H65.157L70.9933 93.8217C71.4483 94.7871 71.8566 95.9362 72.2183 97.2604H72.3349C72.5624 96.47 72.9883 95.2771 73.6154 93.7021L80.1078 81.5833H90.3599L78.1128 101.822L90.7011 122.411H79.7928V122.417V122.417Z" fill="white"/>
<g filter="url(#filter0_d)">
<path d="M137 161.851C123.278 161.851 112.149 150.722 112.149 137C112.149 123.278 123.278 112.149 137 112.149C150.722 112.149 161.851 123.278 161.851 137C161.851 150.722 150.722 161.851 137 161.851Z" fill="#CCCCCC"/>
<path d="M137 114.04C124.322 114.04 114.04 124.322 114.04 137C114.04 149.678 124.322 159.96 137 159.96C149.678 159.96 159.96 149.678 159.96 137C159.96 124.322 149.678 114.04 137 114.04ZM148.48 138.914H138.914V148.48C138.914 149.537 138.057 150.394 137 150.394C135.943 150.394 135.086 149.537 135.086 148.48V138.914H125.52C124.463 138.914 123.606 138.057 123.606 137C123.606 135.943 124.463 135.086 125.52 135.086H135.086V125.52C135.086 124.463 135.943 123.606 137 123.606C138.057 123.606 138.914 124.463 138.914 125.52V135.086H148.48C149.537 135.086 150.394 135.943 150.394 137C150.394 138.057 149.537 138.914 148.48 138.914Z" fill="black"/>
</g>
<defs>
<filter id="filter0_d" x="86" y="85.9999" width="102" height="102" filterUnits="userSpaceOnUse" color-interpolation-filters="sRGB">
<feFlood flood-opacity="0" result="BackgroundImageFix"/>
<feColorMatrix in="SourceAlpha" type="matrix" values="0 0 0 0 0 0 0 0 0 0 0 0 0 0 0 0 0 0 127 0"/>
<feOffset/>
<feGaussianBlur stdDeviation="8"/>
<feColorMatrix type="matrix" values="0 0 0 0 0 0 0 0 0 0 0 0 0 0 0 0 0 0 0.25 0"/>
<feBlend mode="normal" in2="BackgroundImageFix" result="effect1_dropShadow"/>
<feBlend mode="normal" in="SourceGraphic" in2="effect1_dropShadow" result="shape"/>
</filter>
</defs>
</svg>
