<svg width="17" height="21" viewBox="0 0 17 21" fill="none" xmlns="http://www.w3.org/2000/svg">
<path fill-rule="evenodd" clip-rule="evenodd" d="M3.60078 0H13.4008C14.9472 0 16.2008 1.2536 16.2008 2.8V18.2C16.2008 19.7464 14.9472 21 13.4008 21H3.60078C2.05438 21 0.800781 19.7464 0.800781 18.2V2.8C0.800781 1.2536 2.05438 0 3.60078 0ZM3.60078 1.4C2.82758 1.4 2.20078 2.0268 2.20078 2.8V18.2C2.20078 18.9732 2.82758 19.6 3.60078 19.6H13.4008C14.174 19.6 14.8008 18.9732 14.8008 18.2V2.8C14.8008 2.0268 14.174 1.4 13.4008 1.4H3.60078Z" fill="#303450"/>
</svg>
