<svg width="24" height="24" viewBox="0 0 24 24" fill="none" xmlns="http://www.w3.org/2000/svg">
<path fill-rule="evenodd" clip-rule="evenodd" d="M11.9996 6.44447C13.2269 6.44447 14.2218 5.44954 14.2218 4.22223C14.2218 2.99493 13.2269 2 11.9996 2C10.7723 2 9.77734 2.99493 9.77734 4.22223C9.77734 5.44954 10.7723 6.44447 11.9996 6.44447ZM11.9996 14.222C13.2269 14.222 14.2218 13.2271 14.2218 11.9998C14.2218 10.7724 13.2269 9.77752 11.9996 9.77752C10.7723 9.77752 9.77734 10.7724 9.77734 11.9998C9.77734 13.2271 10.7723 14.222 11.9996 14.222ZM14.2218 19.7781C14.2218 21.0054 13.2269 22.0003 11.9996 22.0003C10.7723 22.0003 9.77734 21.0054 9.77734 19.7781C9.77734 18.5508 10.7723 17.5559 11.9996 17.5559C13.2269 17.5559 14.2218 18.5508 14.2218 19.7781Z" fill="#303450"/>
</svg>
