<?xml version="1.0" encoding="UTF-8"?>
<svg width="15px" height="15px" viewBox="0 0 15 15" version="1.1" xmlns="http://www.w3.org/2000/svg" xmlns:xlink="http://www.w3.org/1999/xlink">
    <!-- Generator: Sketch 60 (88103) - https://sketch.com -->
    <title>Shape</title>
    <desc>Created with Sketch.</desc>
    <g id="Page-1" stroke="none" stroke-width="1" fill="none" fill-rule="evenodd">
        <g id="Group" fill="#303450" fill-rule="nonzero">
            <path d="M7,1 L7,3 L2,3 L2,13 L12,13 L12,8 L14,8 L14,13 C14,14.0543764 13.1841361,14.9181664 12.1492642,14.9945144 L12,15 L2,15 C0.945639097,15 0.0818349593,14.1841326 0.00548574196,13.1492638 L0,13 L0,3 C0,1.94564274 0.815882118,1.08183529 1.85073825,1.00548576 L2,1 L7,1 Z M14.0084839,0.991699219 L14.0084839,6.50622559 L12.0084839,6.50622559 L12.008,4.40569922 L5.08210678,11.3321068 L3.66789322,9.91789322 L10.594,2.99069922 L8.5,2.99169922 L8.5,0.991699219 L14.0084839,0.991699219 Z" id="Shape"></path>
        </g>
    </g>
</svg>