<svg width="19" height="16" viewBox="0 0 19 16" fill="none" xmlns="http://www.w3.org/2000/svg">
<path fill-rule="evenodd" clip-rule="evenodd" d="M17.2188 1.33333H1.78125C1.62378 1.33333 1.47276 1.40357 1.36141 1.5286C1.25006 1.65362 1.1875 1.82319 1.1875 2V14C1.1875 14.1768 1.25006 14.3464 1.36141 14.4714C1.47276 14.5964 1.62378 14.6667 1.78125 14.6667H17.2188C17.3762 14.6667 17.5272 14.5964 17.6386 14.4714C17.7499 14.3464 17.8125 14.1768 17.8125 14V2C17.8125 1.82319 17.7499 1.65362 17.6386 1.5286C17.5272 1.40357 17.3762 1.33333 17.2188 1.33333ZM1.78125 0C1.30883 0 0.855765 0.210714 0.521716 0.585787C0.187667 0.960859 0 1.46957 0 2L0 14C0 14.5304 0.187667 15.0391 0.521716 15.4142C0.855765 15.7893 1.30883 16 1.78125 16H17.2188C17.6912 16 18.1442 15.7893 18.4783 15.4142C18.8123 15.0391 19 14.5304 19 14V2C19 1.46957 18.8123 0.960859 18.4783 0.585787C18.1442 0.210714 17.6912 0 17.2188 0H1.78125Z" fill="#8799BA"/>
<path d="M13.402 7.2123C13.4975 7.10457 13.6205 7.03354 13.7536 7.00927C13.8868 6.98499 14.0233 7.00869 14.1439 7.07702L19 9.90905V15H1V13.5454L4.402 10.1214C4.50709 10.003 4.64515 9.92927 4.79278 9.91283C4.94041 9.89639 5.08852 9.93823 5.212 10.0312L8.632 12.6102L13.402 7.21375V7.2123Z" fill="#8799BA"/>
<path fill-rule="evenodd" clip-rule="evenodd" d="M6.19141 6.625C6.46226 6.625 6.73046 6.57165 6.98069 6.468C7.23092 6.36435 7.45829 6.21243 7.64981 6.02091C7.84133 5.82939 7.99326 5.60202 8.09691 5.35178C8.20056 5.10155 8.25391 4.83335 8.25391 4.5625C8.25391 4.29165 8.20056 4.02345 8.09691 3.77322C7.99326 3.52298 7.84133 3.29561 7.64981 3.10409C7.45829 2.91257 7.23092 2.76065 6.98069 2.657C6.73046 2.55335 6.46226 2.5 6.19141 2.5C5.6444 2.5 5.11979 2.7173 4.733 3.10409C4.3462 3.49089 4.12891 4.01549 4.12891 4.5625C4.12891 5.10951 4.3462 5.63411 4.733 6.02091C5.11979 6.4077 5.6444 6.625 6.19141 6.625Z" fill="#8799BA"/>
</svg>
