<svg width="12" height="12" viewBox="0 0 12 12" fill="none" xmlns="http://www.w3.org/2000/svg">
<path d="M6.0013 0.166992C2.7848 0.166992 0.167969 2.78383 0.167969 6.00033C0.167969 9.21683 2.7848 11.8337 6.0013 11.8337C9.2178 11.8337 11.8346 9.21683 11.8346 6.00033C11.8346 2.78383 9.2178 0.166992 6.0013 0.166992ZM6.58464 9.50033H5.41797V8.33366H6.58464V9.50033ZM7.15397 6.65074C7.03964 6.74291 6.92939 6.83099 6.84189 6.91849C6.60389 7.15591 6.58522 7.37174 6.58464 7.38108V7.45866H5.41797V7.36124C5.41797 7.29241 5.43489 6.67466 6.01647 6.09308C6.13022 5.97933 6.27139 5.86383 6.41955 5.74366C6.84772 5.39658 7.12889 5.14341 7.12889 4.79458C7.12211 4.49989 7.00026 4.21955 6.78942 4.01356C6.57858 3.80757 6.29549 3.69227 6.00073 3.69235C5.70596 3.69243 5.42293 3.80787 5.2122 4.01397C5.00146 4.22007 4.87976 4.50047 4.87314 4.79516H3.70647C3.70647 3.52991 4.73605 2.50033 6.0013 2.50033C7.26655 2.50033 8.29614 3.52991 8.29614 4.79516C8.29614 5.72674 7.60839 6.28266 7.15397 6.65074Z" fill="#8799BA"/>
</svg>
