<svg width="161" height="185" viewBox="0 0 161 185" fill="none" xmlns="http://www.w3.org/2000/svg">
<g filter="url(#filter0_d)">
<path d="M4 44.0664L80.134 0L157 44.0664L80.134 88.1328L4 44.0664Z" fill="#EDEFF5"/>
<path d="M157.001 44.0664V132.934L80.1348 177V88.1328L157.001 44.0664Z" fill="#BDC7E2"/>
<path d="M4 44.0664L80.134 88.1328V177L4 132.934V44.0664Z" fill="#E4E8F3"/>
<path d="M92.4319 102.968C91.041 103.776 89.9429 104.805 89.0644 106.053C88.186 107.302 87.7467 108.55 87.7467 109.652C87.7467 110.68 88.0396 111.341 88.7716 111.635C89.4305 111.929 90.6018 111.855 92.0659 111.488C93.3104 111.194 94.1156 111.047 94.5549 111.194C94.9941 111.341 95.2137 111.782 95.2137 112.443C95.2137 113.177 94.9209 113.912 94.4085 114.573C93.896 115.307 93.164 115.895 92.2123 116.482C91.1874 117.07 90.3821 117.29 89.7965 117.143C89.2109 116.996 88.918 116.409 88.918 115.527L87.0879 116.556C87.0879 117.437 87.3075 118.024 87.6735 118.465C88.1128 118.906 88.6984 119.053 89.5037 118.979C90.3089 118.906 91.1874 118.612 92.1391 118.024C93.6032 117.217 94.7013 116.188 95.5798 114.94C96.4582 113.691 96.8975 112.516 96.8975 111.341C96.8975 110.607 96.751 110.019 96.4582 109.652C96.1654 109.285 95.7262 109.064 95.0673 108.991C94.4085 108.917 93.53 109.064 92.4319 109.358C91.3338 109.652 90.5286 109.725 90.0893 109.578C89.6501 109.432 89.4305 109.064 89.4305 108.477C89.4305 107.742 89.7233 107.008 90.2357 106.273C90.7482 105.539 91.407 104.951 92.2855 104.437C93.2372 103.85 93.9692 103.703 94.4817 103.923C94.9941 104.144 95.2137 104.658 95.2137 105.612L97.0439 104.584C97.0439 103.776 96.8975 103.115 96.4582 102.675C96.0922 102.234 95.5065 102.014 94.7745 102.014C94.1888 102.161 93.3836 102.454 92.4319 102.968Z" fill="white"/>
<path d="M104.583 95.9923C103.485 96.6533 102.533 97.4612 101.728 98.4894C100.923 99.5176 100.264 100.693 99.7516 102.015C99.3124 103.337 99.0195 104.659 99.0195 106.054V107.45C99.0195 109.579 99.4588 110.975 100.41 111.636C101.362 112.297 102.607 112.223 104.217 111.269C105.681 110.387 106.926 109.286 107.804 107.964C108.683 106.568 109.268 105.099 109.415 103.41L107.585 104.438C107.365 105.76 106.999 106.789 106.487 107.596C105.974 108.404 105.169 109.065 104.217 109.653C103.119 110.314 102.241 110.314 101.655 109.726C101.069 109.139 100.776 108.037 100.776 106.421V104.952C100.776 103.263 101.142 101.721 101.801 100.472C102.46 99.1504 103.339 98.1956 104.51 97.5346C105.462 97.0205 106.194 96.8002 106.706 97.0939C107.219 97.3143 107.511 97.9753 107.658 99.0769L109.488 98.0487C109.342 96.5798 108.902 95.6985 108.024 95.2578C107.145 94.8906 105.974 95.111 104.583 95.9923Z" fill="white"/>
<path d="M116.737 102.308C115.565 102.969 114.687 103.042 114.028 102.381C113.369 101.794 113.076 100.619 113.076 98.9294V97.8278C113.15 96.1386 113.442 94.6697 114.101 93.3477C114.76 92.0257 115.639 91.0709 116.81 90.4099C117.981 89.7489 118.86 89.6755 119.518 90.2631C120.177 90.8506 120.47 91.9523 120.397 93.7149V94.8166C120.324 96.5058 120.031 98.0481 119.372 99.2967C118.86 100.619 117.908 101.647 116.737 102.308ZM116.956 88.7942C115.858 89.3817 114.906 90.2631 114.101 91.2913C113.296 92.3195 112.637 93.568 112.125 94.89C111.685 96.212 111.393 97.6074 111.393 99.0763V100.178C111.393 101.573 111.612 102.675 112.051 103.483C112.491 104.291 113.15 104.732 113.955 104.805C114.76 104.878 115.712 104.658 116.81 103.997C117.908 103.336 118.86 102.528 119.665 101.5C120.47 100.472 121.129 99.2967 121.568 97.9012C122.007 96.5792 122.3 95.1838 122.3 93.7149V92.7601C122.3 91.2913 122.081 90.1896 121.715 89.3817C121.275 88.5738 120.69 88.0597 119.811 87.9863C119.006 87.8394 118.054 88.1332 116.956 88.7942Z" fill="white"/>
<path d="M126.766 90.4102L126.839 84.8285L129.548 83.2127C130.499 82.6986 131.231 82.4783 131.67 82.6986C132.183 82.9189 132.403 83.433 132.403 84.3878C132.403 85.1957 132.11 86.077 131.597 86.8849C131.085 87.6928 130.353 88.3538 129.474 88.8679L126.766 90.4102ZM129.621 81.6704L125.155 84.3144L124.936 99.0766L126.766 98.0484L126.839 92.0994L130.06 90.2633L132.915 94.5231L134.818 93.4214V93.2745L131.744 88.8679C132.549 88.06 133.208 87.1787 133.647 86.2239C134.086 85.2691 134.379 84.3144 134.379 83.433C134.379 81.9642 134.013 81.1563 133.208 80.8625C132.256 80.4218 131.085 80.7891 129.621 81.6704Z" fill="white"/>
<path d="M150.338 69.625L148.069 70.947L143.457 85.5623L139.137 76.0881L136.868 77.4101L136.648 92.2457L138.405 91.1441L138.479 85.4155L138.405 79.3196L142.725 88.7204L144.042 87.9125L148.727 73.3706L148.435 79.6868L148.361 85.4155L150.118 84.3872L150.338 69.625Z" fill="white"/>
<path d="M125.375 133.595C124.936 133.816 124.57 133.669 124.57 133.155L124.789 116.63C124.789 116.409 124.862 116.116 125.009 115.895L127.937 111.121C128.083 110.901 128.303 110.681 128.523 110.534L139.43 104.218C139.87 103.997 140.236 104.144 140.236 104.658L139.943 124.268C139.943 124.782 139.577 125.37 139.138 125.59L125.375 133.595ZM141.114 101.28L127.644 109.138C127.498 109.212 127.278 109.432 127.205 109.579L123.618 115.455C123.471 115.675 123.398 115.895 123.398 116.042L123.105 136.166C123.105 136.533 123.398 136.68 123.764 136.46L140.821 126.545C141.187 126.324 141.48 125.884 141.48 125.443L141.846 101.5C141.773 101.206 141.48 101.06 141.114 101.28Z" fill="white"/>
<path d="M139.429 104.805L128.522 111.121C128.449 111.195 128.375 111.268 128.302 111.341V111.415L128.229 113.912L138.331 108.036L138.112 123.607L126.984 130.07L127.204 115.014L125.447 116.042V116.115C125.374 116.189 125.374 116.262 125.374 116.336L125.154 132.861C125.154 133.007 125.301 133.081 125.447 133.007L139.21 125.002C139.356 124.929 139.503 124.708 139.503 124.561L139.795 104.952C139.722 104.731 139.576 104.658 139.429 104.805Z" fill="#E4E8F3"/>
<path d="M125.083 116.262L128.304 110.974V111.415V111.342C128.377 111.268 128.45 111.195 128.523 111.121L139.431 104.805C139.577 104.732 139.724 104.805 139.724 104.952L139.431 124.562C139.431 124.708 139.285 124.929 139.138 125.002L125.376 133.008C125.229 133.081 125.083 133.008 125.083 132.861L125.302 116.336C125.302 116.262 125.302 116.189 125.376 116.115V116.042L125.083 116.262ZM139.431 104.218L128.523 110.534C128.304 110.681 128.084 110.827 127.938 111.121L125.01 115.895C124.863 116.115 124.79 116.409 124.79 116.63L124.57 133.154C124.57 133.669 124.936 133.815 125.376 133.595L139.138 125.59C139.577 125.369 139.944 124.708 139.944 124.268L140.236 104.658C140.236 104.144 139.87 103.924 139.431 104.218Z" fill="#BDC7E2"/>
<path d="M128.082 128.233V125.883L136.574 120.962V123.313L128.082 128.233ZM128.156 123.68V121.403L136.648 116.482V118.759L128.156 123.68ZM128.229 119.053V116.776L136.721 111.855V114.132L128.229 119.053ZM138.331 107.963L128.229 113.838C128.229 114.132 128.009 114.573 127.716 114.72L127.204 115.014L126.984 130.07L138.112 123.606L138.331 107.963Z" fill="#EDEFF5"/>
<path d="M136.722 111.781L128.23 116.702V119.052L136.649 114.131L136.722 111.781Z" fill="#BDC7E2"/>
<path d="M136.648 116.41L128.156 121.331V123.681L136.575 118.76L136.648 116.41Z" fill="#BDC7E2"/>
<path d="M136.576 121.037L128.084 125.958V128.235L136.576 123.314V121.037Z" fill="#BDC7E2"/>
<path d="M128.303 110.975L125.082 116.263L125.448 116.042L127.205 115.014L127.717 114.72C128.01 114.573 128.23 114.133 128.23 113.839L128.303 111.342V110.975Z" fill="#BDC7E2"/>
<path d="M100.851 136.313L100.924 130.217C100.924 129.996 100.997 129.703 101.144 129.482L104.072 124.709C104.218 124.488 104.438 124.268 104.657 124.121L115.565 117.805C116.004 117.584 116.37 117.731 116.37 118.172L116.078 137.782C116.078 138.296 115.712 138.883 115.272 139.104L101.51 147.109C101.07 147.329 100.704 147.182 100.704 146.668L100.778 143.216L100.485 143.363C100.192 143.51 99.9723 143.437 99.9723 143.07L100.045 137.267C100.045 136.974 100.265 136.533 100.558 136.386L100.851 136.313ZM117.249 114.794L103.779 122.652C103.633 122.726 103.413 122.946 103.34 123.093L99.7527 128.968C99.6063 129.189 99.5331 129.409 99.5331 129.556L99.2402 149.679C99.2402 150.047 99.5331 150.194 99.8991 149.973L116.956 140.058C117.322 139.838 117.615 139.397 117.615 138.957L117.981 115.014C117.908 114.72 117.615 114.573 117.249 114.794Z" fill="white"/>
<path d="M103.34 128.528L101.583 129.556V129.63C101.51 129.703 101.51 129.777 101.51 129.85L101.436 135.946L103.267 134.844L103.34 128.528ZM115.565 118.319L104.657 124.635C104.584 124.709 104.511 124.782 104.438 124.856V124.929L104.365 127.426L114.467 121.551L114.247 137.121L103.12 143.584V141.821L101.29 142.923L101.217 146.375C101.217 146.522 101.363 146.595 101.51 146.522L115.272 138.516C115.419 138.443 115.565 138.223 115.565 138.076L115.858 118.466C115.858 118.246 115.712 118.246 115.565 118.319Z" fill="#E4E8F3"/>
<path d="M115.639 117.731L104.731 124.047C104.512 124.194 104.292 124.341 104.146 124.635L101.218 129.409C101.071 129.629 100.998 129.923 100.998 130.143L100.925 136.239L101.437 135.945L101.51 129.849C101.51 129.776 101.51 129.703 101.584 129.629V129.556L101.218 129.776L104.439 124.488V124.929V124.855C104.512 124.782 104.585 124.708 104.658 124.635L115.566 118.319C115.712 118.245 115.859 118.319 115.859 118.466L115.566 138.075C115.566 138.222 115.419 138.442 115.273 138.516L101.51 146.521C101.364 146.595 101.218 146.521 101.218 146.374L101.291 142.922L100.778 143.216L100.705 146.668C100.705 147.182 101.071 147.329 101.51 147.109L115.273 139.103C115.712 138.883 116.078 138.222 116.078 137.781L116.371 118.172C116.371 117.658 116.005 117.437 115.639 117.731Z" fill="#BDC7E2"/>
<path d="M104.365 132.567V130.217L112.857 125.296V127.647L104.365 132.567ZM114.467 121.551L104.365 127.426C104.365 127.72 104.145 128.161 103.852 128.308L103.34 128.601L103.267 134.991L112.271 129.777C112.564 129.63 112.783 129.703 112.783 130.07L112.71 135.872C112.71 136.166 112.49 136.607 112.198 136.754L103.193 141.968V143.731L114.321 137.268L114.467 121.551Z" fill="#EDEFF5"/>
<path d="M112.857 125.295L104.365 130.216V132.566L112.857 127.645V125.295Z" fill="#BDC7E2"/>
<path d="M104.438 124.488L101.217 129.776L101.583 129.556L103.34 128.528L103.852 128.234C104.145 128.087 104.365 127.646 104.365 127.353L104.438 124.856V124.488Z" fill="#BDC7E2"/>
<path d="M106.194 135.285L105.682 135.579L105.609 138.296L106.194 138.002C106.341 137.929 106.414 137.855 106.487 137.782C106.56 137.709 106.633 137.709 106.707 137.635C106.78 137.562 106.853 137.488 106.926 137.415C107.219 137.048 107.292 136.533 107.292 136.019C107.292 135.652 107.219 135.358 107.146 135.211C107.073 135.065 106.926 135.065 106.78 135.065C106.633 135.065 106.414 135.211 106.194 135.285ZM102.754 137.268L102.241 137.562V138.81L102.754 138.516C102.9 138.443 103.046 138.296 103.193 138.223C103.339 138.149 103.412 138.002 103.486 137.855C103.559 137.709 103.559 137.562 103.559 137.415C103.559 137.268 103.486 137.121 103.412 137.048C103.339 137.048 103.12 137.121 102.754 137.268ZM101.802 141.307C101.729 141.381 101.582 141.381 101.509 141.307C101.436 141.234 101.436 141.16 101.436 141.014L101.509 137.929C101.509 137.782 101.582 137.562 101.655 137.488C101.729 137.341 101.875 137.268 102.021 137.194L102.973 136.607C103.266 136.46 103.486 136.313 103.632 136.313C103.778 136.24 103.925 136.24 103.998 136.313C104.071 136.387 104.218 136.46 104.218 136.533C104.291 136.68 104.291 136.827 104.291 136.974C104.291 137.415 104.144 137.782 103.925 138.076C103.705 138.443 103.339 138.737 102.9 139.031L102.241 139.398V140.573C102.241 140.72 102.168 140.867 102.095 141.014C102.021 141.16 101.948 141.234 101.802 141.307ZM105.389 139.177C105.243 139.251 105.169 139.324 105.096 139.324C105.023 139.324 104.95 139.251 104.95 139.177C104.95 139.104 104.95 139.031 104.95 138.884L105.023 135.946C105.023 135.799 105.096 135.652 105.169 135.505C105.243 135.358 105.389 135.285 105.535 135.211L106.487 134.624C106.707 134.477 106.926 134.404 107.146 134.33C107.365 134.257 107.512 134.257 107.658 134.33C108.024 134.477 108.244 134.918 108.244 135.652C108.244 135.872 108.244 136.093 108.171 136.387C108.098 136.607 108.098 136.827 107.951 137.048C107.878 137.268 107.732 137.488 107.658 137.635C107.585 137.782 107.439 137.929 107.292 138.076C107.146 138.223 107.073 138.296 106.926 138.443C106.78 138.516 106.633 138.663 106.487 138.737L105.389 139.177ZM109.122 137.048C109.049 137.121 108.903 137.121 108.83 137.048C108.756 136.974 108.756 136.901 108.756 136.754L108.83 133.669C108.83 133.522 108.83 133.449 108.903 133.375C108.903 133.302 108.976 133.228 109.049 133.155C109.122 133.082 109.196 133.008 109.342 132.935L111.099 131.906C111.245 131.833 111.319 131.833 111.392 131.833C111.465 131.833 111.465 131.906 111.465 131.98C111.465 132.053 111.465 132.2 111.392 132.274C111.319 132.347 111.245 132.421 111.099 132.494L109.635 133.375V134.404L110.879 133.669C111.026 133.596 111.099 133.596 111.172 133.596C111.245 133.596 111.245 133.669 111.245 133.743C111.245 133.816 111.245 133.889 111.172 134.036C111.099 134.11 111.026 134.183 110.879 134.257L109.635 134.991V136.313C109.635 136.46 109.562 136.607 109.488 136.754C109.342 136.901 109.196 136.974 109.122 137.048ZM112.27 129.703L103.266 134.918L101.436 136.019L100.923 136.313L100.631 136.46C100.338 136.607 100.118 137.048 100.118 137.341L100.045 143.143C100.045 143.437 100.265 143.584 100.557 143.437L100.85 143.29L101.363 142.996L103.193 141.895L112.197 136.68C112.49 136.533 112.71 136.093 112.71 135.799L112.783 129.997C112.783 129.63 112.563 129.483 112.27 129.703Z" fill="#EF4141"/>
<path d="M102.241 138.81V137.562L102.753 137.268C103.119 137.048 103.339 136.974 103.412 137.048C103.485 137.121 103.559 137.195 103.559 137.415C103.559 137.562 103.485 137.709 103.485 137.856C103.412 138.002 103.339 138.076 103.192 138.223C103.046 138.37 102.9 138.443 102.753 138.517L102.241 138.81ZM102.973 136.534L102.021 137.121C101.875 137.195 101.728 137.341 101.655 137.415C101.582 137.562 101.509 137.709 101.509 137.856L101.436 140.94C101.436 141.087 101.436 141.234 101.509 141.234C101.582 141.307 101.655 141.234 101.802 141.234C101.875 141.161 102.021 141.087 102.094 140.94C102.168 140.793 102.168 140.646 102.241 140.5V139.324L102.9 138.957C103.339 138.663 103.705 138.37 103.925 138.002C104.144 137.635 104.291 137.268 104.291 136.901C104.291 136.68 104.291 136.534 104.217 136.46C104.144 136.313 104.071 136.24 103.998 136.24C103.851 136.166 103.778 136.166 103.632 136.24C103.485 136.313 103.266 136.387 102.973 136.534ZM105.681 138.37L105.755 135.652L106.267 135.358C106.487 135.212 106.706 135.138 106.853 135.065C106.999 134.991 107.146 135.065 107.219 135.212C107.365 135.358 107.365 135.579 107.365 136.019C107.365 136.607 107.219 137.048 106.999 137.415C106.926 137.488 106.853 137.562 106.78 137.635C106.706 137.709 106.633 137.782 106.56 137.782C106.487 137.856 106.414 137.929 106.267 138.002L105.681 138.37ZM106.414 134.551L105.462 135.138C105.315 135.212 105.169 135.358 105.096 135.432C105.023 135.579 104.949 135.726 104.949 135.873L104.876 138.81C104.876 138.957 104.876 139.031 104.876 139.104C104.876 139.178 104.949 139.178 105.023 139.251C105.096 139.251 105.169 139.251 105.315 139.104L106.267 138.517C106.414 138.443 106.56 138.296 106.706 138.223C106.853 138.149 106.999 138.002 107.072 137.856C107.219 137.709 107.292 137.562 107.438 137.415C107.585 137.195 107.658 137.048 107.731 136.827C107.804 136.607 107.878 136.387 107.951 136.166C108.024 135.946 108.024 135.726 108.024 135.432C108.024 134.697 107.878 134.257 107.438 134.11C107.292 134.036 107.146 134.036 106.926 134.11C106.853 134.33 106.633 134.404 106.414 134.551ZM111.025 131.907L109.269 132.935C109.195 133.008 109.049 133.082 108.976 133.155C108.903 133.229 108.829 133.302 108.829 133.375C108.829 133.449 108.756 133.596 108.756 133.669L108.683 136.754C108.683 136.901 108.683 137.048 108.756 137.048C108.829 137.048 108.903 137.048 109.049 137.048C109.122 136.974 109.269 136.901 109.342 136.754C109.415 136.607 109.415 136.46 109.488 136.313V134.991L110.733 134.257C110.879 134.183 110.952 134.11 111.025 134.036C111.099 133.963 111.099 133.89 111.099 133.743C111.099 133.596 111.099 133.596 111.025 133.596C110.952 133.596 110.879 133.596 110.733 133.669L109.488 134.404V133.375L110.952 132.494C111.099 132.421 111.172 132.347 111.245 132.274C111.318 132.2 111.318 132.053 111.318 131.98C111.318 131.907 111.318 131.833 111.245 131.833C111.245 131.76 111.172 131.833 111.025 131.907Z" fill="white"/>
<path d="M32.8438 60.7383L108.978 16.6719L124.571 25.3383L47.7045 69.4047L32.8438 60.7383Z" fill="#DDE2ED"/>
<path d="M32.7695 60.959L47.2643 69.4785V158.346L32.7695 149.826V60.959Z" fill="#EFF1F8"/>
</g>
<defs>
<filter id="filter0_d" x="0" y="0" width="161" height="185" filterUnits="userSpaceOnUse" color-interpolation-filters="sRGB">
<feFlood flood-opacity="0" result="BackgroundImageFix"/>
<feColorMatrix in="SourceAlpha" type="matrix" values="0 0 0 0 0 0 0 0 0 0 0 0 0 0 0 0 0 0 127 0"/>
<feOffset dy="4"/>
<feGaussianBlur stdDeviation="2"/>
<feColorMatrix type="matrix" values="0 0 0 0 0 0 0 0 0 0 0 0 0 0 0 0 0 0 0.03 0"/>
<feBlend mode="normal" in2="BackgroundImageFix" result="effect1_dropShadow"/>
<feBlend mode="normal" in="SourceGraphic" in2="effect1_dropShadow" result="shape"/>
</filter>
</defs>
</svg>
