<svg width="18" height="18" viewBox="0 0 18 18" fill="none" xmlns="http://www.w3.org/2000/svg">
<path d="M7.39009 14.7802C3.29712 14.7802 0 11.4831 0 7.39009C0 3.29712 3.29712 0 7.39009 0C11.4831 0 14.7802 3.29712 14.7802 7.39009C14.7802 11.4831 11.4831 14.7802 7.39009 14.7802ZM7.39009 1.13694C3.92243 1.13694 1.13694 3.92243 1.13694 7.39009C1.13694 10.8577 3.92243 13.6432 7.39009 13.6432C10.8577 13.6432 13.6432 10.8577 13.6432 7.39009C13.6432 3.92243 10.8577 1.13694 7.39009 1.13694Z" fill="#313552"/>
<path d="M12.8951 12.0879L18 17.1927L17.1962 17.9965L12.0913 12.8917L12.8951 12.0879Z" fill="#313552"/>
</svg>
