<?xml version="1.0" encoding="UTF-8"?>
<svg width="20px" height="20px" viewBox="0 0 20 20" version="1.1" xmlns="http://www.w3.org/2000/svg" xmlns:xlink="http://www.w3.org/1999/xlink">
    <!-- Generator: Sketch 60 (88103) - https://sketch.com -->
    <title>icons/search</title>
    <desc>Created with Sketch.</desc>
    <g id="icons/search" stroke="none" stroke-width="1" fill="none" fill-rule="evenodd">
        <path d="M8.00300785,1 C11.8706623,1 15.0060157,4.13535341 15.0060157,8.00300785 C15.0060157,9.5478314 14.5058097,10.9758256 13.6585264,12.1338616 L19,17.4763464 L17.4763464,19 L12.1338616,13.6585264 C10.9758256,14.5058097 9.5478314,15.0060157 8.00300785,15.0060157 C4.13535341,15.0060157 1,11.8706623 1,8.00300785 C1,4.13535341 4.13535341,1 8.00300785,1 Z M8.00300785,3.15477165 C5.32540093,3.15477165 3.15477165,5.32540093 3.15477165,8.00300785 C3.15477165,10.6806148 5.32540093,12.8512441 8.00300785,12.8512441 C10.6806148,12.8512441 12.8512441,10.6806148 12.8512441,8.00300785 C12.8512441,5.32540093 10.6806148,3.15477165 8.00300785,3.15477165 Z" id="Combined-Shape" fill="#000000" fill-rule="nonzero"></path>
    </g>
</svg>
