<svg width="24" height="24" viewBox="0 0 24 24" fill="none" xmlns="http://www.w3.org/2000/svg">
<path d="M17.5 8C18.8807 8 20 6.88071 20 5.5C20 4.11929 18.8807 3 17.5 3C16.1193 3 15 4.11929 15 5.5C15 6.88071 16.1193 8 17.5 8Z" stroke="#303450" stroke-width="2" stroke-linecap="round" stroke-linejoin="round"/>
<path d="M6.5 15C7.88071 15 9 13.6569 9 12C9 10.3431 7.88071 9 6.5 9C5.11929 9 4 10.3431 4 12C4 13.6569 5.11929 15 6.5 15Z" stroke="#303450" stroke-width="2" stroke-linecap="round" stroke-linejoin="round"/>
<path d="M17.5 21C18.8807 21 20 19.8807 20 18.5C20 17.1193 18.8807 16 17.5 16C16.1193 16 15 17.1193 15 18.5C15 19.8807 16.1193 21 17.5 21Z" stroke="#303450" stroke-width="2" stroke-linecap="round" stroke-linejoin="round"/>
<path d="M9 13L15 17" stroke="#303450" stroke-width="2" stroke-linecap="round" stroke-linejoin="round"/>
<path d="M15 7L9 11" stroke="#303450" stroke-width="2" stroke-linecap="round" stroke-linejoin="round"/>
</svg>
