<svg width="13" height="14" viewBox="0 0 13 14" fill="none" xmlns="http://www.w3.org/2000/svg">
<path d="M7.8 7.63636H8.775V9.43091L10.361 10.3282L9.8735 11.1555L7.8 9.98455V7.63636ZM10.4 4.45455H1.3V11.4545H4.3355C4.056 10.8755 3.9 10.2264 3.9 9.54545C3.9 8.36404 4.37937 7.231 5.23266 6.39562C6.08595 5.56023 7.24326 5.09091 8.45 5.09091C9.1455 5.09091 9.8085 5.24364 10.4 5.51727V4.45455ZM1.3 12.7273C0.5785 12.7273 0 12.1545 0 11.4545V2.54545C0 1.83909 0.5785 1.27273 1.3 1.27273H1.95V0H3.25V1.27273H8.45V0H9.75V1.27273H10.4C10.7448 1.27273 11.0754 1.40682 11.3192 1.6455C11.563 1.88418 11.7 2.20791 11.7 2.54545V6.42727C12.506 7.22909 13 8.33 13 9.54545C13 10.7269 12.5206 11.8599 11.6673 12.6953C10.814 13.5307 9.65673 14 8.45 14C7.2085 14 6.084 13.5164 5.265 12.7273H1.3ZM8.45 6.45909C7.6139 6.45909 6.81205 6.78426 6.22085 7.36307C5.62964 7.94187 5.2975 8.7269 5.2975 9.54545C5.2975 11.2509 6.708 12.6318 8.45 12.6318C8.86399 12.6318 9.27393 12.552 9.65641 12.3969C10.0389 12.2418 10.3864 12.0144 10.6792 11.7278C10.9719 11.4412 11.2041 11.101 11.3625 10.7266C11.521 10.3521 11.6025 9.95076 11.6025 9.54545C11.6025 7.84 10.192 6.45909 8.45 6.45909Z" fill="#303450"/>
</svg>
