<svg width="65" height="55" viewBox="0 0 65 55" fill="none" xmlns="http://www.w3.org/2000/svg">
<path d="M0 0V55H65V0H0ZM4.98685 5.14044H60.0131V49.8596H4.98685V5.14044ZM16.3294 11.5961C14.7775 11.5961 13.4717 12.1322 12.4136 13.205C11.3556 14.2778 10.8267 15.6016 10.8267 17.1749C10.8267 18.6768 11.3556 19.9634 12.4136 21.0362C13.4717 22.109 14.7775 22.6451 16.3294 22.6451C17.8107 22.6451 19.0798 22.109 20.138 21.0362C21.1961 19.9635 21.7249 18.6768 21.7249 17.1749C21.7249 15.6016 21.1961 14.2778 20.138 13.205C19.0799 12.1322 17.8107 11.5961 16.3294 11.5961ZM39.7125 14.3151L27.2275 33.5172L20.5981 27.9384L10.8267 40.8095V44.5662H54.1733V29.4749L39.7125 14.3151Z" fill="#D8DCE6"/>
</svg>
