<svg width="14" height="14" viewBox="0 0 14 14" fill="none" xmlns="http://www.w3.org/2000/svg">
<path d="M13 14V12.6667C13 11.9594 12.6839 11.2811 12.1213 10.781C11.5587 10.281 10.7956 10 10 10H4C3.20435 10 2.44129 10.281 1.87868 10.781C1.31607 11.2811 1 11.9594 1 12.6667V14" fill="#365693"/>
<path d="M13 14V12.6667C13 11.9594 12.6839 11.2811 12.1213 10.781C11.5587 10.281 10.7956 10 10 10H4C3.20435 10 2.44129 10.281 1.87868 10.781C1.31607 11.2811 1 11.9594 1 12.6667V14H13Z" stroke="#365693" stroke-width="1.2" stroke-linecap="round" stroke-linejoin="round"/>
<path d="M7 7C8.65685 7 10 5.65685 10 4C10 2.34315 8.65685 1 7 1C5.34315 1 4 2.34315 4 4C4 5.65685 5.34315 7 7 7Z" fill="#365693" stroke="#365693" stroke-width="1.2" stroke-linecap="round" stroke-linejoin="round"/>
</svg>
