<svg width="19" height="18" viewBox="0 0 19 18" fill="none" xmlns="http://www.w3.org/2000/svg">
<path d="M18.0844 0.312773H1.27812C1.12573 0.313104 0.979665 0.37379 0.871903 0.481552C0.764141 0.589314 0.703455 0.735375 0.703125 0.887773V14.0728C0.703125 14.389 0.961875 14.6478 1.27812 14.6478H11.9419V14.6453H18.0844C18.4006 14.6453 18.6594 14.3871 18.6594 14.0703V0.886523C18.6586 0.734277 18.5977 0.5885 18.4901 0.480844C18.3824 0.373188 18.2366 0.312344 18.0844 0.311523V0.312773ZM17.8506 11.539C17.8506 11.7965 17.6394 12.0078 17.3819 12.0078H1.91313C1.78891 12.0074 1.66987 11.958 1.58203 11.8701C1.4942 11.7823 1.4447 11.6632 1.44437 11.539V1.53902C1.44437 1.2809 1.655 1.07027 1.91313 1.07027H17.3819C17.6394 1.07027 17.8506 1.2809 17.8506 1.53902V11.539ZM12.8231 16.7503C12.8025 16.7284 12.7844 16.7159 12.7806 16.7115L12.7744 16.709L12.7694 16.7065C12.7694 16.7065 12.7406 16.694 12.6944 16.6678C12.6275 16.6328 12.5181 16.5778 12.4169 16.5196C12.3297 16.4716 12.2474 16.415 12.1713 16.3509C12.1558 16.3167 12.1436 16.2811 12.135 16.2446C12.0831 16.0446 12.035 15.6509 11.9975 15.2821H7.31C7.29562 15.4259 7.28 15.5746 7.2625 15.7146C7.24486 15.8647 7.22151 16.0139 7.1925 16.1621C7.1804 16.2243 7.16304 16.2854 7.14062 16.3446L7.13625 16.3528C7.0775 16.4128 6.92375 16.5065 6.79062 16.5778C6.72375 16.6165 6.65937 16.6465 6.61375 16.669L6.53875 16.7065L6.535 16.7096L6.53 16.7121C6.52375 16.7171 6.50625 16.7246 6.48625 16.7496C6.45981 16.7827 6.44509 16.8236 6.44438 16.8659C6.44625 16.8671 6.4425 16.889 6.44125 16.9209C6.44125 16.9478 6.44562 16.9946 6.48375 17.0365C6.52125 17.074 6.57312 17.0865 6.61937 17.0865H12.6919C12.7414 17.0875 12.7894 17.0697 12.8263 17.0365C12.8557 17.0051 12.8714 16.9633 12.87 16.9203C12.8688 16.889 12.8637 16.8665 12.865 16.8653C12.8648 16.8232 12.8508 16.7823 12.825 16.749L12.8231 16.7503Z" fill="#303450"/>
</svg>
