<svg width="13" height="12" viewBox="0 0 13 12" fill="none" xmlns="http://www.w3.org/2000/svg">
<path d="M6.5 10.8C7.77304 10.8 8.99394 10.2943 9.89411 9.39411C10.7943 8.49394 11.3 7.27304 11.3 6C11.3 4.72696 10.7943 3.50606 9.89411 2.60589C8.99394 1.70571 7.77304 1.2 6.5 1.2C5.22696 1.2 4.00606 1.70571 3.10589 2.60589C2.20571 3.50606 1.7 4.72696 1.7 6C1.7 7.27304 2.20571 8.49394 3.10589 9.39411C4.00606 10.2943 5.22696 10.8 6.5 10.8ZM6.5 0C7.28793 0 8.06815 0.155195 8.7961 0.456723C9.52405 0.758251 10.1855 1.20021 10.7426 1.75736C11.2998 2.31451 11.7417 2.97595 12.0433 3.7039C12.3448 4.43185 12.5 5.21207 12.5 6C12.5 7.5913 11.8679 9.11742 10.7426 10.2426C9.61742 11.3679 8.0913 12 6.5 12C3.182 12 0.5 9.3 0.5 6C0.5 4.4087 1.13214 2.88258 2.25736 1.75736C3.38258 0.632141 4.9087 0 6.5 0ZM6.8 3V6.15L9.5 7.752L9.05 8.49L5.9 6.6V3H6.8Z" fill="#8A8A8A"/>
</svg>
