<svg width="89" height="66" viewBox="0 0 89 66" fill="none" xmlns="http://www.w3.org/2000/svg">
<mask id="path-1-inside-1" fill="white">
<path fill-rule="evenodd" clip-rule="evenodd" d="M6.69655 18.877C3.34387 18.877 0.625977 21.5948 0.625977 24.9475V54.5416C0.625977 56.6792 1.73079 58.5587 3.40055 59.6403L6.12359 65.0864C6.38066 65.6006 6.90617 65.9253 7.48101 65.9253C8.05585 65.9253 8.58136 65.6006 8.83843 65.0864L11.0755 60.6122H47.673C51.0256 60.6122 53.7435 57.8943 53.7435 54.5416V24.9475C53.7435 21.5948 51.0256 18.877 47.673 18.877H6.69655Z"/>
</mask>
<path fill-rule="evenodd" clip-rule="evenodd" d="M6.69655 18.877C3.34387 18.877 0.625977 21.5948 0.625977 24.9475V54.5416C0.625977 56.6792 1.73079 58.5587 3.40055 59.6403L6.12359 65.0864C6.38066 65.6006 6.90617 65.9253 7.48101 65.9253C8.05585 65.9253 8.58136 65.6006 8.83843 65.0864L11.0755 60.6122H47.673C51.0256 60.6122 53.7435 57.8943 53.7435 54.5416V24.9475C53.7435 21.5948 51.0256 18.877 47.673 18.877H6.69655Z" fill="#D8DCE6"/>
<path d="M3.40055 59.6403L5.1894 58.7459L4.94555 58.2582L4.48789 57.9617L3.40055 59.6403ZM6.12359 65.0864L7.91244 64.192L7.91244 64.192L6.12359 65.0864ZM8.83843 65.0864L7.04958 64.192L7.04958 64.192L8.83843 65.0864ZM11.0755 60.6122V58.6122H9.83948L9.28669 59.7178L11.0755 60.6122ZM2.62598 24.9475C2.62598 22.6994 4.44844 20.877 6.69655 20.877V16.877C2.2393 16.877 -1.37402 20.4903 -1.37402 24.9475H2.62598ZM2.62598 54.5416V24.9475H-1.37402V54.5416H2.62598ZM4.48789 57.9617C3.36312 57.2331 2.62598 55.9729 2.62598 54.5416H-1.37402C-1.37402 57.3855 0.0984647 59.8843 2.31321 61.3189L4.48789 57.9617ZM7.91244 64.192L5.1894 58.7459L1.6117 60.5348L4.33473 65.9808L7.91244 64.192ZM7.48101 63.9253C7.66371 63.9253 7.83074 64.0286 7.91244 64.192L4.33473 65.9808C4.93059 67.1726 6.14862 67.9253 7.48101 67.9253V63.9253ZM7.04958 64.192C7.13128 64.0286 7.29831 63.9253 7.48101 63.9253V67.9253C8.8134 67.9253 10.0314 67.1726 10.6273 65.9808L7.04958 64.192ZM9.28669 59.7178L7.04958 64.192L10.6273 65.9808L12.8644 61.5066L9.28669 59.7178ZM47.673 58.6122H11.0755V62.6122H47.673V58.6122ZM51.7435 54.5416C51.7435 56.7897 49.9211 58.6122 47.673 58.6122V62.6122C52.1302 62.6122 55.7435 58.9989 55.7435 54.5416H51.7435ZM51.7435 24.9475V54.5416H55.7435V24.9475H51.7435ZM47.673 20.877C49.9211 20.877 51.7435 22.6994 51.7435 24.9475H55.7435C55.7435 20.4903 52.1302 16.877 47.673 16.877V20.877ZM6.69655 20.877H47.673V16.877H6.69655V20.877Z" fill="#BDC7E2" mask="url(#path-1-inside-1)"/>
<rect x="8.17676" y="26.4277" width="39.6407" height="26.4271" fill="#EDEFF5"/>
<path fill-rule="evenodd" clip-rule="evenodd" d="M40.266 37.7538H15.7266V33.9785H40.266V37.7538Z" fill="#BDC7E2"/>
<path fill-rule="evenodd" clip-rule="evenodd" d="M40.265 47.1933H15.7256V43.418H40.265V47.1933Z" fill="#BDC7E2"/>
<mask id="path-6-inside-2" fill="white">
<path fill-rule="evenodd" clip-rule="evenodd" d="M82.8415 0C86.1942 0 88.9121 2.71789 88.9121 6.07058V35.6646C88.9121 37.8021 87.8074 39.6816 86.1378 40.7632L83.4145 46.2098C83.1574 46.724 82.6319 47.0487 82.0571 47.0487C81.4822 47.0487 80.9567 46.724 80.6996 46.2098L78.4623 41.7352H41.8651C38.5124 41.7352 35.7946 39.0173 35.7946 35.6646V6.07058C35.7946 2.71789 38.5124 0 41.8651 0H82.8415Z"/>
</mask>
<path fill-rule="evenodd" clip-rule="evenodd" d="M82.8415 0C86.1942 0 88.9121 2.71789 88.9121 6.07058V35.6646C88.9121 37.8021 87.8074 39.6816 86.1378 40.7632L83.4145 46.2098C83.1574 46.724 82.6319 47.0487 82.0571 47.0487C81.4822 47.0487 80.9567 46.724 80.6996 46.2098L78.4623 41.7352H41.8651C38.5124 41.7352 35.7946 39.0173 35.7946 35.6646V6.07058C35.7946 2.71789 38.5124 0 41.8651 0H82.8415Z" fill="#D8DCE6"/>
<path d="M86.1378 40.7632L84.3489 39.8688L84.5928 39.3811L85.0504 39.0847L86.1378 40.7632ZM83.4145 46.2098L81.6256 45.3154L81.6256 45.3154L83.4145 46.2098ZM80.6996 46.2098L82.4885 45.3154L82.4885 45.3154L80.6996 46.2098ZM78.4623 41.7352V39.7352H79.6984L80.2512 40.8408L78.4623 41.7352ZM86.9121 6.07058C86.9121 3.82246 85.0896 2 82.8415 2V-2C87.2988 -2 90.9121 1.61332 90.9121 6.07058H86.9121ZM86.9121 35.6646V6.07058H90.9121V35.6646H86.9121ZM85.0504 39.0847C86.175 38.3561 86.9121 37.0959 86.9121 35.6646H90.9121C90.9121 38.5084 89.4398 41.0071 87.2252 42.4418L85.0504 39.0847ZM81.6256 45.3154L84.3489 39.8688L87.9266 41.6576L85.2033 47.1042L81.6256 45.3154ZM82.0571 45.0487C81.8744 45.0487 81.7073 45.152 81.6256 45.3154L85.2033 47.1042C84.6075 48.296 83.3894 49.0487 82.0571 49.0487V45.0487ZM82.4885 45.3154C82.4068 45.152 82.2398 45.0487 82.0571 45.0487V49.0487C80.7247 49.0487 79.5066 48.296 78.9108 47.1042L82.4885 45.3154ZM80.2512 40.8408L82.4885 45.3154L78.9108 47.1042L76.6735 42.6297L80.2512 40.8408ZM41.8651 39.7352H78.4623V43.7352H41.8651V39.7352ZM37.7946 35.6646C37.7946 37.9128 39.617 39.7352 41.8651 39.7352V43.7352C37.4079 43.7352 33.7946 40.1219 33.7946 35.6646H37.7946ZM37.7946 6.07058V35.6646H33.7946V6.07058H37.7946ZM41.8651 2C39.617 2 37.7946 3.82246 37.7946 6.07058H33.7946C33.7946 1.61332 37.4079 -2 41.8651 -2V2ZM82.8415 2H41.8651V-2H82.8415V2Z" fill="#BDC7E2" mask="url(#path-6-inside-2)"/>
<rect width="39.6407" height="26.4271" transform="matrix(-1 0 0 1 81.7969 7.55078)" fill="#EDEFF5"/>
<path fill-rule="evenodd" clip-rule="evenodd" d="M49.7047 18.8769H74.2441V15.1016H49.7047V18.8769Z" fill="#BDC7E2"/>
<path fill-rule="evenodd" clip-rule="evenodd" d="M49.7047 28.3144H74.2441V24.5391H49.7047V28.3144Z" fill="#BDC7E2"/>
</svg>
