<svg width="18" height="18" viewBox="0 0 18 18" fill="none" xmlns="http://www.w3.org/2000/svg">
<circle cx="9" cy="9" r="9" fill="#303450"/>
<path d="M12.2222 8.0625H5.90278C5.40419 8.0625 5 8.46669 5 8.96528V12.125C5 12.6236 5.40419 13.0278 5.90278 13.0278H12.2222C12.7208 13.0278 13.125 12.6236 13.125 12.125V8.96528C13.125 8.46669 12.7208 8.0625 12.2222 8.0625Z" stroke="white" stroke-linecap="round" stroke-linejoin="round"/>
<path d="M6.80566 8.0625V6.25694C6.80566 5.65837 7.04345 5.0843 7.46671 4.66104C7.88997 4.23778 8.46403 4 9.06261 4C9.66119 4 10.2353 4.23778 10.6585 4.66104C11.0818 5.0843 11.3196 5.65837 11.3196 6.25694V8.0625" stroke="white" stroke-linecap="round" stroke-linejoin="round"/>
</svg>
