<svg width="78" height="101" viewBox="0 0 78 101" fill="none" xmlns="http://www.w3.org/2000/svg">
<path fill-rule="evenodd" clip-rule="evenodd" d="M16.9917 1.29757C17.1796 1.10718 17.436 1 17.7035 1H76C76.5523 1 77 1.44772 77 2V99C77 99.5523 76.5523 100 76 100H2C1.44772 100 1 99.5523 1 99V17.912C1 17.649 1.10355 17.3967 1.28825 17.2095L16.9917 1.29757Z" fill="#E4E8F3" stroke="#BDC7E2"/>
<rect x="11.8572" y="14.75" width="57" height="74.25" fill="#EDEFF5"/>
<rect x="17.2856" y="28.5" width="43.4286" height="11" fill="#BDC7E2"/>
<rect x="17.2856" y="50.5" width="43.4286" height="11" fill="#BDC7E2"/>
<rect x="17.2856" y="72.5" width="43.4286" height="11" fill="#BDC7E2"/>
<path fill-rule="evenodd" clip-rule="evenodd" d="M17.29 1V16.5016C17.29 17.0539 16.8423 17.5016 16.29 17.5016H1L17.29 1Z" fill="#BDC7E2"/>
</svg>
