<svg width="79" height="100" viewBox="0 0 79 100" fill="none" xmlns="http://www.w3.org/2000/svg">
<path fill-rule="evenodd" clip-rule="evenodd" d="M16.6493 1.80113C17.1636 1.28817 17.8611 1 18.5884 1H75.0377C76.5522 1 77.7798 2.22446 77.7798 3.73488V96.7209C77.7798 98.2314 76.5522 99.4558 75.0377 99.4558H3.74214C2.22768 99.4558 1 98.2314 1 96.7209V18.5436C1 17.8183 1.28886 17.1228 1.80303 16.6099L16.6493 1.80113Z" fill="#E9E4F3" stroke="#C7BDE2"/>
<rect x="9.22803" y="14.6748" width="60.327" height="73.8418" fill="#F0EDF5"/>
<path fill-rule="evenodd" clip-rule="evenodd" d="M39.3895 72.1074C49.9906 72.1074 58.5845 63.5362 58.5845 52.9632C58.5845 42.3901 49.9906 33.819 39.3895 33.819C28.7885 33.819 20.1946 42.3901 20.1946 52.9632C20.1946 63.5362 28.7885 72.1074 39.3895 72.1074Z" fill="#C7BDE2"/>
<path fill-rule="evenodd" clip-rule="evenodd" d="M37.412 54.4887C37.0821 55.3313 36.9172 56.4804 36.9172 57.9362H41.206C41.226 57.1784 41.331 56.5527 41.521 56.0591C41.7109 55.5656 42.0508 55.0845 42.5407 54.6158L44.2652 53.0155C44.995 52.3076 45.5249 51.6146 45.8548 50.9366C46.1847 50.2586 46.3497 49.5058 46.3497 48.6782C46.3497 46.7837 45.7374 45.323 44.5127 44.2959C43.288 43.2689 41.561 42.7554 39.3315 42.7554C37.0921 42.7554 35.3526 43.3113 34.1129 44.4231C32.8732 45.5348 32.2434 47.0878 32.2234 49.082H37.2921C37.3121 48.3342 37.507 47.7409 37.8769 47.3022C38.2468 46.8635 38.7317 46.6441 39.3315 46.6441C40.6312 46.6441 41.281 47.3969 41.281 48.9025C41.281 49.5207 41.0886 50.0866 40.7037 50.6001C40.3188 51.1136 39.7564 51.6794 39.0166 52.2976C38.2768 52.9158 37.7419 53.6462 37.412 54.4887ZM37.1054 60.6645C36.5705 61.1381 36.3031 61.7438 36.3031 62.4817C36.3031 63.2195 36.5705 63.8253 37.1054 64.2989C37.6402 64.7725 38.3076 65.0093 39.1074 65.0093C39.9071 65.0093 40.5745 64.7725 41.1093 64.2989C41.6442 63.8253 41.9116 63.2195 41.9116 62.4817C41.9116 61.7438 41.6442 61.1381 41.1093 60.6645C40.5745 60.1909 39.9071 59.954 39.1074 59.954C38.3076 59.954 37.6402 60.1909 37.1054 60.6645Z" fill="#F0EDF5"/>
<path fill-rule="evenodd" clip-rule="evenodd" d="M17.4572 1V14.676C17.4572 16.1864 16.2295 17.4109 14.715 17.4109H1L17.4572 1Z" fill="#C7BDE2"/>
</svg>
