<svg width="70" height="70" viewBox="0 0 70 70" fill="none" xmlns="http://www.w3.org/2000/svg">
<circle cx="35" cy="35" r="35" fill="#FF6262"/>
<path d="M24.5138 44.8507C24.4874 44.0426 24.7354 43.3779 25.2578 42.8567C25.7919 42.3351 26.4689 42.061 27.2887 42.0343C28.1203 42.0072 28.8137 42.2367 29.3689 42.7227C29.9358 43.2084 30.2324 43.8554 30.2588 44.6635C30.2847 45.46 30.0365 46.1188 29.5141 46.64C28.9914 47.1495 28.3084 47.418 27.4651 47.4454C26.6335 47.4725 25.9403 47.2489 25.3855 46.7745C24.8303 46.2885 24.5397 45.6472 24.5138 44.8507ZM24.0449 30.4619C24.0186 29.6537 24.2666 28.989 24.7889 28.4678C25.323 27.9463 26 27.6721 26.8199 27.6454C27.6515 27.6183 28.3449 27.8478 28.9 28.3339C29.4669 28.8196 29.7636 29.4665 29.7899 30.2747C29.8159 31.0711 29.5676 31.73 29.0453 32.2512C28.5225 32.7606 27.8395 33.0291 26.9962 33.0566C26.1646 33.0837 25.4714 32.8601 24.9166 32.3857C24.3614 31.8996 24.0709 31.2583 24.0449 30.4619ZM37.5783 49.1209L33.801 49.244L42.3128 21.1608L46.0901 21.0378L37.5783 49.1209Z" fill="white"/>
</svg>
