<?xml version="1.0" encoding="UTF-8"?>
<svg width="20px" height="18px" viewBox="0 0 20 18" version="1.1" xmlns="http://www.w3.org/2000/svg" xmlns:xlink="http://www.w3.org/1999/xlink">
    <title>like</title>
    <g id="Page-1" stroke="none" stroke-width="1" fill="none" fill-rule="evenodd" stroke-linecap="round" stroke-linejoin="round">
        <g id="like" transform="translate(1.000000, 1.000000)" fill="#303450" stroke="#303450" stroke-width="2">
            <path d="M16.612,1.41452 C16.1722,0.96607 15.65,0.61034 15.0752,0.36763 C14.5005,0.12492 13.8844,0 13.2623,0 C12.6401,0 12.0241,0.12492 11.4493,0.36763 C10.8746,0.61034 10.3524,0.96607 9.9126,1.41452 L8.99977,2.34476 L8.08699,1.41452 C7.19858,0.50912 5.99364,0.00047 4.73725,0.00047 C3.48085,0.00047 2.27591,0.50912 1.38751,1.41452 C0.4991,2.31992 0,3.5479 0,4.82833 C0,6.10875 0.4991,7.33674 1.38751,8.24214 L2.30029,9.1724 L8.99977,16 L15.6992,9.1724 L16.612,8.24214 C17.0521,7.79391 17.4011,7.26171 17.6393,6.67596 C17.8774,6.0902 18,5.46237 18,4.82833 C18,4.19428 17.8774,3.56645 17.6393,2.9807 C17.4011,2.39494 17.0521,1.86275 16.612,1.41452 L16.612,1.41452 Z" id="Path"></path>
        </g>
    </g>
</svg>