<svg width="24" height="24" viewBox="0 0 24 24" fill="none" xmlns="http://www.w3.org/2000/svg">
<path fill-rule="evenodd" clip-rule="evenodd" d="M12.0006 6.44447C13.2279 6.44447 14.2228 5.44954 14.2228 4.22223C14.2228 2.99493 13.2279 2 12.0006 2C10.7732 2 9.77832 2.99493 9.77832 4.22223C9.77832 5.44954 10.7732 6.44447 12.0006 6.44447ZM12.0006 14.222C13.2279 14.222 14.2228 13.2271 14.2228 11.9998C14.2228 10.7724 13.2279 9.77752 12.0006 9.77752C10.7732 9.77752 9.77832 10.7724 9.77832 11.9998C9.77832 13.2271 10.7732 14.222 12.0006 14.222ZM14.2228 19.7781C14.2228 21.0054 13.2279 22.0003 12.0006 22.0003C10.7732 22.0003 9.77832 21.0054 9.77832 19.7781C9.77832 18.5508 10.7732 17.5559 12.0006 17.5559C13.2279 17.5559 14.2228 18.5508 14.2228 19.7781Z" fill="#303450"/>
</svg>
