<svg width="28" height="25" viewBox="0 0 28 25" fill="none" xmlns="http://www.w3.org/2000/svg">
<path d="M13.9 4.08259C10.52 0.0425911 7.03 1.14259 1 1.14259V20.9826C1.77 20.9826 2.5 20.9826 3.19 20.9826C7.25 20.8626 10.11 20.6126 12.62 22.5926C13.0799 22.9594 13.505 23.3678 13.89 23.8126" stroke="#303450" stroke-width="2" stroke-miterlimit="10" stroke-linecap="round"/>
<path d="M26.801 1.14215V20.9821C25.981 20.9821 25.221 20.9821 24.491 20.9821C20.601 20.9121 17.911 20.8021 15.351 22.5921C14.8316 22.9613 14.3463 23.3763 13.901 23.8321V23.8321C13.8483 23.4277 13.8249 23.02 13.831 22.6121C13.831 21.8121 13.831 20.6621 13.831 19.3321C13.831 13.8621 13.931 5.25215 13.941 4.13215V3.96215C17.271 0.042146 20.771 1.14215 26.801 1.14215Z" stroke="#303450" stroke-width="2" stroke-miterlimit="10" stroke-linecap="round"/>
</svg>
