<?xml version="1.0" encoding="UTF-8"?>
<svg width="18px" height="18px" viewBox="0 0 18 18" version="1.1" xmlns="http://www.w3.org/2000/svg" xmlns:xlink="http://www.w3.org/1999/xlink">
    <!-- Generator: Sketch 60 (88103) - https://sketch.com -->
    <title>icons/sm/quiz</title>
    <desc>Created with Sketch.</desc>
    <g id="icons/sm/quiz" stroke="none" stroke-width="1" fill="none" fill-rule="evenodd">
        <path d="M5.01171875,0 L14,0 C15.1045695,-2.02906125e-16 16,0.8954305 16,2 L16,16 C16,17.1045695 15.1045695,18 14,18 L4,18 C2.8954305,18 2,17.1045695 2,16 L2,3.01696777 L2,3.01696777 L5.01171875,0 Z" id="Rectangle" fill="#E8C4F2"></path>
        <path d="M9,2 C10.6568542,2 12,3.34314575 12,5 C12,6.65685425 10.6568542,8 9,8 C7.34314575,8 6,6.65685425 6,5 C6,3.34314575 7.34314575,2 9,2 Z M8.94472656,6.36914062 C8.78847578,6.36914062 8.65810599,6.41552688 8.55361328,6.50830078 C8.44912057,6.60107468 8.396875,6.71972584 8.396875,6.86425781 C8.396875,7.00878979 8.44912057,7.12744094 8.55361328,7.22021484 C8.65810599,7.31298875 8.78847578,7.359375 8.94472656,7.359375 C9.10097734,7.359375 9.23134713,7.31298875 9.33583984,7.22021484 C9.44033255,7.12744094 9.49257813,7.00878979 9.49257813,6.86425781 C9.49257813,6.71972584 9.44033255,6.60107468 9.33583984,6.50830078 C9.23134713,6.41552688 9.10097734,6.36914062 8.94472656,6.36914062 Z M8.98867188,3 C8.55116969,3 8.21132934,3.10888563 7.96914063,3.32666016 C7.72695191,3.54443468 7.60390627,3.84863086 7.6,4.23925781 L7.6,4.23925781 L8.59023438,4.23925781 C8.59414064,4.09277271 8.6322262,3.97656293 8.70449219,3.890625 C8.77675817,3.80468707 8.87148379,3.76171875 8.98867188,3.76171875 C9.24257939,3.76171875 9.36953125,3.90917821 9.36953125,4.20410156 C9.36953125,4.32519592 9.33193397,4.43603465 9.25673828,4.53662109 C9.18154259,4.63720753 9.07168041,4.74804627 8.92714844,4.86914062 C8.78261646,4.99023498 8.67812532,5.13329996 8.61367188,5.29833984 C8.54921843,5.46337973 8.51699219,5.68847514 8.51699219,5.97363281 L8.51699219,5.97363281 L9.35488281,5.97363281 C9.35878908,5.82519457 9.37929669,5.7026372 9.41640625,5.60595703 C9.45351581,5.50927686 9.5199214,5.41503952 9.615625,5.32324219 L9.615625,5.32324219 L9.95253906,5.00976562 C10.0951179,4.87109306 10.1986325,4.73535223 10.2630859,4.60253906 C10.3275394,4.4697259 10.3597656,4.32226644 10.3597656,4.16015625 C10.3597656,3.78906064 10.2401379,3.50293069 10.0008789,3.30175781 C9.7616199,3.10058493 9.42422093,3 8.98867188,3 Z" id="Combined-Shape" fill="#9F6BAD"></path>
        <path d="M5.01171875,0 L5.01171875,1.01696777 C5.01171875,2.12153727 4.11628825,3.01696777 3.01171875,3.01696777 L2,3.01696777 L2,3.01696777 L5.01171875,0 Z" id="Rectangle-Copy-4" fill="#CB9ED8"></path>
        <path d="M7.82842712,13.4393398 L8.53553391,14.1464466 L6.41421356,16.267767 L5,14.8535534 L5.70710678,14.1464466 L6.41421356,14.8535534 L7.82842712,13.4393398 Z M13,14 L13,15 L10,15 L10,14 L13,14 Z M7,9 C7.55228475,9 8,9.44771525 8,10 L8,11 C8,11.5522847 7.55228475,12 7,12 L6,12 C5.44771525,12 5,11.5522847 5,11 L5,10 C5,9.44771525 5.44771525,9 6,9 L7,9 Z M13,10 L13,11 L10,11 L10,10 L13,10 Z" id="Combined-Shape" fill="#9F6BAD" fill-rule="nonzero"></path>
    </g>
</svg>