<?xml version="1.0" encoding="UTF-8"?>
<svg width="900px" height="906px" viewBox="0 0 900 906" version="1.1" xmlns="http://www.w3.org/2000/svg" xmlns:xlink="http://www.w3.org/1999/xlink">
    <title>search_not_found</title>
    <g id="Page-1" stroke="none" stroke-width="1" fill="none" fill-rule="evenodd">
        <g id="search_not_found" fill-rule="nonzero">
            <g id="g12" transform="translate(450.000000, 453.000000) scale(-1, 1) rotate(-180.000000) translate(-450.000000, -453.000000) translate(0.000000, -0.000000)">
                <path d="M869.203971,122.793323 L865.426638,126.583989 L773.951973,35.1186584 L776.17864,32.9119918 L800.435973,8.69199241 C815.977305,-6.88267387 849.054638,0.9839926 874.334637,26.2266586 C899.593303,51.5159913 907.451973,84.5879905 891.910637,100.125323 L869.242637,122.793323 L869.203971,122.793323" id="path16" fill="#616E7D"></path>
                <polyline id="path18" fill="#AAD4C8" points="843.042638 148.582656 751.56664 57.1759912 773.951973 35.1186584 865.426638 126.583989 862.811971 129.198656 862.738638 129.158656 843.042638 148.582656"></polyline>
                <path d="M361.39465,298.221319 C222.99732,298.221319 110.76799,410.417316 110.76799,548.845312 C110.76799,687.279975 222.99732,799.469306 361.39465,799.469306 C499.826647,799.469306 612.030644,687.279975 612.030644,548.845312 C612.030644,410.417316 499.826647,298.221319 361.39465,298.221319 L361.39465,298.221319 Z M356.521317,905.306637 C159.675989,905.306637 0.111992547,745.702641 0.111992547,548.845312 C0.111992547,351.995984 159.675989,192.422654 356.521317,192.422654 C429.501315,192.422654 497.24398,214.387987 553.770645,252.015986 L751.56664,57.1759912 L843.042638,148.582656 L646.535976,342.126651 C688.206642,400.457316 712.979975,471.705314 712.979975,548.845312 C712.979975,745.702641 553.414645,905.306637 356.521317,905.306637" id="path20" fill="#616E7D"></path>
                <path d="M404.469316,703.926642 L229.395987,483.713314 C223.610654,476.390647 224.81332,465.749314 232.130653,459.891981 C235.25332,457.446648 238.97332,456.231981 242.67732,456.231981 C247.631986,456.231981 252.603986,458.398648 255.943986,462.631981 L430.994648,682.858642 C436.829315,690.181309 435.577315,700.811975 428.250649,706.638642 C420.931982,712.415975 410.263982,711.253308 404.469316,703.926642" id="path22" fill="#82BFAB"></path>
                <path d="M477.893314,630.511977 L302.810652,410.289316 C296.985318,402.966649 298.226652,392.334649 305.555985,386.471983 C308.677318,384.023983 312.397318,382.813316 316.085318,382.813316 C321.055985,382.813316 325.994651,385.015983 329.334651,389.211983 L504.417313,609.434644 C510.23598,616.757311 508.99998,627.39331 501.673313,633.250643 C494.378647,639.04531 483.686647,637.830643 477.893314,630.511977" id="path24" fill="#82BFAB"></path>
            </g>
        </g>
    </g>
</svg>