<svg width="18" height="23" viewBox="0 0 18 23" fill="none" xmlns="http://www.w3.org/2000/svg">
<path fill-rule="evenodd" clip-rule="evenodd" d="M4.26113 1.17088C4.3683 1.06147 4.51365 1 4.66522 1H16.4286C16.7442 1 17 1.26117 17 1.58333V21.4167C17 21.7388 16.7442 22 16.4286 22H1.57143C1.25583 22 1 21.7388 1 21.4167V4.74194C1 4.58724 1.06019 4.43888 1.16734 4.32949L4.26113 1.17088Z" fill="#E9E4F3" stroke="#C7BDE2"/>
<rect x="2.71484" y="3.91699" width="12.5714" height="15.75" fill="#F0EDF5"/>
<path fill-rule="evenodd" clip-rule="evenodd" d="M9 16.1667C11.2091 16.1667 13 14.3385 13 12.0833C13 9.82817 11.2091 8 9 8C6.79086 8 5 9.82817 5 12.0833C5 14.3385 6.79086 16.1667 9 16.1667Z" fill="#C7BDE2"/>
<path fill-rule="evenodd" clip-rule="evenodd" d="M8.58906 12.4089C8.52031 12.5886 8.48594 12.8337 8.48594 13.1442H9.37969C9.38385 12.9826 9.40573 12.8491 9.44531 12.7438C9.4849 12.6386 9.55573 12.536 9.65781 12.436L10.0172 12.0947C10.1693 11.9437 10.2797 11.7959 10.3484 11.6512C10.4172 11.5066 10.4516 11.3461 10.4516 11.1695C10.4516 10.7654 10.324 10.4539 10.0688 10.2348C9.81354 10.0158 9.45365 9.90625 8.98906 9.90625C8.52239 9.90625 8.1599 10.0248 7.90156 10.2619C7.64323 10.4991 7.51198 10.8303 7.50781 11.2557H8.56406C8.56823 11.0962 8.60885 10.9696 8.68594 10.876C8.76302 10.7825 8.86406 10.7357 8.98906 10.7357C9.2599 10.7357 9.39531 10.8962 9.39531 11.2174C9.39531 11.3492 9.35521 11.4699 9.275 11.5795C9.19479 11.689 9.07761 11.8097 8.92344 11.9415C8.76927 12.0734 8.65781 12.2292 8.58906 12.4089ZM8.52467 13.7262C8.41321 13.8272 8.35748 13.9564 8.35748 14.1138C8.35748 14.2712 8.41321 14.4004 8.52467 14.5014C8.63612 14.6024 8.77519 14.6529 8.94185 14.6529C9.10852 14.6529 9.24758 14.6024 9.35904 14.5014C9.4705 14.4004 9.52623 14.2712 9.52623 14.1138C9.52623 13.9564 9.4705 13.8272 9.35904 13.7262C9.24758 13.6252 9.10852 13.5747 8.94185 13.5747C8.77519 13.5747 8.63612 13.6252 8.52467 13.7262Z" fill="#F0EDF5"/>
<path fill-rule="evenodd" clip-rule="evenodd" d="M4.42948 1V3.91701C4.42948 4.23917 4.17364 4.50034 3.85805 4.50034H1L4.42948 1Z" fill="#C7BDE2"/>
</svg>
