<svg width="19" height="23" viewBox="0 0 19 23" fill="none" xmlns="http://www.w3.org/2000/svg">
<path fill-rule="evenodd" clip-rule="evenodd" d="M4.46495 1.17088C4.57882 1.06147 4.73325 1 4.89429 1H17.3929C17.7282 1 18 1.26117 18 1.58333V21.4167C18 21.7388 17.7282 22 17.3929 22H1.60714C1.27182 22 1 21.7388 1 21.4167V4.74194C1 4.58724 1.06396 4.43888 1.1778 4.32949L4.46495 1.17088Z" fill="#E4F2F3" stroke="#BDE0E2"/>
<rect x="2.82031" y="3.91699" width="13.3571" height="15.75" fill="#EDF5F2"/>
<rect x="4.03516" y="8.58301" width="3.64286" height="3.5" rx="1.40176" fill="#BDE0E2"/>
<path fill-rule="evenodd" clip-rule="evenodd" d="M7.53664 14.7533C7.75558 14.53 7.75558 14.1681 7.53664 13.9448C7.3177 13.7216 6.96274 13.7216 6.7438 13.9448L5.95028 14.754C5.73142 14.9771 5.37658 14.9771 5.15772 14.754C4.93886 14.5308 4.5836 14.5312 4.36474 14.7544C4.14588 14.9776 4.14547 15.3398 4.36433 15.563L4.76034 15.9668C4.76049 15.9669 4.76049 15.9672 4.76034 15.9673C4.76019 15.9675 4.76019 15.9677 4.76034 15.9679L4.85273 16.0621C4.86209 16.0717 4.87159 16.081 4.88122 16.09L5.15705 16.3713C5.37613 16.5947 5.73134 16.5947 5.95043 16.3713L6.34698 15.9669C6.34706 15.9669 6.34706 15.9667 6.34698 15.9667C6.34691 15.9666 6.34691 15.9664 6.34698 15.9664L7.53664 14.7533Z" fill="#BDE0E2"/>
<rect x="9.5" y="9.16602" width="4.85714" height="1.75" rx="0.875" fill="#BDE0E2"/>
<rect x="9.5" y="14.416" width="4.85714" height="1.75" rx="0.875" fill="#BDE0E2"/>
<path fill-rule="evenodd" clip-rule="evenodd" d="M4.64382 1V3.91701C4.64382 4.23917 4.37199 4.50034 4.03668 4.50034H1L4.64382 1Z" fill="#BDE0E2"/>
</svg>
