<svg width="18" height="23" viewBox="0 0 18 23" fill="none" xmlns="http://www.w3.org/2000/svg">
<path fill-rule="evenodd" clip-rule="evenodd" d="M4.26113 1.17088C4.3683 1.06147 4.51365 1 4.66522 1H16.4286C16.7442 1 17 1.26117 17 1.58333V21.4167C17 21.7388 16.7442 22 16.4286 22H1.57143C1.25583 22 1 21.7388 1 21.4167V4.74194C1 4.58724 1.06019 4.43888 1.16734 4.32949L4.26113 1.17088Z" fill="#E4E8F3" stroke="#BDC7E2"/>
<rect x="2.71484" y="3.91699" width="12.5714" height="15.75" fill="#EDEFF5"/>
<rect x="3.85547" y="8.58301" width="3.42857" height="3.5" rx="1.40176" fill="#BDC7E2"/>
<path fill-rule="evenodd" clip-rule="evenodd" d="M7.15026 14.7532C7.35632 14.53 7.35632 14.168 7.15026 13.9448C6.9442 13.7215 6.61011 13.7215 6.40406 13.9448L5.65723 14.7539C5.45126 14.9771 5.1173 14.9771 4.91133 14.7539C4.70535 14.5308 4.37099 14.5312 4.16501 14.7543C3.95904 14.9775 3.95863 15.3398 4.16461 15.5629L4.53729 15.9667C4.53744 15.9669 4.53744 15.9671 4.53729 15.9673C4.53714 15.9675 4.53714 15.9677 4.53729 15.9679L4.60497 16.0412C4.6142 16.0512 4.62357 16.061 4.63307 16.0705L4.91071 16.3713C5.11691 16.5947 5.45123 16.5947 5.65742 16.3713L6.03063 15.9669C6.03072 15.9668 6.03072 15.9667 6.03063 15.9666C6.03055 15.9665 6.03055 15.9664 6.03063 15.9663L7.15026 14.7532Z" fill="#BDC7E2"/>
<rect x="9" y="9.16602" width="4.57143" height="1.75" rx="0.875" fill="#BDC7E2"/>
<rect x="9" y="14.416" width="4.57143" height="1.75" rx="0.875" fill="#BDC7E2"/>
<path fill-rule="evenodd" clip-rule="evenodd" d="M4.42948 1V3.91701C4.42948 4.23917 4.17364 4.50034 3.85805 4.50034H1L4.42948 1Z" fill="#BDC7E2"/>
</svg>
