<?xml version="1.0" encoding="UTF-8"?>
<svg width="117px" height="97px" viewBox="0 0 117 97" version="1.1" xmlns="http://www.w3.org/2000/svg" xmlns:xlink="http://www.w3.org/1999/xlink">
    <!-- Generator: Sketch 60 (88103) - https://sketch.com -->
    <title>Group</title>
    <desc>Created with Sketch.</desc>
    <g id="Page-1" stroke="none" stroke-width="1" fill="none" fill-rule="evenodd">
        <g id="Group" fill="#D9DAE0" fill-rule="nonzero">
            <path d="M0.765137,0 L0.765137,97 L116.478,97 L116.478,0 L0.765137,0 Z M9.64276,9.06586 L107.601,9.06586 L107.601,87.9342 L9.64276,87.9342 L9.64276,9.06586 Z M29.8347,20.4513 C27.0721,20.4513 24.7476,21.3967 22.864,23.2888 C20.9804,25.1808 20.0389,27.5155 20.0389,30.2903 C20.0389,32.9392 20.9804,35.2082 22.864,37.1003 C24.7476,38.9923 27.0721,39.9378 29.8347,39.9378 C32.4718,39.9378 34.7312,38.9922 36.6149,37.1003 C38.4986,35.2083 39.4399,32.9391 39.4399,30.2903 C39.4399,27.5155 38.4985,25.1808 36.6149,23.2888 C34.7313,21.3967 32.4718,20.4513 29.8347,20.4513 Z M71.4616,25.2467 L49.2356,59.1122 L37.434,49.2732 L20.0389,71.9732 L20.0389,78.5986 L97.2047,78.5986 L97.2047,51.983 L71.4616,25.2467 Z" id="Shape"></path>
        </g>
    </g>
</svg>